<svg viewBox="0 0 744.094 1052.362" xmlns="http://www.w3.org/2000/svg"><path d="M521.775 347.405s22.534 7.89 26.766 31.564-55.657 80.52-75.38 113.661-27.474 53.619-26.058 59.931c1.398 6.314 28.183 50.503 16.906 50.503s-107.084 7.893-121.158 4.738c-14.092-3.157-14.092-137.302-11.277-165.71s44.954-108.186 93.375-121.744c12.598-3.528 94.009 12.85 96.824 27.054z" fill="#252413"/><path d="M425.94 328.23s10.09 4.518 13.115 16.943 10.53 19.727 18.15 21.462c7.601 1.73 59.489 6.777 59.489 6.777s-23.187 37.275-40.342 60.998-40.322 103.917-38.311 109.57 6.146 38.05 6.146 38.05L343.25 595.936s-14.111-66.646-12.1-81.328c2.029-14.682 8.08-71.158 14.129-81.327s23.186-50.829 33.276-66.642c10.09-15.816 46.39-45.185 47.389-38.406z" fill="#bd0179"/><path d="M450.018 380.29c3.216 2.25 23.932 13.55 16.83 15.322s-21.827-.296-19.99 6.778 13.94 14.435 3.409 16.205c-10.512 1.77-22.88 6.188-23.665 11.492s-3.676 20.921-4.997 21.215-58.933-25.043-58.933-25.043c-12.35-1.18 22.63-16.798 24.469-21.512s1.838-25.93 1.838-25.93 13.422-8.546 15.796-10.903c2.355-2.357 36.818 6.483 45.24 12.377z" fill="#de6ea6"/><path d="M479.952 397.817s-8.328 33.113-30.499 62.092-25.848 67.262-22.172 73.475 6.471 38.287 3.696 38.287-80.356 13.45-88.686 10.346c-8.31-3.101 8.329-10.348 8.329-10.348s40.647-6.207 50.815-11.38-14.8-17.59-9.247-26.905 17.557-19.663 19.394-25.872c1.857-6.21-40.647-25.87-36.013-23.8 4.614 2.068 34.176-4.141 49.874-18.63s53.57-71.4 53.57-71.4c.938 14.487.938 4.139.938 4.139z" fill="#930c7a"/><path d="M429.063 187.89s-10.74-27.912-24.737-15.12c0 0-23.684 26.36-3.676 44.876.517.484 2.642-3.94 2.642-3.94s17.538-21.08 25.771-25.814z" fill="#26231f"/><path d="M423.597 191.47s-7.793-24.518-18.457-13.926c0 0-14.207 10.908.478 32.112.422.6 0 0 0 0s7.678-14.745 17.979-18.186z" fill="#f09b75"/><path d="M605.289 277.323s27.647-11.451 28.183 8.774c0 0-4.059 39.571-29.638 34.77-.67-.125.919-4.82.919-4.82s2.738-28.646.536-38.724z" fill="#26231f"/><path d="M606.46 284.294s21.635-9.469 21.482 6.501c0 0 1.934 19.163-21.98 20.62-.67.043 0 0 0 0s4.92-16.15.498-27.12z" fill="#f09b75"/><path d="M400.256 219.813c-16.58 40.671 4.404 92.386 47.484 123.722 6.03 4.382 9.133 14.492 15.987 17.988 7.793 3.991 19.05 1.027 26.92 3.365 48.325 14.372 95.384-1.894 111.622-41.75 18.898-46.352-11.009-107.055-66.802-135.589s-116.313-14.09-135.21 32.265z" fill="#26231f"/><path d="M408.282 222.264c-15.585 38.26 3.676 86.668 43.575 115.822 5.571 4.071 9.324 11.5 15.662 14.746 7.237 3.7 16.791 2.888 24.105 5.04 44.841 13.204 88.646-2.328 103.926-39.826 17.768-43.605-9.745-100.386-61.44-126.837s-108.061-12.546-125.831 31.057z" fill="#f4b891"/><path d="M466.894 217.947c1.283 5.59 7.007 13.505 11.909 14.726l-11.91-14.726z" fill="#26231f"/><path d="M478.781 232.676c-.057 1.512-5.514.702-9.056-4.252-3.695-4.7-4.097-10.298-2.853-10.478 1.207-.235 3.083 3.332 6.165 7.276 3.006 4.082 5.84 6.095 5.744 7.454zM475.484 216.047c-.517 5.818 2.776 13.201 6.797 16.808l-6.797-16.808z" fill="#26231f"/><path d="M482.277 232.86c-.555 1.083-4.71-1.202-7.065-6.52-2.202-5.469-.804-10.657.268-10.292 1.34.308 1.991 3.92 3.695 8.21 1.877 4.216 3.849 7.368 3.102 8.602z" fill="#26231f"/><path d="M480.69 216.633c-2.087 4.777-.479 11.764 2.987 15.228l-2.987-15.228z" fill="#26231f"/><path d="M483.656 231.863c-.555 1.079-4.442-1.24-5.706-6.562-.995-5.468 1.877-9.473 2.72-8.667 1.167.838.88 3.852 1.55 7.561.88 3.674 2.24 6.439 1.436 7.668z" fill="#26231f"/><path d="M474.182 231.566c-.785 4.174 1.877 8.354 5.974 9.331 4.116.987 8.08-1.6 8.884-5.77.785-4.173-1.896-8.34-5.993-9.322s-8.06 1.594-8.865 5.76zM553.228 256.151c-4.614 2.572-13.708 2.908-17.748-.433l17.748.433z" fill="#26231f"/><path d="M535.484 255.722c.977-1.096 4.155-.073 8.807-.032 4.653-.101 8.233-.803 8.942.465.67 1.036-3.35 4.345-8.942 4.433-5.686.06-9.726-4-8.807-4.866zM548.89 247.63c-3.58 4.256-10.722 6.291-15.796 5.25l15.796-5.25z" fill="#26231f"/><path d="M533.074 252.877c.345-1.44 3.772-1.825 7.85-2.988 4.002-1.368 6.874-3.183 7.946-2.258.957.673-1.627 5.259-6.759 6.972-5.13 1.489-9.381-.538-9.037-1.726z" fill="#26231f"/><path d="M545.072 243.622c-1.857 4.898-7.62 8.105-12.215 7.45l12.215-7.45z" fill="#26231f"/><path d="M532.864 251.069c.306-1.484 3.044-2.156 6.108-3.805 2.929-1.877 4.767-4.088 6.107-3.646 1.11.193.287 5.244-4.059 7.976-4.423 2.415-8.52.65-8.156-.525z" fill="#26231f"/><path d="M539.257 258.89c-2.297 3.41-6.873 3.879-10.204 1.054s-4.213-7.873-1.915-11.283 6.854-3.867 10.205-1.047 4.212 7.876 1.914 11.275z" fill="#26231f"/><path d="M421.124 211.04c-9.133 9.128-4.844 31.192 9.554 49.267s33.487 25.346 42.62 16.219 2.66-31.16-11.756-49.246-31.285-25.37-40.418-16.238z" fill="#f4b891"/><path d="M421.34 211.21c-9.074 9.06-4.824 30.949 9.459 48.88 14.302 17.932 33.219 25.136 42.275 16.075s2.66-30.923-11.622-48.864c-14.283-17.932-31.055-25.158-40.112-16.091z" fill="#f4b791"/><path d="M421.558 211.375c-9 8.995-4.806 30.708 9.362 48.49s32.95 24.924 41.95 15.93 2.642-30.681-11.527-48.472-30.806-24.945-39.785-15.947z" fill="#f4b791"/><path d="M421.775 211.54c-8.923 8.926-4.768 30.465 9.285 48.1s32.683 24.711 41.605 15.785 2.661-30.44-11.392-48.083-30.557-24.733-39.498-15.803z" fill="#f4b690"/><path d="M421.991 211.704c-8.864 8.86-4.748 30.226 9.19 47.714s32.415 24.499 41.28 15.64 2.642-30.2-11.296-47.697-30.309-24.521-39.174-15.656z" fill="#f4b590"/><path d="M422.252 211.874c-8.808 8.792-4.73 29.984 9.094 47.327s32.147 24.287 40.935 15.494 2.642-29.96-11.162-47.31c-13.824-17.344-30.079-24.308-38.867-15.512z" fill="#f4b490"/><path d="M422.469 212.043c-8.73 8.723-4.71 29.744 8.998 46.937s31.86 24.074 40.61 15.352c8.73-8.725 2.642-29.72-11.067-46.924-13.69-17.198-29.83-24.097-38.541-15.365z" fill="#f3b490"/><path d="M422.686 212.208c-8.655 8.658-4.672 29.503 8.922 46.55s31.61 23.864 40.265 15.206c8.673-8.657 2.642-29.479-10.933-46.533s-29.58-23.885-38.254-15.223z" fill="#f3b38f"/><path d="M422.903 212.372c-8.597 8.59-4.653 29.262 8.826 46.161 13.46 16.904 31.323 23.652 39.92 15.06 8.616-8.591 2.642-29.239-10.818-46.148s-29.331-23.673-37.928-15.076z" fill="#f3b28e"/><path d="M423.12 212.537c-8.54 8.525-4.634 29.021 8.73 45.775s31.055 23.437 39.595 14.914 2.623-28.996-10.703-45.757c-13.345-16.756-29.102-23.46-37.622-14.931z" fill="#f2b18f"/><path d="M423.336 212.706c-8.462 8.458-4.595 28.78 8.636 45.389s30.806 23.225 39.269 14.769c8.481-8.455 2.641-28.757-10.589-45.371s-28.853-23.247-37.316-14.785z" fill="#f2b18d"/><path d="M423.597 212.871c-8.386 8.39-4.576 28.54 8.539 44.998s30.538 23.015 38.944 14.627 2.623-28.518-10.473-44.985c-13.116-16.46-28.624-23.034-37.01-14.64z" fill="#f3b08e"/><path d="M423.814 213.04c-8.329 8.324-4.557 28.3 8.443 44.612s30.27 22.803 38.599 14.481 2.642-28.276-10.359-44.594c-12.981-16.314-28.355-22.823-36.684-14.496z" fill="#f3af8e"/><path d="M424.03 213.205c-8.27 8.257-4.537 28.059 8.348 44.222s30.003 22.59 38.274 14.336 2.623-28.037-10.243-44.209-28.126-22.61-36.378-14.35z" fill="#f3ae8e"/><path d="M424.247 213.37c-8.194 8.19-4.499 27.816 8.272 43.835s29.734 22.378 37.928 14.19 2.623-27.793-10.128-43.818-27.877-22.398-36.072-14.204z" fill="#f3ae8d"/><path d="M424.464 213.535c-8.137 8.122-4.48 27.578 8.176 43.445 12.636 15.875 29.466 22.167 37.603 14.046s2.623-27.553-10.033-43.432c-12.636-15.871-27.628-22.184-35.746-14.06z" fill="#f2ac8d"/><path d="M424.725 213.704c-8.061 8.055-4.462 27.335 8.08 43.058 12.521 15.73 29.197 21.954 37.258 13.902s2.623-27.312-9.899-43.046c-12.521-15.725-27.379-21.973-35.44-13.913z" fill="#f2ac8c"/><path d="M424.898 213.874c-7.984 7.986-4.422 27.092 8.003 42.669s28.93 21.74 36.933 13.756 2.604-27.072-9.803-42.656-27.13-21.762-35.133-13.77z" fill="#f1ab8c"/><path d="M425.159 214.038c-7.927 7.921-4.404 26.855 7.907 42.283 12.273 15.434 28.662 21.53 36.588 13.61s2.623-26.831-9.669-42.268-26.9-21.55-34.827-13.625z" fill="#f1ab8c"/><path d="M425.375 214.203c-7.869 7.854-4.365 26.612 7.793 41.895 12.177 15.285 28.413 21.316 36.282 13.465s2.604-26.593-9.573-41.882c-12.158-15.283-26.652-21.336-34.502-13.478z" fill="#f2a98a"/><path d="M425.592 214.368c-7.792 7.787-4.327 26.373 7.716 41.506s28.145 21.106 35.938 13.321 2.604-26.35-9.44-41.494-26.402-21.122-34.214-13.333z" fill="#f2a88b"/><path d="M425.81 214.537c-7.736 7.718-4.309 26.13 7.62 41.118 11.946 14.994 27.876 20.894 35.611 13.177s2.604-26.112-9.343-41.106-26.154-20.913-33.89-13.189z" fill="#f2a88a"/><path d="M426.026 214.706c-7.658 7.653-4.289 25.892 7.525 40.732s27.608 20.682 35.267 13.031 2.604-25.87-9.21-40.718-25.923-20.7-33.582-13.045z" fill="#f2a78a"/><path d="M426.286 214.871c-7.6 7.584-4.27 25.648 7.43 40.343s27.34 20.47 34.922 12.885 2.604-25.627-9.095-40.33-25.675-20.486-33.257-12.898z" fill="#f1a689"/><path d="M426.503 215.036c-7.524 7.52-4.23 25.409 7.353 39.956s27.073 20.257 34.597 12.738 2.604-25.385-8.98-39.941c-11.583-14.546-25.445-20.274-32.97-12.753z" fill="#f0a589"/><path d="M426.72 215.201c-7.467 7.45-4.212 25.166 7.257 39.566s26.805 20.046 34.252 12.596 2.604-25.147-8.864-39.556-25.178-20.06-32.645-12.606z" fill="#f0a48a"/><path d="M426.937 215.37c-7.41 7.386-4.193 24.928 7.16 39.18 11.354 14.256 26.537 19.832 33.928 12.45s2.585-24.906-8.75-39.166c-11.353-14.252-24.947-19.849-32.338-12.464z" fill="#f0a488"/><path d="M427.154 215.54c-7.333 7.317-4.174 24.685 7.065 38.79s26.25 19.62 33.583 12.305 2.604-24.664-8.635-38.778-24.699-19.637-32.013-12.317z" fill="#f0a388"/><path d="M427.371 215.704c-7.256 7.25-4.136 24.445 6.988 38.403s26 19.41 33.257 12.158 2.585-24.424-8.52-38.39-24.469-19.426-31.725-12.17z" fill="#f0a288"/><path d="M427.631 215.87c-7.199 7.183-4.116 24.201 6.893 38.013 10.99 13.816 25.714 19.198 32.913 12.015s2.584-24.184-8.406-38.003c-10.99-13.808-24.22-19.212-31.4-12.026z" fill="#f0a187"/><path d="M427.848 216.038c-7.141 7.115-4.097 23.962 6.778 37.626s25.465 18.985 32.606 11.87c7.123-7.113 2.585-23.942-8.29-37.616s-23.97-18.999-31.093-11.88z" fill="#f0a187"/><path d="M428.065 216.203c-7.065 7.048-4.059 23.721 6.701 37.24s25.197 18.772 32.262 11.724 2.584-23.703-8.176-37.227-23.722-18.79-30.787-11.737z" fill="#f09f87"/><path d="M428.282 216.372c-6.988 6.981-4.04 23.481 6.606 36.851s24.928 18.56 31.936 11.58c6.988-6.98 2.565-23.461-8.061-36.84s-23.493-18.575-30.48-11.59z" fill="#ef9e86"/><path d="M428.5 216.537c-6.932 6.914-4.022 23.24 6.509 36.465s24.66 18.345 31.591 11.433 2.585-23.22-7.946-36.452c-10.511-13.222-23.243-18.362-30.155-11.446z" fill="#ef9c86"/><path d="M428.716 216.702c-6.854 6.847-3.982 22.998 6.433 36.074 10.416 13.08 24.392 18.138 31.266 11.29s2.566-22.981-7.85-36.064c-10.396-13.074-22.975-18.15-29.849-11.3z" fill="#ef9c86"/><path d="M428.976 216.867c-6.797 6.782-3.963 22.76 6.338 35.688s24.124 17.925 30.92 11.146 2.567-22.74-7.715-35.676-22.746-17.94-29.543-11.158z" fill="#ef9b85"/><path d="M429.193 217.036c-6.74 6.713-3.944 22.517 6.242 35.3 10.166 12.786 23.856 17.71 30.576 11s2.585-22.5-7.6-35.292c-10.167-12.778-22.497-17.723-29.218-11.008z" fill="#ef9b84"/><path d="M429.41 217.201c-6.663 6.648-3.925 22.276 6.146 34.912s23.588 17.499 30.251 10.855 2.566-22.258-7.486-34.901-22.267-17.514-28.91-10.866z" fill="#ef9b84"/><path d="M429.627 217.375c-6.586 6.578-3.887 22.035 6.07 34.524s23.32 17.286 29.906 10.708 2.565-22.017-7.372-34.513-22.018-17.302-28.604-10.72z" fill="#ef9983"/><path d="M429.844 217.54c-6.529 6.511-3.868 21.792 5.954 34.133 9.823 12.345 23.072 17.076 29.6 10.565s2.566-21.775-7.256-34.125c-9.822-12.337-21.77-17.089-28.298-10.573z" fill="#ef9883"/><path d="M430.104 217.704c-6.471 6.445-3.848 21.555 5.859 33.747s22.803 16.864 29.255 10.422 2.566-21.537-7.141-33.738c-9.688-12.192-21.52-16.877-27.973-10.43z" fill="#ee9783"/><path d="M430.278 217.87c-6.395 6.377-3.791 21.311 5.782 33.358s22.535 16.651 28.93 10.276 2.546-21.298-7.027-33.35-21.29-16.666-27.685-10.284z" fill="#ee9783"/><path d="M430.538 218.038c-6.318 6.311-3.772 21.074 5.686 32.973s22.268 16.439 28.586 10.129 2.565-21.057-6.912-32.963-21.042-16.451-27.36-10.139z" fill="#ee9682"/><path d="M430.755 218.203c-6.26 6.244-3.753 20.829 5.59 32.582s22 16.227 28.26 9.986 2.547-20.815-6.797-32.575-20.792-16.238-27.053-9.993z" fill="#ed9482"/><path d="M430.972 218.372c-6.204 6.179-3.734 20.59 5.495 32.196 9.229 11.609 21.731 16.014 27.915 9.84s2.546-20.574-6.682-32.187c-9.229-11.602-20.544-16.027-26.728-9.849z" fill="#ed9482"/><path d="M431.189 218.537c-6.127 6.11-3.695 20.348 5.418 31.807s21.463 15.805 27.59 9.697 2.546-20.337-6.567-31.8-20.314-15.815-26.441-9.703z" fill="#ee9482"/><path d="M431.45 218.706c-6.07 6.043-3.677 20.11 5.322 31.42s21.195 15.59 27.245 9.551c6.07-6.039 2.547-20.093-6.452-31.411s-20.065-15.602-26.115-9.56z" fill="#ee9282"/><path d="M431.666 218.871c-5.993 5.976-3.657 19.867 5.227 31.032 8.865 11.166 20.927 15.378 26.92 9.405s2.527-19.851-6.338-31.024c-8.883-11.16-19.835-15.39-25.809-9.412z" fill="#ed9182"/><path d="M431.883 219.036c-5.916 5.909-3.619 19.628 5.15 30.644s20.64 15.167 26.575 9.26 2.547-19.61-6.222-30.636-19.568-15.178-25.503-9.268z" fill="#ed9181"/><path d="M432.1 219.205c-5.859 5.842-3.6 19.384 5.055 30.256s20.371 14.955 26.25 9.115 2.526-19.371-6.108-30.247c-8.655-10.866-19.338-14.967-25.197-9.124z" fill="#ed9081"/><path d="M432.317 219.375c-5.801 5.772-3.58 19.143 4.94 29.866 8.539 10.726 20.122 14.743 25.924 8.971s2.527-19.13-5.993-29.863-19.089-14.751-24.87-8.974z" fill="#ed8e81"/><path d="M432.534 219.535c-5.725 5.707-3.542 18.905 4.863 29.48s19.855 14.531 25.58 8.826 2.546-18.89-5.878-29.473c-8.386-10.57-18.84-14.542-24.565-8.833z" fill="#ed8d80"/><path d="M432.75 219.704c-5.647 5.64-3.522 18.662 4.768 29.09 8.29 10.434 19.587 14.32 25.254 8.682 5.648-5.636 2.527-18.65-5.763-29.086-8.29-10.424-18.591-14.328-24.258-8.685z" fill="#ed8d80"/><path d="M433.011 219.87c-5.59 5.572-3.504 18.42 4.672 28.702s19.318 14.106 24.909 8.536 2.527-18.408-5.648-28.698-18.342-14.114-23.933-8.54z" fill="#ed8c7f"/><path d="M433.228 220.038c-5.533 5.507-3.485 18.181 4.576 28.315s19.05 13.894 24.584 8.39c5.514-5.5 2.527-18.168-5.533-28.308-8.042-10.129-18.113-13.905-23.627-8.397z" fill="#ed8a7f"/><path d="M433.445 220.203c-5.457 5.44-3.446 17.94 4.5 27.929s18.782 13.683 24.238 8.246 2.528-17.93-5.418-27.923-17.863-13.691-23.32-8.252z" fill="#ed8a7e"/><path d="M433.662 220.368c-5.4 5.37-3.427 17.698 4.403 27.54s18.515 13.469 23.914 8.1 2.508-17.688-5.303-27.534-17.634-13.48-23.014-8.105z" fill="#eb897d"/><path d="M433.879 220.533c-5.323 5.305-3.408 17.46 4.308 27.151 7.696 9.697 18.246 13.259 23.569 7.957s2.527-17.447-5.189-27.148c-7.697-9.686-17.366-13.265-22.688-7.96z" fill="#eb877c"/><path d="M434.096 220.702c-5.246 5.236-3.37 17.217 4.231 26.763s17.978 13.046 23.243 7.81 2.509-17.204-5.073-26.759-17.136-13.052-22.401-7.814z" fill="#eb877c"/><path d="M434.356 220.871c-5.189 5.171-3.35 16.977 4.135 26.377 7.468 9.4 17.71 12.834 22.9 7.665s2.508-16.965-4.96-26.37-16.886-12.843-22.075-7.672z" fill="#eb867b"/><path d="M434.573 221.036c-5.131 5.104-3.332 16.736 4.02 25.989s17.462 12.62 22.593 7.521 2.508-16.725-4.844-25.984-16.657-12.63-21.769-7.526z" fill="#ea847b"/><path d="M434.79 221.201c-5.055 5.035-3.293 16.493 3.944 25.6s17.193 12.409 22.248 7.375 2.508-16.484-4.73-25.596c-7.218-9.099-16.389-12.418-21.463-7.379z" fill="#ea837b"/><path d="M435.007 221.366c-4.997 4.97-3.274 16.255 3.848 25.213s16.925 12.197 21.922 7.23 2.49-16.243-4.614-25.209c-7.122-8.949-16.16-12.204-21.157-7.234z" fill="#ea837b"/><path d="M435.224 221.535c-4.921 4.901-3.236 16.013 3.752 24.823 7.008 8.813 16.658 11.985 21.578 7.086s2.508-16.003-4.5-24.819c-6.987-8.805-15.91-11.994-20.83-7.09z" fill="#ea8179"/><path d="M435.484 221.704c-4.863 4.836-3.217 15.772 3.657 24.437s16.389 11.772 21.252 6.94 2.489-15.761-4.384-24.433c-6.874-8.655-15.681-11.78-20.525-6.944z" fill="#ea8078"/><path d="M435.657 221.87c-4.786 4.766-3.178 15.528 3.58 24.047s16.122 11.56 20.908 6.796 2.49-15.523-4.27-24.046-15.43-11.567-20.217-6.798z" fill="#ea8078"/><path d="M435.918 222.034c-4.73 4.7-3.16 15.289 3.484 23.657s15.853 11.35 20.564 6.653 2.508-15.28-4.136-23.658-15.183-11.356-19.912-6.652z" fill="#ea7e77"/><path d="M436.135 222.199c-4.672 4.633-3.14 15.048 3.389 23.27s15.584 11.138 20.237 6.508 2.49-15.041-4.04-23.27c-6.528-8.215-14.934-11.143-19.586-6.508z" fill="#ea7d78"/><path d="M436.352 222.368c-4.577 4.568-3.102 14.81 3.312 22.885 6.395 8.077 15.298 10.925 19.893 6.361s2.489-14.8-3.906-22.88c-6.414-8.07-14.704-10.932-19.3-6.366z" fill="#e97c77"/><path d="M436.568 222.537c-4.518 4.501-3.082 14.568 3.217 22.497s15.03 10.712 19.568 6.215c4.518-4.496 2.489-14.559-3.81-22.493s-14.456-10.72-18.975-6.219z" fill="#e97c77"/><path d="M436.785 222.698c-4.46 4.434-3.063 14.327 3.102 22.11 6.185 7.783 14.781 10.498 19.242 6.071s2.49-14.32-3.676-22.107c-6.184-7.773-14.206-10.508-18.668-6.074z" fill="#e97a76"/><path d="M437.046 222.867c-4.404 4.365-3.045 14.086 3.006 21.72 6.07 7.637 14.512 10.287 18.916 5.927 4.384-4.362 2.47-14.08-3.58-21.72s-13.958-10.294-18.342-5.927z" fill="#e97a76"/><path d="M437.263 223.032c-4.327 4.3-3.006 13.845 2.93 21.333s14.244 10.078 18.57 5.782 2.49-13.838-3.465-21.332c-5.916-7.478-13.708-10.081-18.035-5.783z" fill="#e87975"/><path d="M437.48 223.201c-4.25 4.23-2.987 13.603 2.833 20.945s13.977 9.863 18.247 5.636 2.47-13.597-3.35-20.944-13.48-9.87-17.73-5.636z" fill="#e87975"/><path d="M437.696 223.37c-4.193 4.164-2.967 13.363 2.738 20.556s13.709 9.652 17.902 5.491 2.47-13.355-3.236-20.554c-5.686-7.184-13.23-9.658-17.404-5.492z" fill="#e87875"/><path d="M437.913 223.535c-4.116 4.097-2.929 13.122 2.662 20.168s13.44 9.44 17.576 5.346 2.47-13.115-3.12-20.167c-5.592-7.037-12.982-9.444-17.118-5.347z" fill="#e87775"/><path d="M438.13 223.7c-4.059 4.03-2.91 12.88 2.566 19.779s13.173 9.228 17.232 5.203 2.47-12.877-3.006-19.782-12.733-9.232-16.792-5.2z" fill="#e87673"/><path d="M438.39 223.87c-4 3.962-2.89 12.636 2.47 19.39 5.342 6.753 12.905 9.016 16.887 5.057s2.47-12.634-2.872-19.392c-5.341-6.744-12.502-9.02-16.485-5.056z" fill="#e87673"/><path d="M438.608 224.034c-3.906 3.896-2.853 12.398 2.393 19.004 5.227 6.606 12.636 8.804 16.561 4.911s2.47-12.394-2.776-19.006c-5.227-6.593-12.253-8.804-16.179-4.909z" fill="#e87573"/><path d="M438.824 224.203c-3.848 3.829-2.833 12.156 2.279 18.616s12.387 8.592 16.236 4.766 2.47-12.154-2.642-18.617-12.005-8.596-15.873-4.765z" fill="#e87473"/><path d="M439.041 224.368c-3.79 3.762-2.814 11.918 2.183 18.23s12.12 8.377 15.91 4.62 2.451-11.913-2.546-18.23c-4.997-6.3-11.756-8.383-15.546-4.62z" fill="#e87472"/><path d="M439.258 224.533c-3.733 3.694-2.795 11.677 2.087 17.84s11.852 8.168 15.566 4.479 2.47-11.673-2.412-17.843-11.527-8.17-15.24-4.476z" fill="#e87472"/><path d="M439.475 224.698c-3.657 3.627-2.757 11.436 2.01 17.452s11.584 7.957 15.241 4.333 2.45-11.432-2.317-17.454c-4.748-6.006-11.277-7.959-14.934-4.331z" fill="#e87272"/><path d="M439.736 224.867c-3.58 3.56-2.72 11.194 1.914 17.066s11.316 7.742 14.896 4.186 2.45-11.19-2.183-17.065-11.047-7.748-14.627-4.187z" fill="#e87171"/><path d="M439.952 225.032c-3.522 3.493-2.718 10.953 1.82 16.678 4.518 5.721 11.047 7.53 14.57 4.04s2.45-10.95-2.087-16.678c-4.519-5.711-10.78-7.534-14.303-4.04z" fill="#e86f70"/><path d="M440.17 225.201c-3.466 3.427-2.7 10.71 1.723 16.289s10.779 7.318 14.225 3.895c3.466-3.423 2.45-10.709-1.972-16.29-4.384-5.565-10.53-7.32-13.977-3.894z" fill="#e86f70"/><path d="M440.386 225.37c-3.389 3.36-2.642 10.472 1.647 15.9s10.511 7.108 13.9 3.752 2.432-10.468-1.857-15.903-10.3-7.108-13.69-3.749z" fill="#e86e70"/><path d="M440.603 225.535c-3.331 3.292-2.623 10.23 1.551 15.512s10.243 6.893 13.555 3.608c3.332-3.288 2.451-10.23-1.742-15.518-4.155-5.267-10.052-6.895-13.364-3.602z" fill="#e76d6f"/><path d="M440.864 225.7c-3.255 3.223-2.604 9.99 1.455 15.124 4.04 5.134 9.956 6.683 13.23 3.461s2.431-9.987-1.628-15.127-9.803-6.683-13.058-3.458z" fill="#e76c6f"/><path d="M441.056 225.867c-3.179 3.159-2.566 9.747 1.378 14.735 3.925 4.989 9.707 6.473 12.886 3.318 3.197-3.153 2.431-9.746-1.513-14.74-3.925-4.974-9.554-6.471-12.751-3.313z" fill="#e76c6f"/><path d="M441.297 226.038c-3.12 3.09-2.546 9.506 1.264 14.347s9.44 6.258 12.56 3.172 2.45-9.505-1.378-14.352c-3.81-4.827-9.324-6.26-12.446-3.166z" fill="#e76a6f"/><path d="M441.514 226.203c-3.063 3.025-2.527 9.268 1.168 13.96 3.715 4.693 9.171 6.047 12.235 3.027 3.044-3.018 2.431-9.264-1.283-13.962-3.696-4.683-9.076-6.048-12.12-3.024z" fill="#e7696d"/><path d="M441.731 226.372c-2.987 2.956-2.489 9.025 1.092 13.572s8.902 5.834 11.89 2.883 2.43-9.028-1.15-13.579c-3.58-4.532-8.845-5.833-11.832-2.876z" fill="#e6676d"/><path d="M441.948 226.533c-2.91 2.89-2.47 8.786.996 13.185s8.635 5.621 11.564 2.737c2.91-2.887 2.432-8.784-1.053-13.189-3.465-4.388-8.577-5.623-11.507-2.733z" fill="#e7666d"/><path d="M442.208 226.698c-2.852 2.825-2.45 8.545.9 12.797s8.367 5.411 11.22 2.593 2.431-8.543-.92-12.802-8.347-5.41-11.2-2.588z" fill="#e7666d"/><path d="M442.425 226.867c-2.795 2.756-2.431 8.304.804 12.408s8.1 5.199 10.895 2.447 2.412-8.302-.824-12.413c-3.216-4.09-8.099-5.196-10.875-2.442z" fill="#e6656c"/><path d="M597.653 293.783c-.172 13.717-17.863 24.535-39.499 24.18-21.616-.347-39.02-11.737-38.847-25.444s19.28-22.661 40.915-22.311 37.604 9.87 37.43 23.575z" fill="#f4b891"/><path d="M597.393 293.696c-.191 13.617-17.73 24.357-39.173 24.005-21.463-.343-38.714-11.647-38.542-25.256s19.127-22.502 40.571-22.154c21.463.347 37.316 9.8 37.144 23.405z" fill="#f4b791"/><path d="M597.133 293.652c-.173 13.516-17.558 24.18-38.848 23.83-21.272-.339-38.388-11.562-38.216-25.07s18.955-22.34 40.226-21.995c21.29.343 37.01 9.735 36.837 23.235z" fill="#f4b791"/><path d="M596.872 293.566c-.19 13.415-17.442 23.997-38.541 23.652s-38.063-11.475-37.91-24.881 18.821-22.18 39.92-21.842 36.685 9.669 36.531 23.071z" fill="#f4b690"/><path d="M596.612 293.479c-.173 13.317-17.27 23.819-38.197 23.478s-37.756-11.388-37.603-24.694 18.649-22.022 39.575-21.685 36.397 9.6 36.225 22.9z" fill="#f4b590"/><path d="M596.352 293.392c-.172 13.214-17.117 23.64-37.871 23.3s-37.431-11.3-37.278-24.505 18.476-21.863 39.23-21.529 36.091 9.534 35.919 22.734z" fill="#f4b490"/><path d="M596.091 293.305c-.172 13.113-16.983 23.461-37.565 23.124s-37.105-11.212-36.952-24.319 18.323-21.702 38.886-21.37 35.803 9.465 35.631 22.565z" fill="#f3b490"/><path d="M595.831 293.219c-.153 13.011-16.83 23.278-37.24 22.946-20.39-.322-36.799-11.125-36.626-24.13s18.15-21.542 38.56-21.214 35.478 9.396 35.306 22.398z" fill="#f3b38f"/><path d="M595.57 293.132c-.171 12.913-16.695 23.1-36.913 22.772-20.219-.321-36.493-11.038-36.34-23.943s18.017-21.383 38.236-21.06c20.218.327 35.171 9.33 35.018 22.23z" fill="#f3b28e"/><path d="M595.31 293.088c-.153 12.81-16.542 22.921-36.588 22.593-20.046-.316-36.167-10.95-36.014-23.753s17.845-21.224 37.89-20.903 34.885 9.263 34.713 22.063z" fill="#f2b18f"/><path d="M595.05 293.002c-.172 12.71-16.408 22.742-36.282 22.418s-35.841-10.865-35.688-23.566 17.69-21.063 37.545-20.748 34.579 9.197 34.426 21.896z" fill="#f2b18d"/><path d="M594.79 292.915c-.153 12.609-16.255 22.562-35.938 22.243s-35.535-10.78-35.382-23.382 17.519-20.902 37.201-20.589 34.272 9.128 34.119 21.728z" fill="#f3b08e"/><path d="M594.53 292.828c-.173 12.51-16.122 22.382-35.632 22.067s-35.21-10.69-35.057-23.193 17.347-20.744 36.876-20.433 33.965 9.061 33.813 21.56z" fill="#f3af8e"/><path d="M594.27 292.741c-.154 12.412-15.969 22.205-35.307 21.891s-34.884-10.603-34.75-23.006c.172-12.399 17.212-20.583 36.55-20.274s33.659 8.993 33.506 21.39z" fill="#f3ae8e"/><path d="M594.009 292.655c-.172 12.308-15.834 22.023-35 21.712-19.146-.3-34.558-10.515-34.424-22.817.172-12.3 17.04-20.424 36.205-20.117s33.372 8.924 33.219 21.222z" fill="#f3ae8d"/><path d="M593.749 292.568c-.153 12.21-15.68 21.844-34.655 21.539-18.993-.298-34.272-10.43-34.118-22.63s16.886-20.264 35.86-19.964c18.993.305 33.066 8.86 32.913 21.055z" fill="#f2ac8d"/><path d="M593.488 292.524c-.153 12.107-15.527 21.664-34.329 21.362s-33.946-10.342-33.793-22.442 16.715-20.105 35.516-19.807c18.821.3 32.76 8.791 32.606 20.887z" fill="#f2ac8c"/><path d="M593.228 292.438c-.153 12.008-15.374 21.485-34.022 21.185-18.63-.292-33.621-10.254-33.468-22.256s16.561-19.943 35.19-19.65 32.454 8.725 32.3 20.72z" fill="#f1ab8c"/><path d="M592.968 292.35c-.153 11.908-15.222 21.308-33.679 21.01s-33.314-10.165-33.161-22.066 16.389-19.783 34.846-19.494 32.146 8.656 31.993 20.55z" fill="#f1ab8c"/><path d="M592.708 292.264c-.154 11.807-15.088 21.125-33.372 20.834s-32.99-10.08-32.855-21.88c.153-11.796 16.236-19.625 34.52-19.337s31.86 8.59 31.706 20.383z" fill="#f2a98a"/><path d="M592.447 292.177c-.134 11.706-14.934 20.948-33.046 20.658s-32.664-9.994-32.53-21.692c.154-11.697 16.083-19.465 34.177-19.18s31.552 8.521 31.4 20.214z" fill="#f2a88b"/><path d="M592.187 292.09c-.153 11.603-14.8 20.768-32.74 20.48-17.921-.279-32.338-9.906-32.204-21.502.153-11.597 15.91-19.307 33.831-19.026 17.94.287 31.247 8.455 31.112 20.049z" fill="#f2a88a"/><path d="M591.927 292.004c-.134 11.504-14.647 20.589-32.396 20.303-17.767-.276-32.031-9.818-31.897-21.316.153-11.496 15.757-19.146 33.506-18.867 17.748.283 30.94 8.388 30.787 19.88z" fill="#f2a78a"/><path d="M591.666 291.96c-.153 11.406-14.513 20.412-32.089 20.128-17.576-.272-31.706-9.73-31.572-21.127s15.585-18.985 33.161-18.71 30.635 8.318 30.5 19.709z" fill="#f1a689"/><path d="M591.406 291.874c-.134 11.302-14.36 20.229-31.763 19.952s-31.38-9.645-31.266-20.941c.153-11.294 15.432-18.826 32.835-18.554s30.328 8.25 30.194 19.543z" fill="#f0a589"/><path d="M591.146 291.787c-.153 11.202-14.226 20.048-31.457 19.774s-31.074-9.556-30.94-20.752c.153-11.195 15.278-18.668 32.49-18.397s30.041 8.184 29.907 19.375z" fill="#f0a48a"/><path d="M590.885 291.7c-.134 11.101-14.072 19.87-31.112 19.598s-30.768-9.469-30.634-20.565 15.106-18.505 32.165-18.239 29.715 8.115 29.581 19.206z" fill="#f0a488"/><path d="M590.668 291.613c-.152 11-13.938 19.689-30.806 19.42s-30.442-9.38-30.308-20.376 14.953-18.346 31.821-18.084 29.428 8.049 29.294 19.04z" fill="#f0a388"/><path d="M590.365 291.527c-.135 10.899-13.785 19.512-30.481 19.246s-30.117-9.295-29.983-20.19 14.78-18.188 31.476-17.928 29.122 7.983 28.988 18.871z" fill="#f0a288"/><path d="M590.104 291.44c-.134 10.8-13.632 19.332-30.136 19.07-16.523-.252-29.81-9.209-29.677-20.001s14.628-18.029 31.132-17.773c16.524.261 28.815 7.916 28.681 18.704z" fill="#f0a187"/><path d="M589.844 291.396c-.134 10.7-13.498 19.153-29.83 18.893-16.35-.248-29.485-9.121-29.37-19.812s14.475-17.87 30.806-17.617c16.351.257 28.528 7.847 28.394 18.537z" fill="#f0a187"/><path d="M589.584 291.31c-.115 10.599-13.326 18.972-29.505 18.719-16.159-.251-29.16-9.036-29.044-19.629s14.302-17.709 30.48-17.457c16.16.253 28.202 7.778 28.069 18.367z" fill="#f09f87"/><path d="M589.324 291.223c-.135 10.498-13.192 18.794-29.18 18.54s-28.853-8.947-28.738-19.439 14.15-17.548 30.136-17.301 27.897 7.712 27.782 18.2z" fill="#ef9e86"/><path d="M589.063 291.136c-.115 10.397-13.038 18.614-28.853 18.365s-28.528-8.86-28.413-19.25 13.976-17.39 29.791-17.147 27.609 7.646 27.475 18.032z" fill="#ef9c86"/><path d="M588.846 291.05c-.134 10.298-12.904 18.435-28.547 18.188-15.642-.238-28.221-8.771-28.087-19.062s13.823-17.23 29.446-16.99c15.643.244 27.303 7.577 27.188 17.863z" fill="#ef9c86"/><path d="M588.543 290.963c-.115 10.196-12.752 18.256-28.222 18.013-15.45-.236-27.896-8.686-27.781-18.878s13.67-17.07 29.121-16.831c15.47.242 27.016 7.51 26.882 17.696z" fill="#ef9b85"/><path d="M588.326 290.876c-.135 10.097-12.618 18.075-27.896 17.838-15.298-.234-27.59-8.599-27.475-18.69s13.498-16.91 28.796-16.674c15.278.238 26.69 7.442 26.575 17.526z" fill="#ef9b84"/><path d="M588.065 290.832c-.115 9.995-12.464 17.896-27.57 17.66s-27.264-8.513-27.15-18.503 13.346-16.748 28.452-16.518 26.403 7.376 26.268 17.361z" fill="#ef9b84"/><path d="M587.805 290.746c-.134 9.896-12.33 17.717-27.264 17.483s-26.939-8.422-26.824-18.313 13.173-16.59 28.107-16.362 26.096 7.31 25.981 17.192z" fill="#ef9983"/><path d="M587.545 290.659c-.115 9.795-12.177 17.54-26.939 17.31s-26.614-8.339-26.499-18.127 13.02-16.43 27.762-16.208 25.79 7.243 25.675 17.025z" fill="#ef9883"/><path d="M587.241 290.572c-.115 9.694-12.023 17.36-26.594 17.132s-26.307-8.25-26.211-17.938c.134-9.686 12.866-16.27 27.455-16.052s25.484 7.174 25.35 16.858z" fill="#ee9783"/><path d="M587.024 290.485c-.115 9.591-11.89 17.177-26.287 16.954s-25.982-8.162-25.886-17.75c.115-9.586 12.694-16.11 27.111-15.894s25.178 7.105 25.063 16.69z" fill="#ee9783"/><path d="M586.72 290.399c-.095 9.492-11.736 16.999-25.962 16.778s-25.656-8.075-25.56-17.563c.115-9.484 12.54-15.95 26.766-15.736s24.871 7.039 24.756 16.52z" fill="#ee9682"/><path d="M586.504 290.312c-.115 9.394-11.603 16.82-25.637 16.602-14.053-.208-25.369-7.987-25.254-17.374s12.369-15.792 26.422-15.58 24.584 6.97 24.469 16.352z" fill="#ed9482"/><path d="M586.243 290.268c-.096 9.292-11.45 16.641-25.311 16.427s-25.044-7.903-24.929-17.188 12.216-15.63 26.078-15.425 24.277 6.904 24.162 16.186z" fill="#ed9482"/><path d="M585.983 290.182c-.115 9.19-11.296 16.46-25.005 16.25s-24.717-7.813-24.603-16.999c.096-9.183 12.043-15.472 25.752-15.268s23.971 6.835 23.856 16.017z" fill="#ee9482"/><path d="M585.723 290.095c-.096 9.09-11.143 16.28-24.68 16.072s-24.392-7.725-24.297-16.812c.115-9.08 11.91-15.31 25.427-15.11s23.664 6.77 23.55 15.85z" fill="#ee9282"/><path d="M585.462 290.008c-.115 8.99-11.009 16.103-24.354 15.897s-24.086-7.637-23.99-16.624c.115-8.982 11.737-15.15 25.082-14.952s23.358 6.7 23.262 15.68z" fill="#ed9182"/><path d="M585.202 289.921c-.096 8.89-10.856 15.923-24.029 15.723-13.172-.195-23.76-7.553-23.664-16.437s11.564-14.992 24.736-14.796c13.173.2 23.072 6.631 22.957 15.51z" fill="#ed9181"/><path d="M584.942 289.835c-.115 8.789-10.722 15.742-23.723 15.544-12.981-.19-23.435-7.465-23.339-16.248s11.411-14.833 24.392-14.642c13 .198 22.765 6.567 22.67 15.346z" fill="#ed9081"/><path d="M584.681 289.748c-.095 8.688-10.568 15.564-23.377 15.369-12.828-.189-23.129-7.378-23.033-16.06s11.239-14.674 24.067-14.485c12.809.195 22.44 6.499 22.343 15.176z" fill="#ed8e81"/><path d="M584.421 289.704c-.096 8.588-10.435 15.384-23.071 15.193s-22.803-7.291-22.727-15.875c.115-8.58 11.105-14.513 23.742-14.328s22.152 6.434 22.056 15.01z" fill="#ed8d80"/><path d="M584.16 289.618c-.095 8.486-10.28 15.204-22.745 15.017s-22.497-7.204-22.4-15.686c.095-8.48 10.932-14.353 23.396-14.173s21.846 6.364 21.75 14.842z" fill="#ed8d80"/><path d="M583.9 289.53c-.095 8.389-10.128 15.026-22.42 14.842s-22.171-7.116-22.075-15.498 10.779-14.193 23.052-14.015 21.559 6.297 21.444 14.672z" fill="#ed8c7f"/><path d="M583.64 289.444c-.096 8.287-9.994 14.846-22.094 14.663s-21.865-7.028-21.77-15.308 10.607-14.035 22.708-13.86 21.252 6.229 21.157 14.505z" fill="#ed8a7f"/><path d="M583.38 289.357c-.077 8.187-9.841 14.668-21.77 14.49s-21.539-6.944-21.443-15.124c.096-8.178 10.435-13.872 22.382-13.7s20.926 6.161 20.831 14.335z" fill="#ed8a7e"/><path d="M583.12 289.27c-.096 8.084-9.708 14.488-21.463 14.312s-21.214-6.855-21.119-14.936 10.282-13.713 22.038-13.546 20.64 6.096 20.544 14.17z" fill="#eb897d"/><path d="M582.86 289.184c-.077 7.982-9.555 14.305-21.138 14.133s-20.889-6.766-20.812-14.747 10.128-13.554 21.712-13.39 20.333 6.027 20.237 14.003z" fill="#eb877c"/><path d="M582.599 289.14c-.096 7.884-9.4 14.128-20.812 13.958s-20.582-6.678-20.506-14.558 9.975-13.396 21.367-13.235 20.027 5.962 19.95 13.835z" fill="#eb877c"/><path d="M582.339 289.054c-.077 7.783-9.248 13.949-20.487 13.784s-20.256-6.595-20.18-14.374 9.803-13.233 21.042-13.077 19.72 5.892 19.625 13.666z" fill="#eb867b"/><path d="M582.078 288.967c-.095 7.68-9.113 13.77-20.18 13.606s-19.95-6.507-19.854-14.185 9.63-13.074 20.697-12.92 19.414 5.825 19.337 13.499z" fill="#ea847b"/><path d="M581.818 288.88c-.077 7.581-8.96 13.591-19.835 13.43s-19.644-6.419-19.549-13.996 9.477-12.916 20.352-12.764 19.128 5.757 19.032 13.33z" fill="#ea837b"/><path d="M581.558 288.793c-.096 7.481-8.827 13.409-19.53 13.252-10.702-.15-19.318-6.33-19.242-13.81s9.325-12.754 20.027-12.604c10.703.157 18.821 5.69 18.744 13.162z" fill="#ea837b"/><path d="M581.298 288.707c-.077 7.38-8.674 13.23-19.204 13.078-10.53-.148-18.993-6.245-18.916-13.623s9.17-12.594 19.682-12.45c10.53.156 18.534 5.621 18.438 12.995z" fill="#ea8179"/><path d="M581.037 288.62c-.057 7.279-8.52 13.052-18.878 12.902-10.339-.143-18.668-6.157-18.59-13.434s8.998-12.435 19.356-12.293c10.34.152 18.209 5.555 18.113 12.825z" fill="#ea8078"/><path d="M580.777 288.576c-.077 7.179-8.386 12.873-18.553 12.725-10.186-.141-18.361-6.07-18.284-13.246s8.826-12.276 19.012-12.138c10.166.15 17.902 5.49 17.825 12.66z" fill="#ea8078"/><path d="M580.517 288.49c-.058 7.08-8.233 12.692-18.228 12.548s-18.035-5.983-17.959-13.059 8.673-12.115 18.668-11.98 17.614 5.422 17.519 12.49z" fill="#ea7e77"/><path d="M580.256 288.403c-.076 6.976-8.099 12.512-17.92 12.373s-17.711-5.896-17.654-12.873c.077-6.97 8.52-11.957 18.342-11.824s17.308 5.353 17.232 12.324z" fill="#ea7d78"/><path d="M579.996 288.316c-.057 6.878-7.946 12.334-17.576 12.197s-17.404-5.808-17.347-12.684c.077-6.871 8.367-11.797 17.998-11.667s17.001 5.285 16.925 12.154z" fill="#e97c77"/><path d="M579.736 288.23c-.077 6.779-7.812 12.153-17.27 12.02s-17.098-5.721-17.021-12.494 8.194-11.638 17.672-11.511 16.695 5.218 16.619 11.984z" fill="#e97c77"/><path d="M579.475 288.143c-.057 6.676-7.658 11.974-16.944 11.845s-16.772-5.637-16.696-12.31c.058-6.669 8.023-11.477 17.328-11.355s16.39 5.15 16.312 11.82z" fill="#e97a76"/><path d="M579.215 288.056c-.077 6.576-7.524 11.796-16.638 11.67s-16.447-5.55-16.37-12.123c.057-6.569 7.869-11.317 16.982-11.197s16.102 5.083 16.026 11.65z" fill="#e97a76"/><path d="M578.955 288.012c-.057 6.475-7.372 11.616-16.294 11.492s-16.14-5.46-16.082-11.933c.076-6.47 7.715-11.159 16.657-11.041s15.796 5.014 15.719 11.483z" fill="#e87975"/><path d="M578.738 287.926c-.076 6.376-7.218 11.437-15.987 11.315s-15.815-5.373-15.758-11.744c.077-6.368 7.563-10.998 16.313-10.885s15.49 4.948 15.431 11.314z" fill="#e87975"/><path d="M578.434 287.839c-.057 6.273-7.065 11.255-15.661 11.137s-15.49-5.286-15.432-11.555 7.39-10.84 15.987-10.728 15.183 4.88 15.106 11.146z" fill="#e87875"/><path d="M578.217 287.752c-.077 6.173-6.93 11.078-15.336 10.964s-15.183-5.199-15.125-11.372 7.237-10.678 15.642-10.571c8.405.116 14.877 4.813 14.82 10.979z" fill="#e87775"/><path d="M577.914 287.665c-.058 6.072-6.778 10.898-15.011 10.786-8.233-.105-14.858-5.113-14.8-11.183s7.065-10.517 15.298-10.414c8.233.113 14.57 4.746 14.513 10.81z" fill="#e87673"/><path d="M577.653 287.579c-.039 5.973-6.624 10.719-14.685 10.61-8.06-.101-14.532-5.026-14.494-10.994.077-5.967 6.912-10.36 14.973-10.26 8.06.11 14.283 4.68 14.206 10.644z" fill="#e87673"/><path d="M577.436 287.492c-.057 5.87-6.49 10.537-14.378 10.432-7.87-.099-14.207-4.937-14.169-10.805s6.759-10.2 14.647-10.104c7.87.11 13.958 4.611 13.9 10.477z" fill="#e87573"/><path d="M577.133 287.448c-.04 5.77-6.338 10.36-14.035 10.259-7.715-.099-13.919-4.852-13.862-10.62s6.587-10.038 14.303-9.946c7.696.105 13.67 4.543 13.594 10.308z" fill="#e87473"/><path d="M576.916 287.362c-.058 5.67-6.204 10.18-13.728 10.082s-13.594-4.763-13.537-10.432 6.433-9.88 13.958-9.788 13.364 4.476 13.307 10.138z" fill="#e87472"/><path d="M576.612 287.275c-.039 5.57-6.05 10-13.402 9.904s-13.269-4.675-13.211-10.243 6.26-9.72 13.613-9.634 13.058 4.41 13 9.973z" fill="#e87472"/><path d="M576.395 287.188c-.057 5.47-5.916 9.821-13.096 9.729s-12.943-4.588-12.885-10.055 6.107-9.56 13.268-9.477 12.77 4.34 12.714 9.803z" fill="#e87272"/><path d="M576.135 287.101c-.04 5.367-5.763 9.64-12.752 9.553-7.007-.084-12.636-4.502-12.598-9.868s5.955-9.402 12.962-9.321c6.988.092 12.445 4.274 12.387 9.636z" fill="#e87171"/><path d="M575.875 287.015c-.058 5.267-5.63 9.462-12.446 9.376s-12.31-4.416-12.273-9.681 5.783-9.24 12.618-9.162c6.816.088 12.158 4.206 12.1 9.467z" fill="#e86f70"/><path d="M575.614 286.928c-.039 5.169-5.457 9.282-12.12 9.2-6.643-.077-11.985-4.327-11.947-9.492s5.63-9.08 12.273-9.008 11.852 4.14 11.794 9.3z" fill="#e86f70"/><path d="M575.354 286.884c-.057 5.066-5.323 9.105-11.794 9.025s-11.679-4.24-11.64-9.308 5.456-8.92 11.927-8.849 11.546 4.07 11.507 9.132z" fill="#e86e70"/><path d="M575.094 286.798c-.04 4.967-5.17 8.924-11.469 8.849s-11.373-4.155-11.315-9.12 5.303-8.76 11.583-8.694 11.258 4.006 11.2 8.965z" fill="#e76d6f"/><path d="M574.833 286.71c-.017 4.865-5.016 8.743-11.143 8.67s-11.047-4.066-11.009-8.93 5.15-8.603 11.277-8.539c6.108.08 10.933 3.938 10.875 8.8z" fill="#e76c6f"/><path d="M574.573 286.624c-.039 4.764-4.882 8.564-10.817 8.493-5.955-.064-10.741-3.978-10.703-8.742s4.978-8.442 10.932-8.382c5.935.075 10.626 3.87 10.588 8.63z" fill="#e76c6f"/><path d="M574.313 286.537c-.018 4.663-4.73 8.384-10.492 8.32s-10.416-3.893-10.378-8.558c.04-4.656 4.825-8.28 10.588-8.223 5.763.071 10.339 3.8 10.282 8.46z" fill="#e76a6f"/><path d="M574.052 286.45c-.039 4.562-4.595 8.204-10.185 8.142s-10.09-3.805-10.052-8.369 4.653-8.122 10.243-8.066c5.591.066 10.033 3.734 9.995 8.294z" fill="#e7696d"/><path d="M573.792 286.364c-.039 4.463-4.442 8.025-9.86 7.965s-9.765-3.717-9.726-8.18 4.499-7.96 9.917-7.91c5.4.065 9.707 3.668 9.67 8.124z" fill="#e6676d"/><path d="M573.532 286.32c-.04 4.36-4.308 7.846-9.535 7.788-5.246-.054-9.458-3.629-9.44-7.991.04-4.356 4.347-7.803 9.593-7.756 5.227.062 9.42 3.6 9.382 7.96z" fill="#e7666d"/><path d="M573.271 286.234c-.039 4.26-4.154 7.667-9.209 7.611s-9.132-3.543-9.113-7.802c.039-4.257 4.193-7.644 9.247-7.599s9.114 3.532 9.075 7.79z" fill="#e7666d"/><path d="M573.011 286.147c-.039 4.16-4.02 7.49-8.903 7.438s-8.807-3.458-8.788-7.618c.04-4.157 4.02-7.483 8.903-7.44s8.826 3.464 8.788 7.62z" fill="#e6656c"/><path d="M506.156 270.863s.69-33.987-16.676-7.25c0 0 7.39 10.31 16.676 7.25z" fill="#f4b891"/><path d="M505.766 270.624s.67-32.546-15.968-6.94c0 0 7.065 9.872 15.968 6.94z" fill="#f4b38b"/><path d="M505.376 270.386s.631-31.112-15.26-6.636c0 0 6.759 9.435 15.26 6.636z" fill="#f2af85"/><path d="M504.985 270.147s.613-29.672-14.55-6.327c0 0 6.451 8.997 14.55 6.327z" fill="#f2a97f"/><path d="M504.551 269.908s.575-28.233-13.843-6.022c0 0 6.127 8.564 13.843 6.022z" fill="#f2a579"/><path d="M504.204 269.67s.536-26.794-13.153-5.714c0 0 5.82 8.124 13.153 5.714z" fill="#f09e74"/><path d="M503.77 269.427s.498-25.353-12.445-5.407c0 0 5.495 7.69 12.445 5.407z" fill="#ef9a6e"/><path d="M503.38 269.188s.479-23.916-11.737-5.1c0 0 5.189 7.253 11.737 5.1z" fill="#ef9469"/><path d="M502.99 268.954s.44-22.479-11.029-4.796c0 0 4.883 6.82 11.028 4.796z" fill="#ee8f62"/><path d="M502.556 268.715s.42-21.04-10.32-4.489c0 0 4.576 6.383 10.32 4.49z" fill="#ec875a"/><path d="M506.709 265.676c-1.609.116-2.106-6.059-4.96-9.312-3.407-2.95-6.126-.093-7.39.128-.44.253-1.436-2.346.766-4.55 1.857-2.26 6.548-3.108 9.899.113 5.667 7.286 2.489 13.99 1.685 13.621zM425.072 235.956c-.364.114 1.972 11.062 9.707 26.963 7.524 15.7 21.003 38.549 44.477 49.072 48.517 19.707 90.083-6.336 88.63-6.195.46-2.464-39.404 18.501-85.337-.417-45.566-21.86-55.545-72.196-57.475-69.423z" fill="#26231f"/><path d="M415.786 236.842c.804-1.34 3.063-1.78 6.758-3.557 3.657-1.65 6.625-3.041 7.659-1.982 1.072 1.037-1.245 5.193-5.763 7.224-4.538 2.452-9.612-.128-8.654-1.685zM565.816 300.343c1.512-.238 3.254 1.688 5.648 4.476 2.47 2.721 4.116 4.795 3.867 6.445-.191 1.572-4.46.982-7.467-2.488-3.063-3.451-3.427-8.279-2.048-8.433zM445.028 283.93c.23-.738 6.376 3.09 11.029 13.366 2.47 4.935 4.748 11.137 7.581 17.488 3.198 6.417 6.261 12.823 13.307 8.51 29.677-9.894 55.141-5.718 54.72-3.815-.096 1.183-24.621-.314-53.245 9.224-2.642 1.529-9.516 2.715-12.617-1.276-3.274-3.23-4.864-6.966-6.338-10.352-2.776-6.872-4.633-13.04-6.605-18.007-3.619-10.175-8.252-14.423-7.83-15.138z" fill="#26231f"/><path d="M498.955 318.034s-23.799-6.4-38.714-18.841c-3.312-2.769 5.667 30.32 14.092 23.896 9.515-7.238 16.12-4.69 24.622-5.055z" fill="#da013c"/><path d="M442.97 223.098c-.23 1.123.728 2.327 2.145 2.68 1.398.36 2.719-.261 2.948-1.39s-.727-2.333-2.125-2.687c-1.417-.36-2.738.268-2.967 1.397zM434.162 213.579c-.23 1.124.728 2.326 2.145 2.683 1.397.358 2.738-.268 2.967-1.393s-.746-2.331-2.144-2.685c-1.417-.36-2.738.266-2.968 1.395zM433.514 226.282c-.21 1.13.728 2.327 2.144 2.685s2.738-.266 2.968-1.395-.727-2.33-2.144-2.687-2.738.268-2.968 1.397zM453.656 236.523c-.23 1.13.728 2.333 2.145 2.691s2.737-.272 2.967-1.394-.727-2.327-2.144-2.687-2.738.268-2.968 1.39zM567.114 277.692c-.23 1.123.727 2.327 2.144 2.685s2.738-.266 2.968-1.397-.728-2.327-2.145-2.685-2.738.268-2.967 1.397zM556.797 287.087c-.23 1.129.728 2.332 2.145 2.69s2.738-.27 2.968-1.396-.728-2.332-2.145-2.685-2.738.265-2.968 1.391zM581.994 287.466c-.21 1.124.747 2.325 2.145 2.685 1.417.357 2.738-.268 2.967-1.396s-.727-2.327-2.144-2.68-2.738.26-2.968 1.391zM548.41 275.526c-.21 1.128.727 2.331 2.144 2.687 1.398.358 2.738-.268 2.968-1.392s-.747-2.331-2.145-2.687c-1.417-.354-2.738.268-2.967 1.392z" fill="#9e2c14"/><path d="M447.11 592.004s43.671 52.078 38.044 66.282l-5.647 14.202s85.948 195.692 83.132 228.829c0 0-105.666-14.2-119.762 6.314 0 0-8.443-34.72-9.86-22.095 0 0-38.044-26.826-73.254-1.574 0 0 2.814-153.08-14.092-183.067s-18.323-85.22-2.814-101.002 85.926-22.093 101.436-14.2l2.815 6.312z" fill="#252413"/><path d="M513.315 877.644s-9.86 127.831-25.35 146.768-32.415-3.156-23.952-14.2 15.49-94.69 9.86-124.677 39.442-23.669 39.442-7.888zM400.603 853.957s2.815 88.377-1.417 96.273-40.858 22.095-30.998 26.826 42.276 3.155 49.32-6.314 21.118-86.794 15.49-104.156-25.35-31.564-32.396-12.626z" fill="#252413"/><path d="M480.907 994.434s-128.204 1.577-129.618 18.938c-1.398 17.357 54.95 28.409 87.345 26.826s57.765-6.312 59.18-18.938c1.397-12.626 8.443-33.138-16.907-26.826z" fill="#252413"/><path d="M396.352 940.768c4.04-1.364 33.812-1.58 32.395 18.938-1.398 20.512-118.343 64.703-131.02 52.074s42.256-52.074 98.62-71.015zM600.43 215.921c-5.227 5.107 27.628 47.649 5.878 50.235-6.204.738-16.428-25.485-22.708-26.593-6.26-1.108-12.847 33.98-15.336 21.86-5.055-24.609-11.353-40.931-11.353-31.462s-25.273 20.414-21.042 4.633c4.212-15.782 1.014-20.081-.402-15.344-1.398 4.731-7.907 27.267-21.75 20.313-9.573-4.802 2.297-25.855 2.297-25.855s-40.666 28.66-32.95 11.359 26.69-26.133 22.726-26.87c-9.822-1.835-60.1 11.147-51.635 3.255s18.514-4.948 23.607-12.49c7.257-10.713-12.215-1.445-22.075-7.758-9.88-6.312.44-19.81 24.392-10.341s-11.833-51.476 2.24-37.271c14.092 14.202 14.781 10.275 21.827 16.588s2.125-33.95 11.985-16.588c9.88 17.359 7.142 30.388 9.956 36.7s1.245-37.95 15.413-33.544c-4.538 27.243 1.417 29.984 1.417 37.876s8.443-26.83 26.766-26.83-11.277 20.518-8.462 29.987 15.489-20.517 33.812-14.204-36.626 29.986-16.906 28.407 50.316 7.754 48.017 15.447c-1.972 6.647-20.505 3.39-25.713 8.492z" fill="#252413"/><path d="M538.087 205.578c.747 1.261 4.882 16.383 3.37 21.425-1.493 5.041 7.141-.002 10.512-9.662s20.62.84 18.743 17.645c0 0 4.136-7.14 6.012-10.082s12.37 4.203 14.628 12.183 0-19.325 0-19.325c-10.128-2.101 2.24-10.92 11.24-11.342s-10.493-15.963-28.49-8.402-6.012-10.923 2.24-16.804-16.504 1.258-22.497 10.922c-6.013 9.662 0-23.106 0-23.106 7.505-10.922-13.288 12.9-13.498 15.545-1.13 13.442-5.63-15.124-3.006-23.106s-12.751 7.98-10.128 16.383-11.24-12.602-11.622-22.685-13.135 4.62-6.759 16.804-1.857 6.72-5.993 1.682.384 8.819.384 8.819c7.868 3.362-19.893 10.083-23.627 12.602s41.24-7.98 43.117-4.199-19.127 18.064-19.874 23.106 27.743-17.225 27.743-17.225c4.136.421-12.732 22.266-10.492 27.307s13.498-20.584 18.38-20.165c4.864.421-1.129.421-.382 1.68z" fill="#39372c"/><path d="M317.653 41.77s-100.27 17.379-103.848 30.75-14.322 57.492 13.134 54.815 81.163-10.694 81.163-10.694l193.375 37.436s-7.18-50.807 19.089-61.5c0 0-177.849-61.502-202.912-50.808zM289.8 148.26s-79.974-13.371-89.527 4.01-41.758 73.536-22.669 76.209 97.874 1.336 97.874 1.336l122.938 21.395s-9.554-73.536 15.508-84.23l-124.126-18.72zM154.139 265.05s17.92 33.423 3.58 41.446c0 0 84.76 4.01 91.922-17.381s7.16-42.785 0-41.449-83.553 9.36-95.501 17.383z" fill="#26231f"/><path d="M249.627 318.511s-66.838-20.055-77.58-10.693-32.644 49.814-29.063 75.22 37.412 13.026 66.056 11.69 139.653 21.39 139.653 21.39-2.393-65.515 19.09-73.537c21.5-8.023-118.153-24.067-118.153-24.067zM199.084 550.486s-60.347-5.339-63.527 10.676-9.535 39.145 6.357 44.482 58.76 8.898 58.76 8.898 132.051 10.059 136.971-.794c4.94-10.852-6.376-14.875-6.452-80.52-20.659 0-106.682 10.142-132.109 17.258zM143.51 429.488s15.872 69.392 0 96.082c0 0 57.171 17.793 73.063-1.782s28.584-74.73 9.534-87.18c-19.07-12.455-69.905-10.677-82.599-7.119z" fill="#26231f"/><path d="M135.527 546.928c4.001-2.897 68.295-10.674 69.883 3.56s-4.768 16.015-9.535 14.237-50.815-12.454-50.815-1.778-7.946 35.585 3.159 37.363 57.189-5.338 57.189 7.116-3.179 21.353-3.179 21.353-63.527-3.559-69.883-14.235-23.836-48.04 3.179-67.614z" fill="#252413"/><path d="M138.737 436.603c6.204 1.544 60.347-12.455 69.883 5.336s6.357 85.41-12.713 83.627c-19.05-1.782-61.939-12.452-63.527 1.78s3.179 19.569 3.179 19.569 57.171 7.12 69.882 3.56 119.376-3.807 124.144-10.925c4.748-7.117 5.801-104.781 1.34-117.185-4.442-12.4-58.76-12.454-100.056-12.454s-93.723-3.56-98.49 3.56-7.947 19.568 6.356 23.13z" fill="#26231f"/><path d="M200.3 563.718s122.993.813 128.069-7.294 2.163-13.78-2.891-17.02c-10.148-6.484-118.669 4.863-123.723 9.723s-4.346 11.35-1.455 14.59zM201.037 604.238s130.959-9.728 134.577-4.051 4.346 13.777 0 16.212-127.094 15.038-133.371 12.381-5.552-25.353-1.206-24.542zM157.696 306.494c-3.657 2.514-27.436 50.807-22.669 80.221s3.906 24.38 3.906 24.38 77.254 13.054 80.837 1.024-5.973-24.067-5.973-24.067-59.68 10.695-59.68 0 1.207-57.493 9.555-65.515c8.367-8.023 75.206 10.696 77.58 0s1.205-21.391 1.205-21.391-63.258-9.362-84.759 5.347z" fill="#26231f"/><path d="M237.696 301.158c4.92 0 151.601 22.727 148.018 33.423s-1.207 12.034-13.135 12.034-136.074-13.37-138.464-21.392-3.58-24.066 3.58-24.066zM213.792 388.056c-6.28-1.519-1.187 18.717 5.973 24.068s125.332 24.066 131.306 13.368c5.955-10.696 7.161-21.391 3.58-21.391s-79.227-1.146-140.859-16.045z" fill="#26231f"/><path d="M152.924 250.346s97.874-24.066 103.848-8.02c5.955 16.042 7.161 56.155-9.553 58.828s-99.866 21.166-103.45 13.143 5.572-13.143 16.313-17.156 77.58-4.01 81.163-14.706 2.392-26.742-7.161-26.742-79.974 18.72-84.742 13.372-8.348-18.719 3.58-18.719z" fill="#26231f"/><path d="M256.785 242.325s131.285 6.685 134.868 33.425 2.393 57.492-10.741 56.156-134.868-25.402-143.232-30.75c-8.348-5.352 10.74-10.698 10.74-22.732s2.394-42.785 8.368-36.098z" fill="#26231f"/><path d="M273.488 139.375s-73.367-6.299-87.692 5.736-31.4 94.17-24.24 99.519 107.164 7.05 111.932-2.308 4.786-20.056-4.768-18.719-84.742 14.706-84.742 1.338 10.741-58.828 19.09-64.178c8.366-5.347 76.394 5.347 79.973-1.338s5.974-18.716 5.974-18.716-4.787-1.336-15.527-1.336z" fill="#26231f"/><path d="M289.02 140.71s140.841 4.012 143.232 18.717l2.374 14.707-8.348 2.674s-137.258-14.707-143.232-17.381 0-20.052 5.973-18.716zM273.488 224.945s132.972 13.302 131.553 25.368-6.222 18.753-14.57 18.753c-8.367 0-122.937-20.055-122.937-20.055s-1.207-26.74 5.954-24.066z" fill="#26231f"/><path d="M320.04 33.747s11.927 21.391 0 22.727-88.322 8.024-96.69 17.384c-8.349 9.36-11.929 44.122 2.392 45.458s88.322-22.729 88.322-12.03-9.554 36.015-9.554 36.015-100.252 5.431-103.83-3.927-8.368-61.505-3.581-74.876S297.35 28.4 320.036 33.748z" fill="#26231f"/><path d="M320.04 33.747s225.579 28.079 224.394 46.794c-1.187 18.723-9.553 14.708-9.553 14.708s-210.074-30.75-214.842-38.775 0-22.727 0-22.727zM314.095 107.283s196.938 32.09 195.753 44.122l-1.186 12.035s-5.974 6.685-15.528 5.347-187.384-25.402-194.547-28.076 3.58-36.1 15.509-33.425z" fill="#26231f"/><path d="M319.866 61.873s-16.14 23.525-4.844 42.522c0 0-95.31 20.808-98.525 12.665-3.236-8.141.842-40.27 6.873-43.204s96.499-11.983 96.499-11.983z" fill="#fefbde"/><path d="M223.553 430.269s18.782 83.982-13.536 111.128c0 0 107.427-7.239 112.273-12.67s10.55-84.598 5.706-87.318-102.013-16.568-104.443-11.14z" fill="#ab0a15"/><path d="M134.095 418.338s-4.04 13.57 3.236 13.57c7.256 0 59.757-11.76 69.462 1.81l.804-9.952s-59.774-13.57-73.501-5.428zM138.13 526.017l.804 6.333s58.148 11.762 60.577 9.049 4.04-8.144 1.608-8.144-59.757-15.38-62.989-7.238z" fill="#e20415"/><path d="M205.419 550.486s-3.485 8.98 1.378 8.98 115.488-3.621 115.488-6.336-4.04-8.142-4.04-8.142-110.147 1.948-112.828 5.497zM209.236 613.783s-3.235 9.953 4.04 9.048 118.725-5.43 119.532-10.858-3.217-7.237-3.217-7.237-115.51 1.81-120.351 9.047zM199.084 550.486s.46 8.978-1.972 8.073-52.499-3.619-55.714 0c-3.235 3.62-6.471 29.856 0 41.617l60.56 9.954-.804 12.667s-58.147-8.144-62.186-10.86-15.337-13.569-12.12-41.617c1.512-13.063 14.55-21.711 14.55-21.711l57.689 1.876z" fill="#d2650c"/><path d="M151.883 438.251s17.767 57.905 2.412 78.712c0 0 50.89 19 55.736 11.762s12.923-78.712 1.627-86.85c-11.316-8.144-59.775-3.621-59.775-3.621zM202.772 570.312s-3.236 21.715 4.04 33.477c0 0-59.774-4.525-61.401-9.954-1.608-5.428-3.217-25.33 1.627-28.044s55.736 4.521 55.736 4.521z" fill="#fefbde"/><path d="M210.842 570.312s-5.649 25.333 2.431 31.667 116.313-4.526 116.313-4.526-7.276-29.854-1.628-36.187c0 0-112.256 3.618-117.12 9.046zM236.655 339.64s-13.728 45.236-7.256 48.854l115.488 9.954s-10.492-40.714 7.275-47.046c0 0-112.273-17.188-115.51-11.761zM288.369 166.824s-12.924 36.19-8.08 57.904l109.84 15.379s-8.884-54.282 7.275-64.234c0 0-104.195-14.477-109.037-9.048zM327.154 65.496s-10.492 21.713-6.452 36.19l172.833 36.187s-2.432-34.38 15.336-43.427c0 0-180.109-33.471-181.718-28.95z" fill="#d9b68b"/><path d="M235.05 309.791s1.608 13.572-2.432 11.762-67.033-9.045-72.681 1.812c-5.667 10.854-21.004 64.234-4.844 73.28s58.95-.903 58.95-.903 2.432 14.476-1.608 14.476-65.423 0-68.66-2.714-14.531-49.762 10.493-86.855c14.168-20.98 80.777-10.859 80.777-10.859zM243.944 312.481s-9.382 6.546-2.68 10.059c6.72 3.513 133.526 24.32 135.939 21.607s1.627-8.145 1.627-8.145-134.083-25.334-134.885-23.521zM221.34 399.336s-3.235 13.572 0 13.572c3.217 0 120.873 13.486 122.764 9.949s6.453-9.95 6.453-9.95-125.18-17.192-129.22-13.571z" fill="#009935"/><path d="M229.41 332.394s-10.512 31.665-6.471 53.376c0 0-68.963 13.627-68.812 2.29s1.78-54.763 12.273-58.381 60.577-.905 63.01 2.713z" fill="#fefbde"/><path d="M249.627 247.665s16.695 32.65-.517 51.597a26.111 26.111 0 0 1-1.876 1.887c58.09 13.143 131.592 23.096 134.004 22.192s6.472-44.33 2.432-48.855-130.79-31.019-134.044-26.817zM148.629 256.39s-.804 7.236 2.431 8.141c3.217.905 85.601-9.949 86.408-12.664s4.864-9.954-3.216-7.239-83.996 7.239-85.622 11.762zM149.453 304.325s-1.608 6.33 2.432 6.33 81.18-3.667 85.813-9.522.613-8.57.613-8.57-79.957 9.047-86.425 11.762-2.432 0-2.432 0z" fill="#21276e"/><path d="M163.987 272.676s10.492 15.38 4.844 22.618c0 0 69.462-2.717 74.308-9.953s6.452-25.331 0-25.331-74.308 9.953-79.15 12.667z" fill="#fefbde"/><path d="M281.124 146.919s0 9.046-4.06 9.046c-4.02 0-71.127-11.013-77.561-1.887s-24.201 71.553-18.534 77.883c5.648 6.334 90.447-3.622 90.447-.905s-6.453 8.144-6.453 8.144-90.464 4.521-93.7-.905c-3.217-5.428 11.315-82.33 21.003-89.566s79.957-5.427 88.86-1.81zM277.87 231.054s-11.162 10.763-4.385 11.265c6.797.5 115.029 23.117 119.072 21.307s5.074-10.612 5.074-10.612-116.525-27.392-119.762-21.96zM289.02 150.069s-3.064 5.898 3.388 6.802 134.886 17.189 136.495 14.475c1.627-2.712-2.412-8.141-2.412-8.141S294.517 144.17 289.02 150.069z" fill="#e20415"/><path d="M281.124 166.82s-18.438 41.143-7.62 58.116c0 0-85.276 7.025-85.276-.215s1.455-59.163 14.857-63.961 78.04 6.059 78.04 6.059z" fill="#fefbde"/><path d="M316.655 37.444s5.648 15.381-2.432 15.381-94.507 9.048-100.959 18.094-14.531 51.57 3.236 56.998 91.614-11.276 91.614-11.276l-4.384 13.991s-90.465 8.143-95.31 5.429-8.08-60.616-4.04-67.853 105.8-33.475 112.273-30.763zM326.33 39.253s-4.04 10.855.804 12.667S534.7 91.73 535.52 88.11s-.823-9.048-.823-9.048-208.37-41.62-208.37-39.81zM317.436 117.965s-9.688 13.573-4.04 15.381 184.148 31.664 187.384 29.857c3.217-1.81 2.413-6.334 2.413-6.334s-180.912-41.616-185.758-38.904z" fill="#fec611"/><path d="M226.981 343.246c-.172.598-2.106.429-5.13.2-3.026-.243-7.162-.473-11.776-.376-9.21.17-16.753 1.398-17.02.176-.288-1.12 7.179-4.378 16.963-4.573 4.863-.105 9.286.652 12.35 1.716 3.082 1.053 4.786 2.301 4.613 2.857zM224.552 350.48c.018 1.234-5.782 2.154-12.885 2.315-7.065.17-12.828-.191-12.943-1.412-.115-1.192 5.648-2.814 12.866-2.985s12.962.888 12.962 2.082zM197.9 463.572c-.096.615-2.47.637-6.222.673l-14.762.172c-5.82.021-11.182-.328-15.01-1.13s-6.09-1.85-5.994-2.428c.096-.612 2.47-.633 6.242-.67l14.762-.17c5.801-.023 11.162.327 14.991 1.127 3.849.772 6.108 1.849 5.993 2.426zM194.686 480.761c-.23 1.257-7.908.146-17.117-1.42-9.19-1.619-16.677-1.891-16.81-3.1-.04-.584 1.857-1.341 5.035-1.723s7.582-.304 12.33.472c9.516 1.621 16.772 4.656 16.562 5.771zM201.938 457.242c.017.59-2.662 1.21-7.008 1.24s-10.32-.612-16.772-1.85-12.177-2.573-16.332-3.502c-4.154-.954-6.758-1.602-6.72-2.222.017-.592 2.719-1.04 7.046-.866 4.327.15 10.262 1.025 16.657 2.254 6.414 1.231 12.158 2.36 16.332 3.086s6.797 1.236 6.797 1.86zM247.181 584.809c-.039 1.216-8.635 2.145-19.26 3.326s-19.377 1.536-19.51.294c-.135-1.167 8.385-3.496 19.145-4.673 10.799-1.201 19.644-.161 19.625 1.053zM262.52 381.24c-.23 1.292-8.252-.068-17.883-1.08-4.806-.472-9.152-.526-12.31-.399-3.16.105-5.19.28-5.343-.328-.153-.553 1.666-1.816 4.96-2.751 3.254-.953 7.964-1.403 13.038-.903 5.054.484 9.515 1.657 12.655 2.747s4.998 2.127 4.883 2.715zM432.924 116.155c-.133.597-6.529-.695-16.772-3.127s-24.315-5.975-39.958-9.192-29.926-5.264-40.303-6.336-16.848-1.506-16.848-2.153c0-.566 6.49-1.27 17.02-.95s25.044 1.855 40.839 5.112 29.83 7.309 39.92 10.501 16.236 5.567 16.102 6.145zM365.896 91.73c-.268 1.203-9.841-.438-21.578-2.438-11.718-2.06-21.272-3.573-21.233-4.8s9.899-1.64 21.827.452c11.947 2.036 21.233 5.634 20.984 6.786zM204.373 185.825c-.077-.599 3.791-1.828 10.148-3.418 6.356-1.556 15.183-3.504 25.139-4.612s19.146-.882 25.694.446c6.548 1.278 10.262 3.46 10.09 3.965-.192.637-4.06-.434-10.435-.88-6.356-.496-15.183-.268-24.967.846-9.764 1.085-18.61 2.533-25.081 3.303s-10.511.951-10.588.35zM243.948 200.303c0-1.217 2.891-2.201 6.452-2.201 3.58 0 6.472.984 6.472 2.201s-2.891 2.197-6.472 2.197c-3.56 0-6.452-.986-6.452-2.197z" fill="#26231f"/><path d="M273.032 209.345c-.287.537-3.638-1.108-9.44-2.197-5.762-1.141-13.918-1.826-22.917-1.478-9.018.326-17.117 1.594-22.86 3.014-5.764 1.38-9.133 3.005-9.401 2.47-.288-.498 2.795-3.227 8.634-5.461 5.82-2.269 14.188-4.082 23.493-4.42s17.787.85 23.703 2.85c5.954 1.953 9.075 4.732 8.788 5.222zM199.529 275.389c-.23 1.29-8.041-.045-17.232 1.602-9.19 1.59-16.082 5.836-16.695 4.731-.268-.493 1.13-2.209 3.944-4.163 2.795-1.951 7.103-4.019 12.139-4.913s9.688-.47 12.885.324 5.055 1.846 4.959 2.419zM201.134 279.91c0 1.286-7.563 1.938-16.561 3.76-9.018 1.76-16.045 4.603-16.543 3.48-.23-.528 1.283-1.98 4.117-3.582s6.969-3.254 11.717-4.221c9.535-1.922 17.308-.57 17.27.564zM309.37 201.203c0 1.27-7.658 2.04-16.925 2.54-9.267.47-16.734 1.362-17.002.177-.287-1.17 7.218-4.08 16.792-4.568 9.515-.511 17.135.695 17.135 1.851zM283.51 196.676c-.345 1.225-11.488-2.128-25.407-3.925-6.97-.911-13.288-1.154-17.883-1.11s-7.486.232-7.6-.392c-.096-.56 2.66-1.866 7.37-2.706 4.71-.856 11.354-1.105 18.554-.163 14.474 1.88 25.33 7.232 24.966 8.296z" fill="#26231f"/><path d="M233.531 447.882s86.196 0 87.02 7.428-3.313 7.427-3.313 7.427-81.219 6.5-83.705 2.786-6.643-16.711 0-17.64z" fill="#e20415"/><path d="M503.293 413.262s-172.62 116.113-227.57 206.07l15.489 3.157S417.806 505.89 515.03 474.329c0 0 24.91-75.272-11.737-61.068z" fill="#26231f"/><path d="M573.879 337.904s18.323-11.047 32.414 0 16.926 47.15 16.926 47.15-79.306 100.182-107.276 101.314c-7.582.305-16.734-88.49-26.594-88.49s71.857-58.39 84.53-59.97z" fill="#252413"/><path d="M278.477 609.878s-42.887-19.66-40.399-6.666c1.494 7.724 11.488 13.27 11.91 20.272.23 4.165-10.57 2.104-18.84 4.165-6.319 1.574-.881 7.269 6.432 10.273 6.912 2.836 14.111 3.7 13.384 6.943-.709 3.243 4.384 13.79 10.166 10.552 5.801-3.245 4.978-3.88 7.87-1.45s-1.954 8.045 6.011 5.615 7.907-5.615 10.09-5.615 1.915 8.542 9.152 4.491c2.757-1.546 18.093-17.507 9.478-35.151-3.485-7.11-2.47-3.436-6.817-9.92s-4.69-8.373-18.438-3.508z" fill="#26231f"/><path d="M527.805 467.188s90.755-83.588 89.74-93.752-14.111-35.015-22.19-33.887-96.803 55.345-96.803 55.345 29.255 51.961 22.19 74.551l7.065-2.26z" fill="#bd0179"/><path d="M368.456 602.72c2.91-.929 55.679-16.86 68.772-6.692s38.752 52.295 34.712 59.076-6.95 15.548-6.95 15.548 86.577 195.254 88.608 213.323l-105.84 5.154-21.826-65.016 3.025 42.924-62.512 2.258s-4.04-133.288-7.066-153.618-14.11-36.145-17.135-51.961c-3.025-15.813 0-50.829 4.04-53.089s15.106-5.65 22.17-7.908z" fill="#532d84"/><path d="M500.56 424.238s17.136 27.11 8.06 33.887-161.21 74.902-217.674 160.746l-9.21-1.482s27.226-35.018 34.29-41.794c7.046-6.775 136.131-128.768 184.53-151.358z" fill="#f4b891"/><path d="M283.293 616.386s-35.363-17.816-37.278-14.13c-1.934 3.687 12.062 12.9 10.416 18.43s-26.058 6.45-22.21 9.214c3.83 2.765 22.21 3.685 21.923 8.6-.269 4.914-.824 10.135 2.757 8.907 3.56-1.229 12.062-3.684 12.885 1.536s.268 4.913 5.208 2.151 10.416-3.076 10.684-1.538c.287 1.538 3.848.614 6.03-1.844 2.202-2.456 6.07-8.352 2.872-18.985-1.608-5.366-3.446-7.99-3.503-9.831s-5.667-5.274-9.784-2.51zM505.289 899.423s-14.954 87.618-14.954 97.93-3.446 15.465-3.446 15.465-80.508 11.594-71.32 1.288 59.814-9.02 59.814-9.02 3.447-100.504 9.21-103.085c5.743-2.578 21.846-9.021 20.697-2.578zM430.495 881.375l-13.805 61.849s-54.047 33.502-59.813 28.346c-5.744-5.151 52.92-32.211 52.92-32.211s-5.763-56.695 0-60.56c5.743-3.867 20.697 2.576 20.697 2.576z" fill="#f4b891"/><path d="M370.929 666.885c-1.551-2.767 20.333 16.56 26.785 16.56s29.562 130.385 29.562 130.385l-32.319-119.002s-12.943-8.28-24.028-27.94z" fill="#252413"/><path d="M365.419 712.395c0 9.312 6.452 149.01 6.452 149.01s14.8-7.242 38.81-1.033c0 0-22.172-13.454-29.562-11.384s-15.7-136.594-15.7-136.594zM412.49 699.987l40.648 173.848s29.561-17.588 48.039-19.66c0 0-24.01-5.176-35.095 1.033s-53.592-155.22-53.592-155.22z" fill="#7d5399"/><path d="M597.263 348.013s-77.601 35.181-82.213 45.531c0 0 18.476 31.047 16.62 48.638 0 0 14.78-34.15 8.328-44.495 8.309-10.348 69.27-51.74 57.267-49.67z" fill="#d60078"/><path d="M427.718 602.113c-2.776 0-72.985 8.28-79.436 20.698-6.07 11.652-7.256 37.886-2.795 50.482.287.826.593 1.591.938 2.292 5.552 11.382-4.614-43.462 14.78-50.707s66.517-22.766 66.517-22.766z" fill="#7d5399"/><path d="M403.987 361.462c3.81 0 73.198 34.289 58.417 43.605s-72.065-20.699-69.289-12.418 57.84 36.22 49.896 36.22c-12.024 0-46.2-16.555-46.2-13.454 0 3.104 26.116 27.94 22.171 31.045s-23.09-20.695-56.347-26.906c-11.085-2.067 29.562 4.14 25.867 2.07s-17.557-16.557-17.557-16.557 21.252-2.07 28.643 4.139-22.172-25.87-22.172-25.87 58.894 16.853 72.048 14.488c5.571-1.001-53.783-36.361-45.47-36.361z" fill="#dbd800"/><path d="M397.436 368.967s0 13.038 8.463 9.482-8.463-9.482-8.463-9.482zM427.067 409.227c12.177-5.848 7.41-18.965-2.125-16.595-9.516 2.372-5.284 20.15 2.125 16.595zM394.27 427.015s-20.105 4.74-8.463 8.296 8.462-8.296 8.462-8.296zM498.52 394.867l11.259-4.774s25.713 53.167 22.4 75.32l-11.468 4.008s-11.028-60.92-22.19-74.551z" fill="#6fb419"/><path d="M608.673 366.494s1.321 11.076-1.321 14.029c-2.623 2.953-69.866 69.41-69.866 69.41s37.565-46.52 44.82-56.117 15.164-31.75 15.164-31.75 9.228-2.954 11.2 4.43z" fill="#930c7a"/><path d="M341.688 591.83l1.57 4.13s71.7-20.479 100.937-13.907l-.115-7.067s-54.434-1.604-102.395 16.845z" fill="#6fb419"/><path d="M447.762 889.141s78.65-11.77 106.568-.542l-.709-11.228s-94.984-.524-105.86 11.77zM366.46 869.271s50.412-6.372 64.733.044 1.82-2.741 1.82-2.741l-3.256-3.674s-51.406-.89-63.297 6.372zM346.286 610.616s63.376-20.812 90.946-14.6l5.4 6.214s-65.155-6.415-99.523 18.448l3.178-10.063z" fill="#d6daed"/><path d="M411.58 622.85s-14.992 6.462-30.003 18.102-26.556 37.5-26.556 37.5-15.01-51.722 56.56-55.601z" fill="#7d5399"/><path d="M432.143 608.967s37.47 32.784 33.947 43.276-8.195 18.36-8.195 18.36 81.948 183.593 86.638 205.888c0 0-67.892-7.866-90.14 3.936 0 0 42.142-22.292 63.22-20.982 21.06 1.31-67.913-177.037-73.753-183.597s4.672-17.048 5.84-23.604-17.558-43.276-17.558-43.276zM491.796 1026.191s-103.466 12.534-128.642-8.351c0 0 26.096-17.754 71.779-15.665 0 0-53.132 10.444-41.95 15.665s84.838 9.394 98.816 8.351zM421.861 960.378s-111.852 57.427-118.382 44.898c0 0 31.707-37.59 51.276-42.81 0 0-35.42 29.236-24.24 29.236s91.346-31.323 91.346-31.323z" fill="#372569"/><path d="M557.957 196.338s10.511-23.104 31.878-27.305c0 0-26.249 16.385-25.12 25.625s-4.882 4.62-6.758 1.68zM560.213 205.162s29.255-13.44 56.252-.838c0 0-35.995-5.462-54.374 4.2 0 0-6.375-1.261-1.876-3.362zM538.478 142.142c.804-1.42-14.245 10.502-6.376 46.209l3.37 1.682s-9.382-26.047 3.005-47.892zM570.321 151.388c1.494-1.335-21.75 12.185-25.886 34.87l3.753 6.719s1.876-23.527 22.133-41.59zM529.063 200.537s-15.374 11.344-14.628 34.029c0 0 7.888-28.569 15.758-31.507l-1.13-2.522zM517.827 195.921s-35.746 26.849-26.633 24.367c19.874-19.749 27.743-18.067 27.743-18.067 6.012-1.682 5.246-5.879-1.11-6.3zM583.814 217.76s19.127 9.662 23.243 37.39l-15.374-26.886c-8.252-7.561-7.87-10.503-7.87-10.503zM495.31 178.698s-19.127-8.822-32.242-4.62c0 0 27.38 1.681 32.242 8.4v-3.78zM513.315 147.604s-1.877 28.569 10.492 39.91h3.752s-10.128-10.922-14.244-39.91zM544.812 210.624s1.13 15.12-2.623 23.104c0 0 7.122-13.02 4.116-23.104s-1.493 0-1.493 0z" fill="#777457"/></svg>