<svg viewBox="0 0 962.154 1092.169" xmlns="http://www.w3.org/2000/svg"><g stroke="#000" stroke-linecap="round" stroke-linejoin="round" stroke-width="8.5"><path d="M4.29 873.45c22.545-51.083 45.159-101.83 71.429-134.29 10.574-20.303 22.968-37.424 48.571-31.428 15.87-43.986 36.232-65.51 55.714-91.43 23.712-8.395 46.912-20.895 74.286 0 6.519-39.063 34.186-66.042 67.143-90 0 0 82.711 26.166 107.14-11.428 23.187-35.678 101.85-105.6 108.57-100l70 47.143c37.346 26.02 51.497 57.84 58.571 91.429 45.752 12.473 59.602 33.617 85.714 51.429-2.2 64.466 56.926 138.83 24.286 172.86 0 0-35.714 74.286-48.571 84.286s-198.57 30-204.29 30-90 .714-114.29-5-137.14 8.571-145.71 8.571-181.43 3.572-181.43 3.572c-34.904-3.32-68.397-7.447-77.143-25.714z" fill="#969593"/><path d="M124.39 707.49c15.036 9.727 29.936 19.994 38.386 56.064" fill="none"/></g><path d="M872.38 547.42c59.961 66.665 31.752 127.45 8.571 188.57l-44.286 92.858 41.428 41.429c44.052-26.768 68.892-7.391 75.714 10 12.071 30.773-3.382 54.509-35.714 65.714-24.546 4.052-44.472.184-55.714-18.572-20.406 2.414-40.614 7.6-62.857-15.714-34.76.02-69.139 6.925-105.71-25.714-22.072-25.354-18.988-38.988-10-57.143 6.584-13.298 26.652-14.006 41.43-17.143 7.254-80.618 33.43-104.47 57.142-135.71 0 0-109.09 12.869-132.86-10-35.436-34.101-3.053-131.61 48.571-128.57 56.352-14.1 114.13-13.941 174.29 10z" fill="#fdd192" stroke="#000" stroke-width="8.5"/><g stroke="#000" stroke-linecap="round" stroke-linejoin="round" stroke-width="8.5"><path d="M229.056 658.42c9.678 32.734 39.549 60.808 73.741 87.884 23.037 27.97 54.621 50.46 42.426 101.02l-71.721-11.112c-23.335-2.673-48.507-14.072-63.64 22.223-4.036 11.334.773 19.72 8.081 27.274.557 21.019 8.156 29.362 18.183 33.335 5.977 17.607 18.974 27.024 36.365 31.315 11.794 16.245 23.926 32.196 63.64 24.244 19.593-8.876 35.934-20.19 40.406-40.406 20.541-12.894 53.191-19.376 106.07-15.152 24.448-7.894 27.232-27.452 27.274-48.487-15.892-43.661-33.783-43.344-51.518-46.467-17.08-41.29-28.928-86.317-39.396-132.33-11.26-40.582-37.364-68.727-83.843-79.802-76.514-6.56-109.54 10.178-106.07 46.467z" fill="#fcd195"/><path d="M217.82 884.9c7.89-20.413 22.348-28.632 43.571-24.285M235.677 919.9c6.516-39.364 25.324-39.806 42.857-44.285M273.531 951.3c-7.5-38.016 3.711-62.204 40-67.856M400.681 858.4c17.284 10.093 21.474.545 27.857-5.713M443.531 824.87h17.143" fill="none"/></g><path d="M165.413 267.9c-2.014-26.802 24.473-56.456 48.487-85.862h-54.548c41.698-20.558 69.18-45.855 94.954-71.721 25.805-32.997 49.082-79.898 79.802-85.863 20.569-4.89 40.686-7.064 58.589 4.04 6.772-11.862 15.635-22.965 51.518-24.243 43.529 5.345 72.77 37.199 111.12 48.487L522 56.778c17.795 18.12 35.527 36.222 71.721 59.6h-20.203c27.67 26.07 58.49 51.565 57.579 82.832l-16.162-5.05c22.346 44.301 27.47 91.734 20.203 141.42-15.256 50.221-52.57 92.11-187.89 96.974-135.52-5.895-170.25-35.049-203.04-64.65-29.365-27.622-38.839-71.156-41.416-120.21z" fill="#c27d04" stroke="#000" stroke-width="8.5"/><path d="M172.834 662.04c16.266-57.5 54.894-90.154 94.954-121.22l81.822-140.41 219.2-51.517s85.088 114.3 125.26 177.3c31.919 50.052 91.924 161.1 91.924 161.1s-72.289-8.23-147.41-5.613c-39.473 1.375-126.59 25.172-149.07 20.765-42.051-8.244-54.563-36.522-96.975-40.91-64.043-6.629-135.87.504-135.87.504 2.032-15.808 8.825-24.476 16.162-32.325-40.107-.51-71.983 12.695-100.01 32.325z" fill="#a17f01" stroke="#000" stroke-width="8.5"/><path d="M332.25 685.31c3.928 20.952 14.375 37.558 42.426 42.427 57.82-57.595 101.56-117.54 143.44-177.79-4.907-18.471-21.432-27.26-42.426-32.325-44.1 43.517-91.271 97.267-143.44 167.69z" fill="#683c10" stroke="#000" stroke-linecap="round" stroke-linejoin="round" stroke-width="8.5"/><g stroke="#000" stroke-width="8.5"><path d="M744.1 509.796c6.098 2.287-.767-295.59-18.183-304.06-31.159-15.138-63.341 3.621-57.579 11.112 24.144 96.052 32.909 183.32 38.386 268.7 5.96 14.579 20.75 20.329 37.376 24.244z" fill="#dededc"/><path d="M667.47 214.516c23.168 7.11 43.371 6.438 58.929-6.429" fill="none"/></g><g stroke="#000" stroke-width="8.5"><path d="M759.819 324.02c0 14.596-17.109 26.429-38.214 26.429s-38.214-11.833-38.214-26.43 17.109-26.429 38.214-26.429 38.214 11.833 38.214 26.43z" fill="#f5d29c" stroke-linecap="round" stroke-linejoin="round"/><path d="M755.529 287.235c0 15.977-19.028 28.93-42.5 28.93s-42.5-12.953-42.5-28.93 19.028-28.929 42.5-28.929 42.5 12.952 42.5 28.93z" fill="#f5d29c" stroke-linecap="round" stroke-linejoin="round"/><path transform="matrix(1 0 0 .89339 459.819 28.888)" d="M290.71 238.57c0 13.413-11.673 24.286-26.071 24.286s-26.071-10.873-26.071-24.286 11.673-24.286 26.071-24.286 26.071 10.873 26.071 24.286z" fill="#f5d29c" stroke-linecap="round" stroke-linejoin="round"/><path d="M600.229 346.383c20.47-4.496 37.362 25.613 43.437 45.457 6.08-34.159 6.78-47.382 4.04-78.078-16.735-9.949-26.292-31.008-25.253-49.202 1.437-25.147 25.854-35.762 46.64-40.406 10.839-2.422 34.996 5.588 41.61 14.51 12.048 16.25 12.85 41.046 6.256 47.038-6.775 6.156-23.948 10.731-35.795 5.96 8.21 44.295 15.002 80.223 16.04 122.4.874 35.504-3.304 93.818-14.387 98.208-22.067 8.741-43.972-9.25-56.323-29.518-18.662-30.623-32.794-61.428-38.386-101.02-1.742-12.336-.047-32.683 12.122-35.355z" fill="#f5d29c"/><path d="M643.399 385.443c-1.031 28.076-7.082 45.225-15.714 60M664.819 249.733c.841 21.238 8.055 32.917 16.429 42.857M661.249 312.593c-4.543 2.427-9.267 3.043-14.286.714" fill="#00698f" stroke-linecap="round"/></g><g stroke="#000" stroke-width="8.5"><path d="M709.15 745.601c-11.363 124.935-58.472 222.76-105.224 218.508s-75.44-108.98-64.078-233.905 58.472-222.76 105.223-218.508 75.44 108.98 64.078 233.905z" fill="#dededc" stroke-linecap="round" stroke-linejoin="round"/><path transform="matrix(.93967 .08304 -.08816 .99759 541.85 4.76)" d="M197.14 702.14c0 44.577-15.99 80.714-35.714 80.714s-35.714-36.137-35.714-80.714 15.99-80.714 35.714-80.714 35.714 36.137 35.714 80.714z" fill="#aaa" stroke-linecap="round" stroke-linejoin="round"/><path d="M606.94 962.89c12.556 6.342 32.724 13.163 54.286 15 46.277-2.874 81.121 6.967 108.57 7.858 49.165-39.289 90.593-97.493 105.71-220-.84-95.63-17.822-180.5-64.286-245.71-57.066 5.76-101.76-13.337-157.86-7.143 35.003 36.691 64.485 88.685 57.143 222.14-11.172 108.51-28.405 191.64-103.57 227.86z" fill="#dededc"/></g><g stroke="#000" stroke-width="8.5"><path d="M324.87 353.945c-47.788-14.822-75.994 14.718-93.439 43.942-21.251 35.599-48.376 83.466-40.911 124.25 5.926 32.374 36.047 43.173 63.64 61.114 10.561 6.867 34.945 20.608 55.801 26.402 15.882 4.412 30.567 1.882 30.567 1.882.559 23.776-1.889 50.078 23.234 75.76 14.749 15.08 42.983 23.459 63.64 19.194 10.767-2.223 23.648-10.347 25.254-21.213 28.48-13.252 30.658-24.913 28.284-46.467 9.395-16.334 12.032-37.41-1.01-44.447-11.418-9.576-20.82 10.192-28.284 13.637-11.13 5.136-23.977-1.12-30.305-11.617-5.779-9.586-.979-22.757 5.469-31.906 4.77-6.77 6.622-11.671 15.08-23.255 1.604-2.198-12.136-12.575-25.6-10.5-10.742 1.657-20.959 13.91-34.85 9.092-14.185-25.401-35.661-47.807-46.972-61.114 14.475-17.072 40.872-47.823 36.366-74.246-3.684-21.598-25.035-44.017-45.962-50.508z" fill="#f9d394"/><path d="M418.568 642.965c21.413 12.665 41.181 5.599 60.714-4.286M402.14 675.815c5.345 6.289 15.656 11.254 49.286 10" fill="none" stroke-linecap="round"/></g><g stroke="#000" stroke-width="8.5"><path d="M260.36 241.973c2.205-45.788 21.122-53.083 37.857-54.286 20.604-1.48 39.653 17.596 37.143 41.429-2.45 23.26-12.415 49.325-40.714 52.857-23.522 2.936-35.348-17.945-34.286-40z" fill="#fed097"/><path d="M283.38 251.133c-.213-6.728 4.844-19.011 16.097-18.24 5.284.362 9.85 6.961 9.156 15.67-.688 8.626-4.21 17.935-14.033 17.396-8.052-.442-10.91-5.077-11.22-14.827z" fill="none"/><path d="M283.08 215.243c10.025-7.217 22.336-11.767 40.406-9.597" fill="none" stroke-linecap="round" stroke-linejoin="round"/></g><g stroke="#000" stroke-width="8.5"><path d="M537.1 147.703c18.237.207 39.903 14.895 42.857 47.857 2.423 27.043-18.259 38.345-37.143 39.286-25.503 1.27-47.732-16.013-49.286-34.286-2.163-25.43 11.663-53.22 43.571-52.857z" fill="#fecf99"/><path d="M517 201.263c-.202-10.946 8.586-18.772 19.698-19.193 8.04-.305 19.993 7.406 20.203 22.728.127 9.234-11.175 17.583-21.718 17.678-8.892.08-17.91-6.41-18.183-21.213z" fill="none"/><path d="M548.2 168.773c-19.645-10.468-26.983-1.792-34.85 6.06" fill="none" stroke-linecap="round"/></g><path d="M378.56 233.55c-11.124 5.033-20.739 12.329-47.477-6.06-34.191 35.716-52.907 77.804-41.416 132.33l19.193-22.223c7.624 38.311-6.671 70.903 58.589 124.25-2.48-10.714-6.815-20.499 1.01-36.366 28.694 39.016 66.043 58.361 124.25 30.305 40.153-24.01 75.79-50.529 91.924-87.883 6.087-18.851 5.361-39.064-2.02-60.609l13.132 7.071c-.53-34 .045-68.4-29.294-91.924-19.986-14.557-44.365-22.085-77.782-15.152-3.116 30.242-22.185 48.406-49.064 52.877-22.741 3.783-49.411-4.235-61.043-26.613z" fill="#c27d04" stroke="#000" stroke-width="8.5"/><path d="M370.47 256.79c-10.417 12.544-16.122 29.426 0 48.488M363.4 272.95c25.887 25.125 47.532 37.645 66.616 38.839 48.944 3.063 58.83-20.812 82.887-48.94" fill="none" stroke="#000" stroke-linecap="round" stroke-width="8.5"/><path d="M365.42 122.44c-31.933.427-50.217 27.968-52.528 53.539-3.83 42.382 24.998 62.387 47.477 63.64 35.312 1.968 61.432-37.896 60.609-61.62-1.287-37.106-32.634-55.863-55.558-55.557z" fill="#fff" stroke="#000" stroke-width="8.5"/><path d="M374.517 172.44c0 5.857-4.522 10.606-10.101 10.606s-10.101-4.749-10.101-10.607 4.522-10.606 10.1-10.606 10.102 4.749 10.102 10.606z"/><path d="M461.39 104.25c30.288-.835 53.526 26.884 55.558 53.539 2.413 31.65-24.074 48.29-44.447 49.497-24.8 1.47-56.294-23.575-55.558-58.59.433-20.604 17.898-43.713 44.447-44.446z" fill="#fff" stroke="#000" stroke-width="8.5"/><path d="M479.567 150.196c0 5.858-4.522 10.607-10.101 10.607s-10.101-4.749-10.101-10.607 4.522-10.606 10.1-10.606 10.102 4.749 10.102 10.606z"/><path d="M376.89 219.54c.959-22.087 15.198-44.676 48.571-48.57 31.133-3.633 57.314 12.414 62.857 37.143 4.17 18.597-6.974 47.54-48.571 54.286-25.146 4.077-64.188-12.206-62.857-42.857z" fill="#fdd099" stroke="#000" stroke-width="8.5"/><g stroke="#000"><path d="M449.81 479.19c1.112-35.902 40.946-74.565 76.785-72.153 53.444 3.597 102.67 70.768 95.792 123.89-4.11 31.725-43.892 52.233-75.745 49.275-48.992-4.549-98.355-51.832-96.832-101.01z" fill="#c2cab7" stroke-width="8.5"/><path d="M505.19 566.54c-6.87-1.462-12.436.34-22.857-10-3.475-65.752 35.033-105.45 86.429-137.14 12.352 4.077 20.262 12.596 25 24.287-49.32 18.575-82.979 54.852-88.571 122.86z" fill="#e0d4b3" stroke-linejoin="round" stroke-width="8.5"/><path d="M475.54 552.51c-5.787-4.437-11.931-5.384-16.747-19.314 28.793-59.88 84.593-77.465 148.68-82.068 9.698 9.26 13.025 20.429 11.804 32.959-55.725-6.08-105.27 10.693-143.74 68.424z" fill="#e0d4b3" stroke-linejoin="round" stroke-width="8.759"/></g><g fill="#ede7cf" stroke="#000" stroke-linejoin="round"><path d="M447.407 539.845c1.911-6.676 6.173-11 12.122-13.637 15.275 17.945 33.893 31.71 54.548 42.93-1.502 8.193-7.437 12.84-15.657 15.658-20.964-11.59-39.428-25.322-51.013-44.952z" stroke-width="8"/><path d="M443.508 554.535c2.068-5.063 5.775-8.084 10.659-9.64 10.423 15.358 23.821 27.731 39.032 38.284-1.878 6.286-6.922 9.416-13.6 10.918-15.421-10.869-28.702-23.203-36.091-39.563z" stroke-width="6.301"/></g><path d="M380.11 975.33c7.34-17.175-1.557-27.514 28.571-54.285 10.958.889 16.245 6.03 16.429 15 2.168-6.547 8.408-10.185 20-10 12.034 7.703 15.044 16.694 17.857 25.714 0 0-8.224 21.708-6.429 26.428 1.15 3.02-31.137-16.141-35.714-17.857-12.055 9.17-23.47 20.099-40.714 15zM501.54 991.74c-4.351-11.151-12.156-21.872-6.428-34.285 4.142-17.873 22.04-20.846 42.143-21.43 13.035 3.99 8.614 13.796 10.714 21.43 6.007-6.446 14.18-4.23 22.857 0 9.863-2.69 21.86 22.124 15.714 27.857-2.468 2.302-73.09 10.34-85 6.428zM575.83 1061.04c-13.947 1.229-24.593-29.276-5.714-37.142l39.286-7.857 21.429-10c12.77 3.393 17.895 13.499 21.428 25 1.353 9.922-10.34 14.626-22.143 19.286 7.021 8.786 4.948 17.19 5.714 25.714 2.557 1.023-23.407 19.156-30 8.571-6.561-10.534-29.153-24.926-30-23.57zM876.54 953.18c-4.27 4.881-27.419-7.228-22.143-17.142 11.789-22.153 46.679-35.103 47.143-30 14.455 9.01 21.218 19.729 23.572 31.429 4.07 7.246 3.745 14.98-4.286 23.57-17.106 2.069-31.197-1.891-44.286-7.856z" fill="#e5e3e4" stroke="#000" stroke-linecap="round" stroke-linejoin="round" stroke-width="8.5"/></svg>