<svg viewBox="0 0 800 392.063" xmlns="http://www.w3.org/2000/svg"><defs><clipPath id="i"><path d="M-66.285-456.16l31.513 8.663.623 13.759-31.726-9.152z"/></clipPath><clipPath id="m"><path d="M-106.6-476.1l11.133 3.52-.002 4.595 12.567 4.124-.196 16.345-36.044-11.445.196-16.443 12.444 3.894"/></clipPath><filter id="c"><feGaussianBlur stdDeviation="6.267"/></filter><filter id="e"><feGaussianBlur stdDeviation="1.114"/></filter><filter id="f"><feGaussianBlur stdDeviation="1.127"/></filter><filter id="d"><feGaussianBlur stdDeviation="2.772"/></filter><filter id="h"><feGaussianBlur stdDeviation=".57"/></filter><filter id="k"><feGaussianBlur stdDeviation="4.729"/></filter><filter id="a" x="-.065" y="-.209" width="1.13" height="1.417"><feGaussianBlur stdDeviation="20.783"/></filter><linearGradient id="g" x1="909.62" x2="872.07" y1="-524.02" y2="-402.59" gradientUnits="userSpaceOnUse"><stop stop-color="#b2b2b2" offset="0"/><stop stop-color="#444" offset=".052"/><stop stop-color="#686b6b" offset=".945"/><stop stop-color="#1b1b1b" offset="1"/></linearGradient><linearGradient id="n" x1="-63.178" x2="-63.315" y1="-341.03" y2="-344.4" gradientUnits="userSpaceOnUse"><stop stop-color="#969696" offset="0"/><stop stop-opacity="0" offset="1"/></linearGradient><linearGradient id="l" x1="-475.27" x2="-245.81" y1="-491.95" y2="-419.25" gradientUnits="userSpaceOnUse"><stop stop-color="#999" offset="0"/><stop stop-color="#999" stop-opacity="0" offset="1"/></linearGradient><linearGradient id="j" x1="-312.62" x2="-314.66" y1="-299.7" y2="-292.28" gradientUnits="userSpaceOnUse"><stop stop-color="#767979" offset="0"/><stop stop-color="#353535" stop-opacity=".429" offset="1"/></linearGradient><linearGradient id="b" x1="-135.18" x2="-280.48" y1="-272.96" y2="-265.51" gradientUnits="userSpaceOnUse"><stop stop-color="#141417" offset="0"/><stop stop-color="#cbcbcb" stop-opacity=".965" offset=".636"/><stop stop-color="#2a2a2a" offset="1"/></linearGradient></defs><path transform="matrix(.90127 0 0 .80238 473.78 555.867)" d="M-475.8-371.23l437.43-121.89 350.44 103.14c-121.66 47.804-233.35 99.811-382.7 135.95l-84.518-14.81-140.42-53.5z" filter="url(#a)"/><path d="M-421.62-326.86l-.406-11.843 321.21-80.764 190.62 39.271c-2.25 13.769-.02-1.209-2.281 12.324-.226 1.355-1.798 2.277-6.203 3.79l-291.69 96.43c-11 3.205-17.976 3.733-29.845.054z" fill="url(#b)" transform="translate(623.78 596.21)"/><path d="M201.48 258.62l-.066-1.99 321.55-93.366 183.73 48.642c5.439 1.35 8.824-.61 7.983 3.627-.267 1.347-1.798 2.277-6.203 3.79l-295.06 97.104c-10.999 3.206-17.976 3.733-29.845.054z" fill="#1a1a1a"/><path d="M201.48 256.59l321.48-95.355 183.05 48.94c12.147 3.016 10.437 4.38 2.46 7.118l-295.06 97.104c-10.998 3.206-17.975 3.734-29.844.055z" fill="#4d4d4d"/><path d="M537.211 171.2l112.22 31.03-4.144 3.87-275.47 84.858-12.526-1.843-105.06-31.16z" fill="#333"/><path transform="translate(252.56 425.58) scale(.33713)" d="M831.97-744.97c-1.762.014-3.528.216-4.875.625l-33.469 10.156c-2.695.818-2.676 2.1.031 2.875l29.156 8.344c2.707.775 7.056.755 9.75-.063l33.47-10.156c2.694-.818 2.675-2.1-.032-2.875l-29.156-8.375c-1.354-.388-3.113-.545-4.875-.531zm44.312 12.656c-2.04.016-4.065.277-5.625.75l-35.219 10.688c-3.12.947-3.103 2.414.031 3.312l33.75 9.688c3.135.898 8.193.853 11.312-.094l35.22-10.688c3.12-.947 3.103-2.445-.032-3.344l-33.781-9.656c-1.567-.449-3.616-.672-5.656-.656zm-92.25 1.875c-1.762.014-3.496.216-4.844.625l-33.5 10.156c-2.694.818-2.676 2.1.031 2.875l29.156 8.375c2.708.776 7.056.724 9.75-.094l33.47-10.156c2.694-.818 2.707-2.1 0-2.875l-29.157-8.344c-1.353-.387-3.143-.576-4.906-.562zm142.47 12.5c-2.04.016-4.065.277-5.625.75l-35.219 10.688c-3.12.947-3.135 2.446 0 3.344l33.781 9.656c3.135.898 8.161.853 11.281-.094l35.219-10.688c3.12-.947 3.103-2.414-.031-3.312l-33.75-9.688c-1.568-.449-3.616-.672-5.656-.656zm-101.38 1.156c-2.04.016-4.065.277-5.625.75l-77.031 23.375c-3.12.947-3.134 2.415 0 3.313l33.781 9.687c3.135.898 8.161.853 11.281-.094l77.031-23.375c3.12-.946 3.103-2.445-.031-3.343l-33.75-9.657c-1.568-.449-3.616-.672-5.656-.656zm-89 .875c-1.762.014-3.528.248-4.875.656l-33.469 10.156c-2.695.818-2.676 2.1.031 2.875l29.156 8.344c2.707.776 7.056.756 9.75-.062l33.47-10.156c2.694-.818 2.675-2.1-.032-2.875l-29.156-8.375c-1.354-.388-3.113-.577-4.875-.563zm240.59 12.375c-2.04.016-4.096.245-5.656.719l-35.22 10.688c-3.12.947-3.102 2.446.032 3.344l33.75 9.656c3.135.898 8.192.884 11.312-.063l35.219-10.719c3.12-.946 3.103-2.414-.031-3.312l-33.781-9.688c-1.567-.449-3.584-.64-5.625-.625zm-101.38 1.125c-2.04.016-4.096.277-5.656.75L815.55-685.22c-3.12.947-3.103 2.415.031 3.313l33.75 9.687c3.135.898 8.161.853 11.281-.094l54.156-16.438c3.12-.946 3.103-2.414-.031-3.312l-33.781-9.688c-1.567-.449-3.584-.672-5.625-.656zm-187.16 1.063c-1.762.013-3.496.216-4.844.625l-33.5 10.156c-2.694.817-2.676 2.1.031 2.875l29.156 8.375c2.708.775 7.056.724 9.75-.094l33.47-10.156c2.694-.818 2.707-2.1 0-2.875l-29.157-8.344c-1.353-.388-3.143-.576-4.906-.562zm338.72 12.188c-2.04.016-4.065.245-5.625.718l-35.219 10.72c-3.12.946-3.134 2.414 0 3.312l33.781 9.687c3.135.899 8.161.854 11.281-.093l35.219-10.688c3.12-.947 3.103-2.446-.031-3.344l-33.75-9.656c-1.567-.45-3.616-.672-5.656-.657zm-295.56.843c-2.04.016-4.065.246-5.625.72l-35.219 10.687c-3.12.947-3.103 2.446.031 3.344l33.75 9.656c3.135.898 8.161.885 11.281-.062l35.22-10.688c3.12-.947 3.134-2.446 0-3.344l-33.782-9.688c-1.567-.449-3.615-.64-5.656-.625zm194.19.313c-2.04.016-4.065.245-5.625.719l-89.969 27.312c-3.12.947-3.134 2.414 0 3.312l33.781 9.688c3.135.898 8.161.853 11.281-.094l89.969-27.312c3.12-.947 3.135-2.414 0-3.313l-33.781-9.687c-1.567-.449-3.616-.641-5.656-.625zm-285.25 1.187c-1.762.014-3.528.248-4.875.657l-33.469 10.156c-2.695.817-2.676 2.1.031 2.875l29.156 8.343c2.707.776 7.056.756 9.75-.062l33.47-10.188c2.694-.818 2.675-2.1-.032-2.875l-29.156-8.344c-1.354-.388-3.113-.576-4.875-.562zm164.97 5.688c-2.04.016-4.065.245-5.625.719l-35.25 10.719c-3.12.947-3.103 2.414.031 3.312l33.781 9.688c3.135.898 8.161.853 11.281-.094l35.22-10.688c3.12-.947 3.103-2.446-.032-3.344l-33.75-9.656c-1.567-.449-3.616-.672-5.656-.656zm269.97 6.062c-1.39.011-2.782.178-3.844.5l-38.812 11.781c-2.123.645-2.133 1.67 0 2.282l23 6.562c2.134.611 5.564.582 7.688-.062l38.812-11.781c2.123-.645 2.102-1.64-.031-2.25l-22.97-6.594c-1.066-.306-2.454-.449-3.843-.438zm-99.469 1.438c-2.04.016-4.096.245-5.656.719l-117.84 35.78c-3.12.948-3.103 2.415.031 3.313l33.781 9.688c3.135.898 8.161.853 11.281-.094l117.84-35.75c3.12-.947 3.103-2.446-.031-3.344l-33.75-9.656c-1.567-.449-3.616-.672-5.656-.656zm-295.97.969c-2.04.016-4.065.245-5.625.718l-35.219 10.688c-3.12.947-3.134 2.446 0 3.344l33.781 9.656c3.135.898 8.161.854 11.281-.093l35.219-10.688c3.12-.947 3.103-2.415-.031-3.313l-33.75-9.687c-1.567-.45-3.616-.641-5.656-.625zm-87.438.406c-1.762.014-3.528.216-4.875.625l-33.469 10.156c-2.695.818-2.676 2.1.031 2.875l29.156 8.344c2.707.775 7.056.755 9.75-.063l33.47-10.156c2.694-.818 2.706-2.1 0-2.875l-29.189-8.375c-1.353-.388-3.112-.545-4.875-.531zm161.34 6.781c-2.04.016-4.096.245-5.656.719l-35.22 10.688c-3.12.947-3.102 2.446.032 3.344l33.781 9.656c3.135.898 8.161.884 11.281-.063l35.219-10.688c3.12-.947 3.103-2.445-.031-3.343l-33.75-9.688c-1.567-.449-3.616-.64-5.656-.625zm357.12.594c-1.389.01-2.782.209-3.844.531l-38.813 11.781c-2.123.645-2.102 1.639.031 2.25l22.97 6.594c2.133.611 5.563.582 7.687-.063l38.812-11.78c2.124-.645 2.134-1.67 0-2.282l-23-6.562c-1.067-.306-2.455-.48-3.844-.469zm-87.188 5.469c-1.389.01-2.75.177-3.812.5l-38.844 11.78c-2.124.645-2.103 1.64.03 2.25l22.97 6.594c2.133.612 5.564.583 7.687-.062l38.844-11.781c2.124-.645 2.103-1.639-.03-2.25l-22.97-6.594c-1.067-.305-2.486-.448-3.875-.437zm-479.19 1.687c-1.762.014-3.528.216-4.875.625l-33.469 10.156c-2.695.818-2.676 2.1.031 2.875l29.156 8.375c2.707.776 7.056.724 9.75-.094l33.47-10.156c2.694-.817 2.675-2.099-.032-2.875l-29.156-8.343c-1.354-.388-3.113-.577-4.875-.563zm83.781.688c-2.04.016-4.096.276-5.656.75l-35.22 10.688c-3.12.947-3.102 2.414.032 3.312l33.781 9.688c3.135.898 8.161.853 11.281-.094l35.219-10.688c3.12-.947 3.103-2.414-.031-3.313l-33.75-9.687c-1.567-.449-3.616-.672-5.656-.656zm191 1.28c-2.04.017-4.065.277-5.625.75l-35.25 10.689c-3.12.947-3.103 2.414.031 3.312l33.781 9.688c3.135.898 8.161.853 11.281-.094l35.22-10.688c3.12-.947 3.103-2.446-.032-3.344l-33.75-9.656c-1.567-.449-3.616-.672-5.656-.656zm-117.09 5.938c-2.04.016-4.096.246-5.656.72l-35.22 10.687c-3.12.947-3.102 2.446.032 3.344l33.781 9.656c3.135.898 8.161.853 11.281-.094l35.219-10.688c3.12-.946 3.103-2.414-.031-3.312l-33.781-9.688c-1.567-.449-3.584-.64-5.625-.625zm357.12.594c-1.389.011-2.782.178-3.844.5l-38.812 11.781c-2.124.645-2.133 1.67 0 2.281l23 6.594c2.134.611 5.564.582 7.688-.062l38.813-11.781c2.123-.645 2.102-1.67-.031-2.282l-22.97-6.593c-1.066-.306-2.454-.449-3.843-.438zm-87.188 5.469c-1.389.01-2.782.178-3.844.5l-38.812 11.78c-2.124.645-2.102 1.64.031 2.25l22.97 6.595c2.133.611 5.563.582 7.687-.063l38.812-11.78c2.124-.645 2.134-1.67 0-2.282l-23-6.562c-1.067-.306-2.455-.449-3.844-.438zm-475.56.562c-1.762.014-3.528.248-4.875.657l-33.469 10.156c-2.695.817-2.676 2.1.031 2.875l29.156 8.343c2.707.776 7.056.756 9.75-.062l33.47-10.156c2.694-.818 2.706-2.1 0-2.875l-29.189-8.375c-1.353-.388-3.112-.576-4.875-.563zm80.156 1.813c-2.04.016-4.096.276-5.656.75l-35.22 10.688c-3.12.947-3.102 2.414.032 3.312l33.781 9.688c3.135.898 8.161.853 11.281-.094l35.219-10.688c3.12-.947 3.103-2.445-.031-3.344l-33.75-9.656c-1.567-.449-3.616-.672-5.656-.656zm191 1.281c-2.04.016-4.096.245-5.656.719l-35.22 10.719c-3.12.947-3.102 2.414.032 3.312l33.781 9.688c3.135.898 8.161.853 11.281-.094l35.219-10.688c3.12-.947 3.103-2.446-.031-3.344l-33.75-9.656c-1.567-.449-3.616-.672-5.656-.656zm-117.09 5.906c-2.04.016-4.096.277-5.656.75l-35.22 10.688c-3.12.947-3.102 2.415.032 3.313l33.75 9.687c3.135.898 8.192.854 11.312-.093l35.219-10.688c3.12-.947 3.103-2.415-.031-3.313l-33.781-9.687c-1.567-.45-3.584-.673-5.625-.657zm357.12.625c-1.389.011-2.782.178-3.844.5l-38.813 11.781c-2.123.645-2.133 1.67 0 2.282l23 6.562c2.134.611 5.564.582 7.688-.062l38.812-11.781c2.124-.645 2.102-1.64-.031-2.25l-22.97-6.594c-1.066-.306-2.454-.449-3.843-.438zm-166.12.657c-2.04.015-4.096.276-5.656.75l-35.22 10.688c-3.12.947-3.102 2.414.032 3.312l33.75 9.688c3.135.898 8.192.853 11.312-.094l35.219-10.688c3.12-.947 3.103-2.446-.031-3.344l-33.781-9.656c-1.567-.45-3.584-.672-5.625-.656zm-392.97 4.28c-1.762.015-3.528.217-4.875.626l-33.469 10.156c-2.695.818-2.676 2.1.031 2.875l29.156 8.375c2.707.775 7.056.724 9.75-.094l33.47-10.156c2.694-.818 2.675-2.1-.032-2.875l-29.156-8.344c-1.354-.388-3.113-.576-4.875-.562zm472.44 1.22c-2.04.015-4.096.276-5.656.75l-35.22 10.688c-3.12.947-3.102 2.414.032 3.312l33.781 9.688c3.135.898 8.161.853 11.281-.094l35.219-10.688c3.12-.947 3.103-2.446-.031-3.344l-33.75-9.656c-1.567-.45-3.616-.672-5.656-.656zm-395.94 1.687c-2.04.016-4.096.245-5.656.719l-35.22 10.719c-3.12.947-3.102 2.414.032 3.312l33.75 9.688c3.135.898 8.192.853 11.312-.094l35.219-10.688c3.12-.947 3.103-2.446-.031-3.344l-33.781-9.656c-1.567-.449-3.584-.672-5.625-.656zm191 1.281c-2.04.016-4.096.246-5.656.719l-35.22 10.688c-3.12.947-3.102 2.446.032 3.344l33.781 9.656c3.135.898 8.161.884 11.281-.062l35.219-10.688c3.12-.947 3.103-2.446-.031-3.344l-33.781-9.688c-1.567-.449-3.584-.64-5.625-.625zm-117.12 5.906c-2.04.016-4.065.277-5.625.75l-35.219 10.688c-3.12.947-3.103 2.415.031 3.313l33.75 9.688c3.135.898 8.193.853 11.312-.094l35.22-10.688c3.12-.947 3.103-2.446-.032-3.344l-33.781-9.656c-1.567-.45-3.616-.673-5.656-.657zm191 1.282c-2.04.016-4.065.245-5.625.718l-35.219 10.688c-3.12.947-3.103 2.446.031 3.344l33.75 9.688c3.135.898 8.193.853 11.312-.094l35.22-10.688c3.12-.947 3.103-2.446-.032-3.344l-33.781-9.656c-1.567-.449-3.616-.672-5.656-.656zm-389.31 3.156c-1.762.014-3.528.247-4.875.656l-33.469 10.156c-2.695.818-2.676 2.1.031 2.875l29.156 8.344c2.707.776 7.056.755 9.75-.063l33.47-10.156c2.694-.817 2.706-2.13 0-2.906l-29.189-8.344c-1.353-.387-3.112-.576-4.875-.562zm468.81 2.344c-2.04.016-4.096.245-5.656.718l-35.22 10.72c-3.12.946-3.102 2.414.032 3.312l33.75 9.687c3.135.899 8.192.854 11.312-.093l35.219-10.688c3.12-.947 3.103-2.446-.031-3.344l-33.781-9.656c-1.567-.45-3.584-.672-5.625-.656zm-395.94 1.687c-2.04.016-4.096.245-5.656.719l-35.22 10.688c-3.12.947-3.102 2.446.032 3.344l33.75 9.656c3.135.898 8.192.884 11.312-.063l35.219-10.688c3.12-.946 3.103-2.445-.031-3.343l-33.781-9.688c-1.567-.449-3.584-.64-5.625-.625zm191 1.281c-2.04.016-4.096.246-5.656.72l-35.22 10.687c-3.12.947-3.102 2.446.032 3.344l33.75 9.656c3.135.898 8.192.853 11.312-.094l35.219-10.688c3.12-.946 3.103-2.414-.031-3.312l-33.781-9.688c-1.567-.449-3.584-.64-5.625-.625zm-117.12 5.907c-2.04.015-4.065.245-5.625.718l-35.219 10.72c-3.12.946-3.103 2.414.031 3.312l33.75 9.687c3.135.898 8.161.854 11.281-.093l35.22-10.688c3.12-.947 3.134-2.446 0-3.344l-33.782-9.656c-1.567-.45-3.615-.673-5.656-.657zm191 1.28c-2.04.017-4.065.246-5.625.72l-35.219 10.688c-3.12.946-3.103 2.445.031 3.343l33.75 9.657c3.135.898 8.161.884 11.281-.063l35.22-10.688c3.12-.947 3.134-2.446 0-3.344l-33.782-9.687c-1.567-.45-3.615-.641-5.656-.625zm-385.66 2.063c-1.762.014-3.528.216-4.875.625l-33.469 10.156c-2.695.818-2.707 2.1 0 2.875l29.188 8.344c2.707.776 7.055.755 9.75-.062l33.469-10.156c2.695-.818 2.676-2.1-.031-2.875l-29.156-8.344c-1.354-.388-3.113-.576-4.875-.563zm464.16 3.72c-2.04.015-4.096.276-5.656.75l-35.22 10.687c-3.12.947-3.102 2.446.032 3.344l33.75 9.656c3.135.898 8.192.853 11.312-.094l35.219-10.688c3.12-.947 3.103-2.414-.031-3.312l-33.781-9.688c-1.567-.449-3.584-.672-5.625-.656zm-394.97 1.405c-2.04.016-4.065.246-5.625.72l-35.219 10.687c-3.12.947-3.103 2.446.031 3.344l33.75 9.656c3.135.898 8.161.853 11.281-.094l35.25-10.688c3.12-.947 3.104-2.414-.031-3.312l-33.781-9.688c-1.567-.449-3.616-.64-5.656-.625zm191 1.25c-2.04.016-4.065.277-5.625.75l-35.219 10.688c-3.12.947-3.103 2.415.031 3.313l33.75 9.687c3.135.898 8.193.853 11.312-.093l35.22-10.688c3.12-.947 3.103-2.415-.032-3.313l-33.781-9.687c-1.567-.45-3.616-.673-5.656-.657zm-117.09 5.938c-2.04.016-4.065.245-5.625.719l-35.219 10.688c-3.12.946-3.134 2.445 0 3.343l33.781 9.657c3.135.898 8.161.884 11.281-.063l35.219-10.688c3.12-.947 3.103-2.446-.031-3.344l-33.75-9.687c-1.567-.45-3.616-.641-5.656-.625zm191 1.281c-2.04.016-4.065.245-5.625.719l-35.219 10.688c-3.12.947-3.134 2.445 0 3.344l33.781 9.656c3.135.898 8.161.853 11.281-.094l35.219-10.688c3.12-.947 3.103-2.414-.031-3.312l-33.75-9.688c-1.567-.449-3.616-.64-5.656-.625zm-382.03.938c-1.762.013-3.528.216-4.875.625l-33.469 10.156c-2.695.817-2.676 2.099.031 2.875l29.156 8.375c2.707.775 7.056.724 9.75-.094l33.47-10.156c2.694-.818 2.675-2.1-.032-2.875l-29.156-8.344c-1.354-.388-3.113-.576-4.875-.563zm459.91 5.03c-2.04.017-4.065.277-5.625.75l-269.16 81.689c-3.12.947-3.134 2.414 0 3.312l33.781 9.688c3.135.898 8.161.853 11.281-.094l269.16-81.688c3.12-.947 3.135-2.446 0-3.344l-33.781-9.656c-1.567-.45-3.616-.672-5.656-.656zm-394.34 1.188c-2.04.016-4.065.277-5.625.75l-35.219 10.688c-3.12.947-3.103 2.446.031 3.344l33.75 9.656c3.135.898 8.161.853 11.281-.093l35.22-10.688c3.12-.947 3.134-2.415 0-3.313l-33.782-9.688c-1.567-.449-3.615-.672-5.656-.656zm191 1.281c-2.04.016-4.065.277-5.625.75l-35.219 10.688c-3.12.947-3.103 2.415.031 3.313l33.75 9.687c3.135.898 8.161.854 11.281-.093l35.22-10.688c3.12-.947 3.134-2.446 0-3.344l-33.782-9.656c-1.567-.45-3.615-.672-5.656-.657zm-117.09 5.938c-2.04.016-4.096.245-5.656.719l-35.22 10.688c-3.12.947-3.102 2.445.032 3.343l33.781 9.657c3.135.898 8.161.853 11.281-.094l35.219-10.688c3.12-.947 3.103-2.414-.031-3.313l-33.75-9.687c-1.567-.45-3.616-.641-5.656-.625zm-187.38 1.094c-1.762.014-3.528.247-4.875.656l-33.469 10.156c-2.695.818-2.707 2.1 0 2.875l29.188 8.344c2.707.775 7.055.755 9.75-.063l33.469-10.156c2.695-.818 2.676-2.1-.031-2.875l-29.156-8.375c-1.354-.388-3.113-.576-4.875-.562zm378.38.156c-2.04.016-4.065.276-5.625.75l-35.25 10.688c-3.12.947-3.103 2.414.031 3.312l33.781 9.688c3.135.898 8.161.853 11.281-.094l35.22-10.688c3.12-.947 3.103-2.414-.032-3.312l-33.75-9.688c-1.567-.449-3.616-.672-5.656-.656zm-316.47 7.187c-2.04.016-4.065.277-5.625.75l-35.219 10.688c-3.12.947-3.134 2.415 0 3.313l33.781 9.687c3.135.899 8.161.854 11.281-.093l35.219-10.688c3.12-.947 3.103-2.446-.031-3.344l-33.75-9.656c-1.567-.45-3.616-.672-5.656-.656zm191 1.282c-2.04.016-4.065.245-5.625.718l-35.219 10.72c-3.12.946-3.134 2.414 0 3.312l33.781 9.687c3.135.898 8.161.854 11.281-.093l35.219-10.688c3.12-.947 3.103-2.446-.031-3.344l-33.75-9.656c-1.567-.45-3.616-.672-5.656-.657zm-117.09 5.906c-2.04.016-4.096.276-5.656.75l-35.22 10.688c-3.12.947-3.102 2.446.032 3.344l33.781 9.656c3.135.898 8.161.853 11.281-.094l35.219-10.688c3.12-.947 3.103-2.414-.031-3.312l-33.75-9.688c-1.567-.449-3.616-.672-5.656-.656zm-183.75.031c-1.762.014-3.528.216-4.875.625l-33.469 10.156c-2.695.818-2.676 2.1.031 2.875l29.156 8.375c2.707.776 7.056.724 9.75-.094l33.47-10.156c2.694-.817 2.675-2.099-.032-2.875l-29.156-8.343c-1.354-.388-3.113-.577-4.875-.563zm374.75 1.25c-2.04.016-4.096.277-5.656.75l-35.22 10.688c-3.12.947-3.102 2.414.032 3.313l33.781 9.687c3.135.898 8.161.853 11.281-.094l35.219-10.688c3.12-.947 3.103-2.445-.031-3.343l-33.75-9.657c-1.567-.449-3.616-.672-5.656-.656zm-316.47 7.188c-2.04.015-4.096.276-5.656.75l-35.22 10.688c-3.12.946-3.102 2.414.032 3.312l33.781 9.688c3.135.898 8.161.853 11.281-.094l35.219-10.688c3.12-.947 3.103-2.446-.031-3.344l-33.75-9.656c-1.567-.45-3.616-.672-5.656-.656zm191 1.28c-2.04.017-4.096.246-5.656.72l-35.22 10.688c-3.12.946-3.102 2.445.032 3.343l33.781 9.657c3.135.898 8.161.884 11.281-.063l35.219-10.688c3.12-.947 3.103-2.446-.031-3.344l-33.75-9.687c-1.567-.45-3.616-.641-5.656-.625zm-297.19 4.813c-1.762.014-3.528.248-4.875.657l-33.469 10.156c-2.695.817-2.707 2.099 0 2.875l29.188 8.343c2.707.776 7.055.756 9.75-.062l33.469-10.156c2.695-.818 2.676-2.1-.031-2.875l-29.156-8.375c-1.354-.388-3.113-.576-4.875-.563zm180.09 1.094c-2.04.016-4.096.277-5.656.75l-35.22 10.688c-3.12.947-3.102 2.414.032 3.313l33.781 9.687c3.135.898 8.161.853 11.281-.094l35.219-10.688c3.12-.947 3.103-2.445-.031-3.343l-33.781-9.657c-1.567-.449-3.584-.672-5.625-.656zm191 1.281c-2.04.016-4.096.246-5.656.719l-35.22 10.719c-3.12.947-3.102 2.414.032 3.313l33.781 9.687c3.135.898 8.161.853 11.281-.094l35.219-10.688c3.12-.947 3.103-2.445-.031-3.343l-33.75-9.657c-1.567-.449-3.616-.672-5.656-.656zm-316.47 7.188c-2.04.016-4.096.245-5.656.719l-35.22 10.688c-3.12.946-3.102 2.445.032 3.343l33.781 9.688c3.135.898 8.161.853 11.281-.094l35.219-10.688c3.12-.947 3.103-2.446-.031-3.344l-33.75-9.687c-1.567-.45-3.616-.641-5.656-.625zm191 1.281c-2.04.016-4.096.245-5.656.719l-35.22 10.688c-3.12.947-3.102 2.445.032 3.344l33.781 9.656c3.135.898 8.161.853 11.281-.094l35.219-10.688c3.12-.947 3.103-2.414-.031-3.312l-33.75-9.688c-1.567-.449-3.616-.64-5.656-.625zm-293.56 3.719c-1.762.014-3.528.216-4.875.625l-33.469 10.156c-2.695.818-2.676 2.1.031 2.875l29.156 8.344c2.707.775 7.056.755 9.75-.063l33.47-10.156c2.694-.818 2.675-2.1-.032-2.875l-29.156-8.344c-1.354-.387-3.113-.576-4.875-.562zm176.47 2.187c-2.04.016-4.096.277-5.656.75l-35.22 10.688c-3.12.947-3.102 2.415.032 3.313l33.75 9.687c3.135.898 8.192.853 11.312-.093l35.219-10.688c3.12-.947 3.103-2.446-.031-3.344l-33.781-9.656c-1.567-.45-3.584-.673-5.625-.657zm191 1.281c-2.04.016-4.096.246-5.656.72l-35.22 10.687c-3.12.947-3.102 2.446.032 3.344l33.75 9.656c3.135.898 8.192.885 11.312-.062l35.219-10.688c3.12-.947 3.103-2.446-.031-3.344l-33.781-9.688c-1.567-.449-3.584-.64-5.625-.625zm-316.47 7.188c-2.04.016-4.096.245-5.656.719l-35.22 10.688c-3.12.947-3.102 2.445.032 3.344l33.75 9.656c3.135.898 8.192.853 11.312-.094l35.219-10.688c3.12-.947 3.103-2.414-.031-3.312l-33.781-9.688c-1.567-.449-3.584-.64-5.625-.625zm191 1.25c-2.04.016-4.096.276-5.656.75l-35.22 10.688c-3.12.947-3.102 2.446.032 3.344l33.781 9.656c3.135.898 8.161.853 11.281-.094l35.219-10.688c3.12-.947 3.103-2.414-.031-3.312l-33.781-9.688c-1.567-.449-3.584-.672-5.625-.656zm-289.94 2.625c-1.762.014-3.496.216-4.844.625L26.873-501.47c-2.694.818-2.707 2.1 0 2.875l29.156 8.344c2.707.775 7.056.724 9.75-.094l33.5-10.156c2.695-.818 2.676-2.1-.031-2.875l-29.156-8.344c-1.354-.388-3.144-.576-4.906-.562zm172.81 3.313c-2.04.015-4.065.245-5.625.718l-35.219 10.688c-3.12.947-3.103 2.446.031 3.344l33.75 9.656c3.135.898 8.161.885 11.281-.062l35.25-10.688c3.12-.947 3.104-2.446-.031-3.344l-33.781-9.687c-1.567-.45-3.616-.641-5.656-.625zm191 1.28c-2.04.017-4.065.246-5.625.72l-35.219 10.688c-3.12.946-3.103 2.445.031 3.343l33.75 9.657c3.135.898 8.193.853 11.312-.094l35.22-10.688c3.12-.947 3.103-2.415-.032-3.313l-33.781-9.687c-1.567-.45-3.616-.641-5.656-.625zm-316.47 7.157c-2.04.016-4.065.276-5.625.75l-35.219 10.688c-3.12.947-3.103 2.446.031 3.344l33.75 9.656c3.135.898 8.193.853 11.312-.094l35.22-10.688c3.12-.947 3.103-2.414-.032-3.312l-33.78-9.688c-1.568-.449-3.617-.672-5.657-.656zm191.03 1.281c-2.04.016-4.096.277-5.656.75l-35.22 10.688c-3.12.947-3.102 2.415.032 3.313l33.75 9.687c3.135.898 8.192.853 11.312-.094l35.219-10.688c3.12-.946 3.103-2.445-.031-3.343l-33.781-9.657c-1.567-.449-3.584-.672-5.625-.656zm-117.09 5.906c-2.04.016-4.096.277-5.656.75l-58.781 17.844c-3.12.947-3.103 2.415.031 3.313l33.75 9.687c3.135.898 8.192.854 11.312-.093l58.781-17.844c3.12-.947 3.103-2.415-.031-3.313l-33.75-9.687c-1.567-.45-3.616-.673-5.656-.657zm292.75.032c-2.04.015-4.096.245-5.656.718l-35.22 10.688c-3.12.947-3.102 2.446.032 3.344l33.781 9.688c3.135.898 8.161.853 11.281-.094l35.219-10.688c3.12-.947 3.103-2.446-.031-3.344l-33.75-9.656c-1.567-.45-3.616-.672-5.656-.656zm-101.78 1.25c-2.04.015-4.065.276-5.625.75l-35.219 10.688c-3.12.946-3.103 2.445.031 3.343l33.75 9.657c3.135.898 8.161.853 11.281-.094l35.22-10.688c3.12-.947 3.134-2.415 0-3.313l-33.782-9.687c-1.567-.45-3.615-.672-5.656-.656zm-124.84 8.28c-2.04.017-4.065.277-5.625.75l-74.719 22.657c-3.12.947-3.134 2.445 0 3.344l33.781 9.656c3.135.898 8.161.853 11.281-.094l74.719-22.656c3.12-.947 3.103-2.446-.031-3.344l-33.75-9.656c-1.567-.449-3.616-.672-5.656-.656zm175.06 6.126c-2.04.016-4.096.245-5.656.719l-35.22 10.688c-3.12.946-3.102 2.445.032 3.343l33.781 9.657c3.135.898 8.161.884 11.281-.063l35.219-10.719c3.12-.947 3.103-2.414-.031-3.312l-33.75-9.688c-1.567-.449-3.616-.64-5.656-.625zm-101.97 1.312c-2.04.016-4.065.246-5.625.719l-97.625 29.625c-3.12.947-3.103 2.446.031 3.344l33.781 9.687c3.135.898 8.161.853 11.281-.093l97.594-29.625c3.12-.947 3.135-2.446 0-3.344l-33.78-9.656c-1.568-.45-3.616-.673-5.657-.657zm50.406 14.312c-2.04.016-4.096.277-5.656.75l-35.22 10.688c-3.12.947-3.102 2.446.032 3.344l33.781 9.656c3.135.898 8.161.853 11.281-.093l35.219-10.688c3.12-.947 3.103-2.415-.031-3.313l-33.781-9.687c-1.567-.45-3.584-.673-5.625-.657zm-50.969 15.47c-2.04.015-4.065.276-5.625.75l-46.844 14.218c-3.12.947-3.103 2.415.031 3.313l33.75 9.687c3.135.898 8.161.853 11.281-.093l46.844-14.22c3.12-.946 3.104-2.414-.031-3.312l-33.75-9.687c-1.567-.45-3.616-.673-5.656-.657z" filter="url(#c)"/><path transform="translate(252.56 425.58) scale(.33713)" d="M-5.05-496.2l849.37-258.34-10.869 12.094-801.39 247.42z" fill="#1a1a1a" filter="url(#d)" opacity=".77"/><path transform="translate(252.56 425.58) scale(.33713)" d="M831.07-743.42l11.692-9.286 332.4 91.719-10.273 9.966z" fill="gray" filter="url(#e)" opacity=".487"/><path d="M533.047 173.755c-.594.005-1.19.073-1.644.21l-11.283 3.424c-.908.276-.902.708.01.97l9.83 2.813c.913.261 2.379.254 3.287-.022l11.283-3.424c.909-.275.903-.707-.01-.969l-9.83-2.823c-.456-.131-1.049-.184-1.643-.18zm14.939 4.266c-.688.005-1.37.094-1.896.253l-11.874 3.603c-1.052.32-1.046.814.01 1.117l11.379 3.266c1.057.303 2.762.288 3.814-.032l11.873-3.603c1.052-.319 1.046-.824-.01-1.127l-11.389-3.255c-.528-.152-1.219-.227-1.907-.222zm-31.1.633c-.595.005-1.18.072-1.633.21l-11.294 3.424c-.909.276-.902.708.01.97l9.83 2.823c.912.261 2.378.244 3.287-.032l11.283-3.424c.909-.275.913-.707 0-.969l-9.83-2.813c-.456-.13-1.06-.194-1.653-.19zm48.03 4.214c-.688.005-1.37.093-1.896.253l-11.873 3.603c-1.052.319-1.057.824 0 1.127l11.388 3.255c1.057.303 2.752.288 3.804-.031l11.873-3.603c1.052-.32 1.046-.814-.01-1.117l-11.379-3.266c-.528-.151-1.219-.227-1.907-.221zm-34.176.39c-.688.005-1.37.093-1.897.252l-25.97 7.88c-1.051.32-1.056.815 0 1.118l11.39 3.266c1.056.302 2.75.287 3.803-.032l25.97-7.88c1.051-.32 1.046-.825-.011-1.128l-11.378-3.255c-.529-.152-1.22-.227-1.907-.221zm-30.005.295c-.594.005-1.19.083-1.644.22l-11.283 3.425c-.908.275-.902.708.01.969l9.83 2.813c.913.261 2.379.255 3.287-.021l11.283-3.424c.909-.276.903-.708-.01-.97l-9.83-2.823c-.456-.13-1.049-.194-1.643-.19zm81.112 4.172c-.688.005-1.381.082-1.907.242l-11.874 3.603c-1.051.32-1.046.824.011 1.127l11.378 3.256c1.057.302 2.762.298 3.814-.021l11.873-3.614c1.052-.32 1.047-.814-.01-1.117l-11.389-3.266c-.528-.151-1.208-.216-1.896-.21zm-34.177.379c-.688.005-1.381.093-1.907.253l-18.247 5.541c-1.052.32-1.046.814.01 1.117l11.379 3.266c1.056.303 2.75.288 3.803-.032l18.258-5.541c1.052-.32 1.046-.814-.01-1.117l-11.39-3.266c-.528-.151-1.208-.227-1.896-.221zm-63.096.358c-.595.005-1.18.073-1.633.21l-11.294 3.425c-.909.275-.902.707.01.969l9.83 2.823c.912.262 2.378.245 3.287-.031l11.283-3.424c.909-.276.913-.708 0-.97l-9.83-2.812c-.456-.131-1.06-.195-1.653-.19zm114.193 4.109c-.688.005-1.37.082-1.897.242l-11.873 3.614c-1.052.319-1.057.814 0 1.116l11.389 3.266c1.056.303 2.751.288 3.803-.031l11.873-3.603c1.052-.32 1.046-.825-.01-1.128l-11.378-3.255c-.529-.151-1.22-.227-1.907-.221zm-99.644.284c-.688.005-1.37.083-1.896.243l-11.874 3.603c-1.052.319-1.046.824.01 1.127l11.379 3.255c1.057.303 2.751.299 3.803-.02l11.874-3.604c1.051-.32 1.056-.824 0-1.127l-11.39-3.266c-.528-.151-1.218-.216-1.906-.21zm65.467.106c-.688.005-1.37.082-1.897.242l-30.33 9.208c-1.053.32-1.058.814 0 1.117l11.388 3.266c1.057.302 2.751.287 3.803-.032l30.331-9.208c1.052-.32 1.057-.814 0-1.117l-11.388-3.266c-.529-.151-1.22-.216-1.907-.21zm-96.167.4c-.594.005-1.19.083-1.644.221l-11.283 3.424c-.908.276-.902.708.01.97l9.83 2.812c.913.262 2.379.255 3.287-.02l11.283-3.435c.909-.276.903-.708-.01-.97l-9.83-2.812c-.456-.131-1.049-.195-1.643-.19zm55.616 1.917c-.688.005-1.37.083-1.896.243l-11.884 3.613c-1.052.32-1.046.814.01 1.117l11.39 3.266c1.056.303 2.75.288 3.802-.032l11.874-3.603c1.052-.319 1.046-.824-.01-1.127l-11.379-3.255c-.528-.152-1.219-.227-1.907-.222zm91.015 2.044c-.468.004-.938.06-1.296.169l-13.085 3.972c-.715.217-.719.563 0 .769l7.755 2.212c.719.206 1.875.196 2.591-.02l13.085-3.973c.716-.217.709-.552-.01-.758l-7.744-2.223c-.36-.103-.827-.151-1.296-.148zm-33.534.485c-.688.005-1.38.083-1.907.242l-39.729 12.063c-1.052.32-1.046.814.01 1.117l11.39 3.266c1.056.303 2.751.288 3.803-.032l39.729-12.052c1.052-.32 1.046-.825-.01-1.127l-11.379-3.256c-.528-.151-1.219-.227-1.907-.221zm-99.78.326c-.688.005-1.37.083-1.897.243l-11.873 3.603c-1.052.32-1.057.824 0 1.127l11.389 3.256c1.056.302 2.751.287 3.803-.032l11.873-3.603c1.052-.32 1.046-.814-.01-1.117l-11.378-3.266c-.529-.151-1.22-.216-1.907-.21zm-29.478.137c-.595.005-1.19.073-1.644.211l-11.283 3.424c-.909.276-.902.708.01.97l9.83 2.812c.912.262 2.378.255 3.287-.02l11.283-3.425c.909-.275.913-.708 0-.969l-9.84-2.824c-.456-.13-1.05-.183-1.643-.179zm54.394 2.287c-.688.005-1.381.082-1.907.242l-11.874 3.603c-1.051.32-1.046.825.011 1.127l11.389 3.256c1.056.302 2.751.298 3.803-.021l11.873-3.603c1.052-.32 1.047-.825-.01-1.128l-11.378-3.266c-.529-.151-1.22-.216-1.907-.21zm120.398.2c-.468.004-.938.07-1.296.179l-13.085 3.972c-.716.217-.708.552.01.758l7.744 2.223c.72.206 1.876.196 2.592-.02l13.085-3.973c.716-.217.72-.563 0-.769l-7.754-2.212a4.78 4.78 0 0 0-1.296-.158zM597.66 202.6c-.468.004-.927.06-1.285.169l-13.095 3.972c-.716.217-.71.552.01.758l7.744 2.223c.719.206 1.875.197 2.591-.02l13.096-3.973c.716-.217.709-.552-.01-.758l-7.744-2.223c-.36-.103-.838-.151-1.307-.148zm-161.55.57c-.593.004-1.188.072-1.643.21l-11.283 3.424c-.908.276-.902.708.01.97l9.83 2.823c.913.261 2.379.244 3.287-.032l11.283-3.424c.909-.276.903-.708-.01-.97l-9.83-2.812c-.456-.13-1.049-.194-1.643-.19zm28.246.231c-.688.005-1.38.093-1.907.253l-11.873 3.603c-1.052.32-1.046.814.01 1.117l11.39 3.266c1.056.303 2.75.287 3.802-.032l11.874-3.603c1.052-.32 1.046-.814-.01-1.117l-11.379-3.266c-.528-.151-1.219-.226-1.907-.22zm64.392.432c-.688.005-1.37.093-1.896.253l-11.884 3.603c-1.052.32-1.046.814.01 1.117l11.39 3.266c1.056.303 2.75.287 3.803-.032l11.873-3.603c1.052-.32 1.046-.824-.01-1.127l-11.379-3.256c-.528-.151-1.219-.226-1.907-.22zm-39.476 2.002c-.688.005-1.38.083-1.907.242l-11.873 3.603c-1.052.32-1.046.825.01 1.128l11.39 3.255c1.056.303 2.75.288 3.803-.032l11.873-3.603c1.052-.319 1.046-.814-.01-1.116l-11.39-3.266c-.528-.152-1.208-.217-1.896-.211zm120.399.2c-.469.004-.938.06-1.296.169l-13.085 3.971c-.716.218-.72.563 0 .77l7.754 2.222c.72.207 1.876.197 2.592-.02l13.085-3.972c.716-.218.708-.563-.01-.77l-7.744-2.223c-.36-.103-.828-.15-1.296-.147zm-29.394 1.844c-.468.004-.938.06-1.296.168l-13.085 3.972c-.716.217-.709.553.01.759L573.65 215c.72.206 1.876.196 2.592-.021l13.085-3.972c.716-.218.72-.563 0-.77l-7.754-2.212c-.36-.103-.828-.151-1.296-.147zm-160.327.19c-.595.004-1.19.083-1.644.22l-11.283 3.425c-.909.275-.902.707.01.969l9.83 2.813c.912.261 2.378.254 3.287-.021l11.283-3.424c.909-.276.913-.708 0-.97l-9.84-2.823c-.456-.13-1.05-.194-1.643-.19zm27.023.61c-.688.005-1.381.094-1.907.253l-11.873 3.603c-1.052.32-1.047.814.01 1.117l11.389 3.266c1.057.303 2.751.288 3.803-.032l11.873-3.603c1.052-.319 1.047-.824-.01-1.127l-11.378-3.255c-.529-.152-1.22-.227-1.907-.222zm64.392.432c-.688.005-1.38.083-1.907.243l-11.873 3.613c-1.052.32-1.046.814.01 1.117l11.39 3.266c1.056.303 2.75.288 3.802-.032l11.874-3.603c1.052-.319 1.046-.824-.01-1.127l-11.379-3.255c-.528-.152-1.219-.227-1.907-.222zm-39.476 1.992c-.688.005-1.38.093-1.907.252l-11.873 3.603c-1.052.32-1.046.814.01 1.117l11.378 3.266c1.057.303 2.762.288 3.814-.031l11.874-3.604c1.052-.319 1.046-.814-.01-1.116l-11.39-3.266c-.528-.152-1.208-.227-1.896-.221zm120.398.21c-.468.004-.938.06-1.296.169l-13.084 3.972c-.716.217-.72.563 0 .769l7.754 2.212c.719.206 1.875.196 2.591-.021l13.085-3.972c.716-.217.709-.552-.01-.758l-7.744-2.223c-.36-.103-.827-.151-1.296-.148zm-56.006.221c-.688.005-1.38.094-1.907.253l-11.873 3.603c-1.052.32-1.046.814.01 1.117l11.379 3.266c1.056.303 2.762.288 3.814-.031l11.873-3.604c1.052-.319 1.046-.824-.01-1.127l-11.39-3.255c-.528-.152-1.208-.227-1.896-.222zM403.8 212.978c-.594.005-1.19.073-1.644.21l-11.283 3.425c-.908.275-.902.707.01.969l9.83 2.823c.913.262 2.379.244 3.287-.031l11.283-3.424c.909-.276.903-.708-.01-.97l-9.83-2.813c-.456-.13-1.049-.194-1.643-.19zm159.274.41c-.688.006-1.381.094-1.907.254l-11.874 3.603c-1.051.319-1.046.814.011 1.116l11.389 3.266c1.056.303 2.751.288 3.803-.031l11.873-3.603c1.052-.32 1.047-.825-.01-1.128l-11.378-3.255c-.529-.151-1.22-.227-1.907-.221zm-133.484.57c-.687.005-1.38.082-1.906.242l-11.874 3.614c-1.052.319-1.046.814.01 1.116l11.379 3.266c1.057.303 2.762.288 3.814-.031l11.873-3.603c1.052-.32 1.046-.825-.01-1.128l-11.39-3.255c-.528-.152-1.208-.227-1.896-.221zm64.393.432c-.688.005-1.381.082-1.907.242l-11.874 3.603c-1.051.32-1.046.824.01 1.127l11.39 3.256c1.056.302 2.751.298 3.803-.021l11.873-3.604c1.052-.319 1.047-.824-.01-1.127l-11.389-3.266c-.528-.151-1.208-.216-1.896-.21zm-39.487 1.99c-.688.006-1.37.094-1.896.254l-11.874 3.603c-1.052.319-1.046.814.01 1.116l11.38 3.266c1.056.303 2.761.288 3.813-.031l11.873-3.603c1.052-.32 1.046-.825-.01-1.128l-11.389-3.255c-.528-.151-1.219-.227-1.907-.221zm64.392.433c-.688.005-1.37.082-1.896.242l-11.873 3.603c-1.052.32-1.047.825.01 1.127l11.378 3.266c1.057.303 2.762.288 3.814-.031l11.873-3.603c1.052-.32 1.047-.825-.01-1.128l-11.389-3.255c-.528-.151-1.219-.227-1.907-.221zm-131.25 1.064c-.594.005-1.189.083-1.643.221l-11.283 3.424c-.909.276-.902.708.01.97l9.83 2.812c.912.262 2.378.255 3.287-.02l11.283-3.425c.909-.276.913-.718 0-.98l-9.84-2.813c-.456-.13-1.05-.194-1.643-.19zm158.052.79c-.688.005-1.38.083-1.907.242l-11.873 3.614c-1.052.32-1.046.814.01 1.117l11.379 3.266c1.057.302 2.762.287 3.814-.032l11.873-3.603c1.052-.32 1.046-.825-.01-1.127l-11.39-3.256c-.528-.151-1.208-.226-1.896-.221zm-133.483.569c-.688.005-1.38.083-1.907.242l-11.873 3.603c-1.052.32-1.046.825.01 1.128l11.379 3.255c1.056.303 2.761.298 3.813-.021l11.874-3.603c1.052-.32 1.046-.825-.01-1.128l-11.39-3.265c-.528-.152-1.208-.217-1.896-.211zm64.392.432c-.688.005-1.38.082-1.907.242l-11.873 3.603c-1.052.32-1.046.825.01 1.127l11.379 3.256c1.057.303 2.762.288 3.814-.032l11.873-3.603c1.052-.319 1.046-.814-.01-1.117l-11.39-3.266c-.528-.15-1.208-.216-1.896-.21zm-39.486 1.991c-.688.005-1.37.083-1.897.242l-11.873 3.614c-1.052.32-1.046.814.01 1.117l11.379 3.266c1.056.302 2.751.287 3.803-.032l11.873-3.603c1.052-.32 1.057-.825 0-1.127l-11.388-3.256c-.529-.151-1.22-.226-1.907-.221zm64.392.432c-.688.005-1.37.083-1.896.242l-11.874 3.603c-1.052.32-1.046.825.01 1.128l11.379 3.255c1.057.303 2.751.298 3.803-.021l11.874-3.603c1.051-.32 1.056-.825 0-1.127l-11.39-3.266c-.528-.152-1.218-.216-1.906-.211zm-130.017.695c-.594.005-1.19.073-1.644.211l-11.283 3.424c-.908.276-.913.708 0 .97l9.84 2.812c.913.262 2.379.255 3.287-.02l11.283-3.425c.909-.276.903-.708-.01-.97l-9.83-2.812c-.456-.13-1.049-.194-1.643-.19zm156.482 1.254c-.688.005-1.381.093-1.907.253l-11.873 3.603c-1.052.32-1.047.824.01 1.127l11.378 3.256c1.057.302 2.762.287 3.814-.032l11.873-3.603c1.052-.32 1.047-.814-.01-1.117l-11.389-3.266c-.528-.151-1.208-.226-1.896-.221zm-133.157.474c-.688.005-1.37.083-1.896.242l-11.874 3.603c-1.051.32-1.046.825.011 1.128l11.378 3.255c1.057.303 2.752.288 3.803-.031l11.884-3.604c1.052-.319 1.047-.814-.01-1.116l-11.389-3.266c-.528-.152-1.219-.216-1.907-.21zm64.392.421c-.688.005-1.37.094-1.896.253l-11.873 3.603c-1.052.32-1.047.814.01 1.117l11.378 3.266c1.057.303 2.762.288 3.814-.031l11.874-3.604c1.051-.319 1.046-.814-.01-1.116l-11.39-3.266c-.528-.152-1.219-.227-1.907-.222zm-39.476 2.002c-.688.005-1.37.083-1.896.243l-11.873 3.603c-1.052.319-1.057.824 0 1.127l11.388 3.255c1.057.303 2.752.298 3.804-.02l11.873-3.604c1.052-.32 1.046-.824-.01-1.127l-11.379-3.266c-.528-.152-1.219-.216-1.907-.21zm64.393.432c-.688.005-1.37.083-1.897.242l-11.873 3.604c-1.052.319-1.057.824 0 1.127l11.389 3.255c1.056.303 2.751.288 3.803-.031l11.873-3.603c1.052-.32 1.046-.814-.01-1.117l-11.378-3.266c-.529-.152-1.22-.216-1.907-.21zm-128.795.316c-.595.005-1.19.073-1.644.21L342.4 231.32c-.909.276-.902.708.01.97l9.83 2.823c.912.261 2.378.244 3.287-.032l11.283-3.424c.909-.276.902-.708-.01-.97l-9.83-2.812c-.456-.13-1.05-.194-1.643-.19zm155.049 1.696c-.688.005-1.37.094-1.897.253l-90.74 27.54c-1.053.319-1.058.814 0 1.116l11.388 3.266c1.057.303 2.751.288 3.803-.031l90.741-27.54c1.052-.319 1.057-.824 0-1.127l-11.388-3.255c-.529-.152-1.22-.227-1.907-.222zm-132.946.4c-.688.006-1.37.094-1.897.254l-11.873 3.603c-1.052.319-1.046.824.01 1.127l11.379 3.255c1.057.303 2.751.288 3.803-.031l11.873-3.603c1.052-.32 1.057-.814 0-1.117l-11.388-3.266c-.529-.151-1.22-.227-1.907-.221zm64.392.433c-.688.005-1.37.093-1.896.253l-11.874 3.603c-1.052.319-1.046.814.01 1.116l11.379 3.266c1.057.303 2.751.288 3.803-.031l11.874-3.603c1.052-.32 1.056-.825 0-1.128l-11.39-3.255c-.527-.151-1.218-.227-1.906-.221zm-39.476 2.001c-.688.005-1.38.083-1.907.243l-11.873 3.603c-1.052.32-1.046.824.01 1.127l11.389 3.256c1.057.302 2.751.287 3.803-.032l11.874-3.603c1.052-.32 1.046-.814-.01-1.117l-11.38-3.266c-.527-.151-1.218-.216-1.906-.21zm-63.17.37c-.594.004-1.19.083-1.644.22l-11.283 3.424c-.908.276-.913.708 0 .97l9.84 2.813c.913.261 2.379.254 3.287-.022l11.283-3.424c.909-.275.903-.707-.01-.969l-9.83-2.823c-.456-.131-1.049-.195-1.643-.19zm127.562.052c-.688.005-1.37.093-1.896.253l-11.884 3.603c-1.052.319-1.046.814.01 1.117l11.39 3.266c1.056.302 2.75.287 3.802-.032l11.874-3.603c1.052-.32 1.046-.814-.01-1.117l-11.379-3.266c-.528-.151-1.219-.227-1.907-.221zm-106.692 2.423c-.688.005-1.37.093-1.896.253l-11.873 3.603c-1.052.32-1.057.814 0 1.117l11.388 3.266c1.057.302 2.752.287 3.804-.032l11.873-3.603c1.052-.32 1.046-.825-.01-1.127l-11.379-3.256c-.528-.151-1.219-.226-1.907-.221zm64.393.432c-.688.005-1.37.083-1.897.242l-11.873 3.614c-1.052.32-1.057.814 0 1.117l11.389 3.266c1.056.302 2.751.287 3.803-.032l11.873-3.603c1.052-.32 1.047-.825-.01-1.127l-11.378-3.256c-.529-.151-1.22-.226-1.907-.221zm-39.476 1.991c-.688.005-1.381.093-1.907.253l-11.874 3.603c-1.052.32-1.046.825.01 1.127l11.39 3.256c1.056.303 2.751.287 3.803-.032l11.873-3.603c1.052-.32 1.046-.814-.01-1.117l-11.378-3.266c-.529-.151-1.22-.226-1.907-.22zm-61.948.01c-.595.006-1.19.074-1.644.211l-11.283 3.424c-.909.276-.902.708.01.97l9.83 2.823c.912.262 2.378.244 3.287-.032l11.283-3.423c.909-.276.902-.708-.01-.97l-9.83-2.813c-.456-.13-1.05-.194-1.643-.19zm126.34.422c-.688.005-1.381.093-1.907.253l-11.873 3.603c-1.052.32-1.047.814.01 1.117l11.389 3.266c1.057.302 2.751.287 3.803-.032l11.873-3.603c1.052-.32 1.047-.825-.01-1.127l-11.378-3.256c-.529-.151-1.22-.226-1.907-.22zm-106.692 2.423c-.688.005-1.38.093-1.907.253l-11.873 3.603c-1.052.32-1.046.814.01 1.117l11.39 3.266c1.056.303 2.75.287 3.802-.032l11.874-3.603c1.052-.32 1.046-.824-.01-1.127l-11.379-3.256c-.528-.15-1.219-.226-1.907-.22zm64.392.432c-.688.005-1.38.083-1.907.242l-11.873 3.604c-1.052.319-1.046.824.01 1.127l11.39 3.255c1.056.303 2.75.298 3.803-.02l11.873-3.604c1.052-.32 1.046-.824-.01-1.127l-11.379-3.266c-.528-.152-1.219-.216-1.907-.21zm-100.191 1.623c-.594.005-1.19.083-1.644.22l-11.283 3.425c-.908.276-.913.708 0 .97l9.84 2.812c.913.262 2.379.255 3.287-.021l11.283-3.424c.909-.276.903-.708-.01-.97l-9.83-2.823c-.456-.13-1.049-.194-1.643-.19zm60.715.368c-.688.005-1.38.094-1.907.253l-11.873 3.603c-1.052.32-1.046.814.01 1.117l11.39 3.266c1.056.303 2.75.288 3.803-.032l11.873-3.603c1.052-.319 1.046-.824-.01-1.127l-11.39-3.255c-.528-.152-1.208-.227-1.896-.222zm64.392.432c-.687.005-1.38.083-1.906.243l-11.874 3.613c-1.052.32-1.046.814.01 1.117l11.39 3.266c1.056.303 2.75.288 3.803-.032l11.873-3.603c1.052-.319 1.046-.824-.01-1.127l-11.379-3.255c-.528-.152-1.219-.227-1.907-.222zm-106.691 2.423c-.688.005-1.381.083-1.907.243l-11.874 3.603c-1.051.32-1.046.824.011 1.127l11.389 3.266c1.056.303 2.751.288 3.803-.032l11.873-3.603c1.052-.319 1.047-.824-.01-1.127l-11.378-3.266c-.529-.151-1.22-.216-1.907-.21zm64.392.432c-.688.005-1.381.083-1.907.243l-11.873 3.603c-1.052.319-1.047.824.01 1.127l11.389 3.255c1.057.303 2.751.288 3.803-.031l11.874-3.603c1.051-.32 1.046-.814-.01-1.117l-11.38-3.266c-.528-.151-1.218-.216-1.906-.21zm-98.97 1.254c-.594.005-1.189.073-1.643.21l-11.283 3.425c-.909.275-.902.708.01.969l9.83 2.813c.912.261 2.378.255 3.287-.021l11.283-3.424c.909-.276.902-.708-.01-.97l-9.83-2.812c-.456-.131-1.05-.195-1.643-.19zm59.494.738c-.688.005-1.381.093-1.907.252l-11.873 3.603c-1.052.32-1.047.814.01 1.117l11.378 3.266c1.057.303 2.762.288 3.814-.031l11.874-3.603c1.051-.32 1.046-.825-.011-1.128l-11.389-3.255c-.528-.152-1.208-.227-1.896-.221zm64.392.432c-.688.005-1.38.082-1.907.242l-11.873 3.603c-1.052.32-1.046.824.01 1.127l11.379 3.256c1.056.302 2.761.298 3.813-.021l11.874-3.604c1.052-.319 1.046-.824-.01-1.127l-11.39-3.266c-.528-.151-1.208-.216-1.896-.21zm-106.692 2.423c-.688.005-1.38.082-1.907.242l-11.873 3.603c-1.052.32-1.046.825.01 1.127l11.379 3.256c1.057.303 2.762.287 3.814-.032l11.873-3.603c1.052-.32 1.046-.814-.01-1.117l-11.39-3.266c-.528-.151-1.208-.216-1.896-.21zm64.393.421c-.688.005-1.381.093-1.907.253l-11.874 3.603c-1.052.32-1.046.825.01 1.127l11.39 3.256c1.056.302 2.75.287 3.803-.032l11.873-3.603c1.052-.32 1.046-.814-.01-1.117l-11.39-3.266c-.527-.151-1.207-.226-1.895-.22zm-97.748.885c-.594.005-1.178.073-1.633.21l-11.283 3.435c-.908.276-.913.708 0 .97l9.83 2.812c.912.262 2.378.245 3.287-.031l11.293-3.424c.909-.276.903-.708-.01-.97l-9.83-2.812c-.456-.131-1.06-.195-1.654-.19zm58.261 1.117c-.688.005-1.37.082-1.896.242l-11.874 3.603c-1.052.32-1.046.825.01 1.127l11.379 3.256c1.057.303 2.751.298 3.803-.021l11.884-3.603c1.052-.32 1.046-.825-.01-1.128l-11.39-3.266c-.527-.15-1.218-.216-1.906-.21zm64.392.432c-.688.005-1.37.082-1.896.242l-11.874 3.603c-1.051.32-1.046.825.011 1.127l11.378 3.256c1.057.303 2.762.288 3.814-.032l11.873-3.603c1.052-.32 1.047-.814-.01-1.117L399.1 253.96c-.528-.15-1.219-.216-1.907-.21zm-106.692 2.412c-.688.005-1.37.094-1.896.253l-11.873 3.603c-1.052.32-1.047.825.01 1.128l11.378 3.255c1.057.303 2.762.288 3.814-.032l11.874-3.603c1.051-.319 1.046-.814-.01-1.116l-11.39-3.266c-.528-.152-1.219-.227-1.907-.222zm64.403.432c-.688.005-1.38.093-1.907.253l-11.873 3.603c-1.052.32-1.046.814.01 1.117l11.379 3.266c1.056.303 2.762.288 3.813-.032l11.874-3.603c1.052-.319 1.046-.824-.01-1.127l-11.39-3.255c-.528-.152-1.208-.227-1.896-.222zm-39.476 1.991c-.688.005-1.38.094-1.907.253l-19.817 6.016c-1.052.32-1.046.814.01 1.117l11.379 3.266c1.057.303 2.762.287 3.814-.032l19.817-6.016c1.052-.319 1.046-.814-.01-1.116l-11.379-3.266c-.528-.152-1.219-.227-1.907-.222zm98.696.011c-.688.005-1.381.083-1.907.242l-11.874 3.603c-1.052.32-1.046.825.01 1.128l11.39 3.266c1.056.302 2.75.287 3.803-.032l11.873-3.603c1.052-.32 1.046-.825-.01-1.127l-11.379-3.256c-.528-.151-1.218-.226-1.906-.221zm-34.314.421c-.688.005-1.37.094-1.897.253l-11.873 3.603c-1.052.32-1.046.825.01 1.128l11.379 3.255c1.057.303 2.751.288 3.803-.032l11.873-3.603c1.052-.319 1.057-.814 0-1.116l-11.388-3.266c-.529-.152-1.22-.227-1.907-.222zm-42.089 2.792c-.688.005-1.37.093-1.896.253l-25.19 7.638c-1.052.32-1.057.825 0 1.128l11.388 3.255c1.057.303 2.752.288 3.804-.032l25.19-7.638c1.052-.319 1.046-.824-.01-1.127l-11.38-3.255c-.527-.152-1.218-.227-1.906-.222zm59.02 2.065c-.689.005-1.382.083-1.908.243l-11.873 3.603c-1.052.319-1.046.824.01 1.127l11.39 3.255c1.056.303 2.75.299 3.802-.02l11.874-3.614c1.052-.32 1.046-.814-.01-1.117l-11.379-3.266c-.528-.151-1.219-.216-1.907-.21zm-34.378.443c-.688.005-1.37.082-1.896.242l-32.913 9.988c-1.052.319-1.046.824.01 1.127l11.39 3.266c1.056.303 2.751.287 3.803-.032l32.902-9.987c1.052-.32 1.057-.825 0-1.128l-11.389-3.255c-.528-.151-1.219-.227-1.907-.221zm16.994 4.825c-.688.005-1.381.093-1.907.253l-11.873 3.603c-1.052.32-1.047.824.01 1.127l11.389 3.256c1.057.302 2.751.287 3.803-.032l11.873-3.603c1.052-.32 1.047-.814-.01-1.117l-11.389-3.266c-.528-.151-1.208-.226-1.896-.221zm-17.183 5.215c-.688.005-1.37.093-1.897.253l-15.792 4.793c-1.052.32-1.047.814.01 1.117l11.378 3.266c1.057.303 2.752.288 3.804-.032l15.792-4.793c1.052-.32 1.046-.814-.01-1.117l-11.378-3.266c-.529-.151-1.22-.226-1.907-.221z" fill="#333"/><path transform="matrix(1.9116 .54768 -1.9515 .59227 -1201.12 506.199)" d="M223.66-717.71l1.331 2.306h-2.662z" fill="none" stroke="#fff" stroke-linecap="square" stroke-width="1.079"/><path transform="matrix(1.9116 .54768 1.9515 -.59227 1560.27 -331.75)" d="M223.66-717.71l1.331 2.306h-2.662z" fill="none" stroke="#fff" stroke-linecap="square" stroke-width="1.079"/><path transform="matrix(1.8573 -.56368 -2.0086 -.57546 -1247.82 -76.66)" d="M223.66-717.71l1.331 2.306h-2.662z" fill="none" stroke="#fff" stroke-linecap="square" stroke-width="1.079"/><text transform="matrix(.22388 -.06795 .25374 .0727 713.891 271.91)" x="-854.592" y="-662.147" font-family="Segoe UI" font-size="17.02" letter-spacing="0" word-spacing="0"><tspan x="-854.592" y="-662.147" fill="#fff" font-family="Arial">Ctrl</tspan></text><text transform="matrix(.22508 -.06831 .2524 .07231 713.891 271.91)" x="-756.715" y="-665.688" font-family="Segoe UI" font-size="17.111" letter-spacing="0" word-spacing="0"><tspan x="-756.715" y="-665.688" fill="#fff" font-family="Arial">Fn</tspan></text><text transform="matrix(.22749 -.06904 .2497 .07155 713.891 271.91)" x="-596.494" y="-672.815" font-family="Segoe UI" font-size="17.294" letter-spacing="0" word-spacing="0"><tspan x="-596.494" y="-672.815" fill="#fff" font-family="Arial">Alt</tspan></text><text transform="matrix(.2253 -.06838 .25215 .07225 713.891 271.91)" x="-97.946" y="-666.337" font-family="Segoe UI" font-size="17.127" letter-spacing="0" word-spacing="0"><tspan x="-97.946" y="-666.337" fill="#fff" font-family="Arial">Alt Gr</tspan></text><text transform="matrix(.2253 -.06838 .25215 .07225 713.891 271.91)" x="58.468" y="-666.337" font-family="Segoe UI" font-size="17.127" letter-spacing="0" word-spacing="0"><tspan x="58.468" y="-666.337" fill="#fff" font-family="Arial">Ctrl</tspan></text><text transform="matrix(.22388 -.06795 .25374 .0727 713.891 271.91)" x="-833.605" y="-728.854" font-family="Segoe UI" font-size="17.02" letter-spacing="0" word-spacing="0"><tspan x="-833.605" y="-728.854" fill="#fff" font-family="Arial">Shift</tspan></text><text transform="matrix(.2408 -.07308 .2359 .06759 713.891 271.91)" x="-634.584" y="-769.387" font-family="Segoe UI" font-size="18.286" letter-spacing="0" word-spacing="0"><tspan x="-634.584" y="-769.387" fill="#fff" font-family="Arial">Z</tspan></text><text transform="matrix(.2408 -.07308 .2359 .06759 713.891 271.91)" x="-560.437" y="-769.387" font-family="Segoe UI" font-size="18.286" letter-spacing="0" word-spacing="0"><tspan x="-560.437" y="-769.387" fill="#fff" font-family="Arial">X</tspan></text><text transform="matrix(.2408 -.07308 .2359 .06759 713.891 271.91)" x="-490.193" y="-769.387" font-family="Segoe UI" font-size="18.286" letter-spacing="0" word-spacing="0"><tspan x="-490.193" y="-769.387" fill="#fff" font-family="Arial">C</tspan></text><text transform="matrix(.2408 -.07308 .2359 .06759 713.891 271.91)" x="-419.949" y="-769.387" font-family="Segoe UI" font-size="18.286" letter-spacing="0" word-spacing="0"><tspan x="-419.949" y="-769.387" fill="#fff" font-family="Arial">V</tspan></text><text transform="matrix(.2408 -.07308 .2359 .06759 713.891 271.91)" x="-345.803" y="-769.387" font-family="Segoe UI" font-size="18.286" letter-spacing="0" word-spacing="0"><tspan x="-345.803" y="-769.387" fill="#fff" font-family="Arial">B</tspan></text><text transform="matrix(.2408 -.07308 .2359 .06759 713.891 271.91)" x="-273.607" y="-769.387" font-family="Segoe UI" font-size="18.286" letter-spacing="0" word-spacing="0"><tspan x="-273.607" y="-769.387" fill="#fff" font-family="Arial">N</tspan></text><text transform="matrix(.2408 -.07308 .2359 .06759 713.891 271.91)" x="-201.412" y="-769.387" font-family="Segoe UI" font-size="18.286" letter-spacing="0" word-spacing="0"><tspan x="-201.412" y="-769.387" fill="#fff" font-family="Arial">M</tspan></text><text transform="matrix(.2408 -.07308 .2359 .06759 713.891 271.91)" x="-129.217" y="-769.387" font-family="Segoe UI" font-size="18.286" letter-spacing="0" word-spacing="0"><tspan x="-129.217" y="-769.387" fill="#fff" font-family="Arial">,</tspan></text><text transform="matrix(.2408 -.07308 .2359 .06759 713.891 271.91)" x="-57.021" y="-769.387" font-family="Segoe UI" font-size="18.286" letter-spacing="0" word-spacing="0"><tspan x="-57.021" y="-769.387" fill="#fff" font-family="Arial">.</tspan></text><text transform="matrix(.2408 -.07308 .2359 .06759 713.891 271.91)" x="15.174" y="-769.387" font-family="Segoe UI" font-size="18.286" letter-spacing="0" word-spacing="0"><tspan x="15.174" y="-769.387" fill="#fff" font-family="Arial">/</tspan></text><text transform="matrix(.23428 -.0711 .24248 .06947 713.891 271.91)" x="-686.338" y="-818.715" font-family="Segoe UI" font-size="18.795" letter-spacing="0" word-spacing="0"><tspan x="-686.338" y="-818.715" fill="#fff" font-family="Arial">A</tspan></text><text transform="matrix(.23428 -.0711 .24248 .06947 713.891 271.91)" x="-610.128" y="-818.715" font-family="Segoe UI" font-size="18.795" letter-spacing="0" word-spacing="0"><tspan x="-610.128" y="-818.715" fill="#fff" font-family="Arial">S</tspan></text><text transform="matrix(.23428 -.0711 .24248 .06947 713.891 271.91)" x="-537.929" y="-818.715" font-family="Segoe UI" font-size="18.795" letter-spacing="0" word-spacing="0"><tspan x="-537.929" y="-818.715" fill="#fff" font-family="Arial">D</tspan></text><text transform="matrix(.23428 -.0711 .24248 .06947 713.891 271.91)" x="-465.73" y="-818.715" font-family="Segoe UI" font-size="18.795" letter-spacing="0" word-spacing="0"><tspan x="-465.73" y="-818.715" fill="#fff" font-family="Arial">F</tspan></text><text transform="matrix(.23428 -.0711 .24248 .06947 713.891 271.91)" x="-389.52" y="-818.715" font-family="Segoe UI" font-size="18.795" letter-spacing="0" word-spacing="0"><tspan x="-389.52" y="-818.715" fill="#fff" font-family="Arial">G</tspan></text><text transform="matrix(.23428 -.0711 .24248 .06947 713.891 271.91)" x="-315.316" y="-818.715" font-family="Segoe UI" font-size="18.795" letter-spacing="0" word-spacing="0"><tspan x="-315.316" y="-818.715" fill="#fff" font-family="Arial">H</tspan></text><text transform="matrix(.23428 -.0711 .24248 .06947 713.891 271.91)" x="-241.111" y="-818.715" font-family="Segoe UI" font-size="18.795" letter-spacing="0" word-spacing="0"><tspan x="-241.111" y="-818.715" fill="#fff" font-family="Arial">J</tspan></text><text transform="matrix(.23428 -.0711 .24248 .06947 713.891 271.91)" x="-166.907" y="-818.715" font-family="Segoe UI" font-size="18.795" letter-spacing="0" word-spacing="0"><tspan x="-166.907" y="-818.715" fill="#fff" font-family="Arial">K</tspan></text><text transform="matrix(.23428 -.0711 .24248 .06947 713.891 271.91)" x="-92.702" y="-818.715" font-family="Segoe UI" font-size="18.795" letter-spacing="0" word-spacing="0"><tspan x="-92.702" y="-818.715" fill="#fff" font-family="Arial">L</tspan></text><text transform="matrix(.23428 -.0711 .24248 .06947 713.891 271.91)" x="-18.498" y="-818.715" font-family="Segoe UI" font-size="18.795" letter-spacing="0" word-spacing="0"><tspan x="-18.498" y="-818.715" fill="#fff" font-family="Arial">;</tspan></text><text transform="matrix(.23428 -.0711 .24248 .06947 713.891 271.91)" x="53.701" y="-818.715" font-family="Segoe UI" font-size="18.795" letter-spacing="0" word-spacing="0"><tspan x="53.701" y="-818.715" fill="#fff" font-family="Arial">&apos;</tspan></text><text transform="matrix(.23982 -.07278 .23686 .06786 713.891 271.91)" x="-692.018" y="-909.088" font-family="Segoe UI" font-size="18.361" letter-spacing="0" word-spacing="0"><tspan x="-692.018" y="-909.088" fill="#fff" font-family="Arial">Q</tspan></text><text transform="matrix(.23982 -.07278 .23686 .06786 713.891 271.91)" x="-617.57" y="-909.088" font-family="Segoe UI" font-size="18.361" letter-spacing="0" word-spacing="0"><tspan x="-617.57" y="-909.088" fill="#fff" font-family="Arial">W</tspan></text><text transform="matrix(.23982 -.07278 .23686 .06786 713.891 271.91)" x="-547.04" y="-909.088" font-family="Segoe UI" font-size="18.361" letter-spacing="0" word-spacing="0"><tspan x="-547.04" y="-909.088" fill="#fff" font-family="Arial">E</tspan></text><text transform="matrix(.23982 -.07278 .23686 .06786 713.891 271.91)" x="-476.511" y="-909.088" font-family="Segoe UI" font-size="18.361" letter-spacing="0" word-spacing="0"><tspan x="-476.511" y="-909.088" fill="#fff" font-family="Arial">R</tspan></text><text transform="matrix(.23982 -.07278 .23686 .06786 713.891 271.91)" x="-402.063" y="-909.088" font-family="Segoe UI" font-size="18.361" letter-spacing="0" word-spacing="0"><tspan x="-402.063" y="-909.088" fill="#fff" font-family="Arial">T</tspan></text><text transform="matrix(.23982 -.07278 .23686 .06786 713.891 271.91)" x="-329.575" y="-909.088" font-family="Segoe UI" font-size="18.361" letter-spacing="0" word-spacing="0"><tspan x="-329.575" y="-909.088" fill="#fff" font-family="Arial">Y</tspan></text><text transform="matrix(.23982 -.07278 .23686 .06786 713.891 271.91)" x="-257.086" y="-909.088" font-family="Segoe UI" font-size="18.361" letter-spacing="0" word-spacing="0"><tspan x="-257.086" y="-909.088" fill="#fff" font-family="Arial">U</tspan></text><text transform="matrix(.23982 -.07278 .23686 .06786 713.891 271.91)" x="-184.598" y="-909.088" font-family="Segoe UI" font-size="18.361" letter-spacing="0" word-spacing="0"><tspan x="-184.598" y="-909.088" fill="#fff" font-family="Arial">I</tspan></text><text transform="matrix(.23982 -.07278 .23686 .06786 713.891 271.91)" x="-112.109" y="-909.088" font-family="Segoe UI" font-size="18.361" letter-spacing="0" word-spacing="0"><tspan x="-112.109" y="-909.088" fill="#fff" font-family="Arial">O</tspan></text><text transform="matrix(.23982 -.07278 .23686 .06786 713.891 271.91)" x="-39.621" y="-909.088" font-family="Segoe UI" font-size="18.361" letter-spacing="0" word-spacing="0"><tspan x="-39.621" y="-909.088" fill="#fff" font-family="Arial">P</tspan></text><text transform="matrix(.23982 -.07278 .23686 .06786 713.891 271.91)" x="32.868" y="-909.088" font-family="Segoe UI" font-size="18.361" letter-spacing="0" word-spacing="0"><tspan x="32.868" y="-909.088" fill="#fff" font-family="Arial">[</tspan></text><text transform="matrix(.23982 -.07278 .23686 .06786 713.891 271.91)" x="107.316" y="-909.088" font-family="Segoe UI" font-size="18.361" letter-spacing="0" word-spacing="0"><tspan x="107.316" y="-909.088" fill="#fff" font-family="Arial">]</tspan></text><text transform="matrix(.23099 -.0701 .24593 .07046 713.891 271.91)" x="-755.118" y="-943.526" font-family="Segoe UI" font-size="19.063" letter-spacing="0" word-spacing="0"><tspan x="-755.118" y="-943.526" fill="#fff" font-family="Arial">1</tspan></text><text transform="matrix(.23099 -.0701 .24593 .07046 713.891 271.91)" x="-677.821" y="-943.526" font-family="Segoe UI" font-size="19.063" letter-spacing="0" word-spacing="0"><tspan x="-677.821" y="-943.526" fill="#fff" font-family="Arial">2</tspan></text><text transform="matrix(.23099 -.0701 .24593 .07046 713.891 271.91)" x="-604.592" y="-943.526" font-family="Segoe UI" font-size="19.063" letter-spacing="0" word-spacing="0"><tspan x="-604.592" y="-943.526" fill="#fff" font-family="Arial">3</tspan></text><text transform="matrix(.23099 -.0701 .24593 .07046 713.891 271.91)" x="-531.363" y="-943.526" font-family="Segoe UI" font-size="19.063" letter-spacing="0" word-spacing="0"><tspan x="-531.363" y="-943.526" fill="#fff" font-family="Arial">4</tspan></text><text transform="matrix(.23099 -.0701 .24593 .07046 713.891 271.91)" x="-454.066" y="-943.526" font-family="Segoe UI" font-size="19.063" letter-spacing="0" word-spacing="0"><tspan x="-454.066" y="-943.526" fill="#fff" font-family="Arial">5</tspan></text><text transform="matrix(.23099 -.0701 .24593 .07046 713.891 271.91)" x="-378.803" y="-943.526" font-family="Segoe UI" font-size="19.063" letter-spacing="0" word-spacing="0"><tspan x="-378.803" y="-943.526" fill="#fff" font-family="Arial">6</tspan></text><text transform="matrix(.23099 -.0701 .24593 .07046 713.891 271.91)" x="-303.54" y="-943.526" font-family="Segoe UI" font-size="19.063" letter-spacing="0" word-spacing="0"><tspan x="-303.54" y="-943.526" fill="#fff" font-family="Arial">7</tspan></text><text transform="matrix(.23099 -.0701 .24593 .07046 713.891 271.91)" x="-228.277" y="-943.526" font-family="Segoe UI" font-size="19.063" letter-spacing="0" word-spacing="0"><tspan x="-228.277" y="-943.526" fill="#fff" font-family="Arial">8</tspan></text><text transform="matrix(.23099 -.0701 .24593 .07046 713.891 271.91)" x="-153.014" y="-943.526" font-family="Segoe UI" font-size="19.063" letter-spacing="0" word-spacing="0"><tspan x="-153.014" y="-943.526" fill="#fff" font-family="Arial">9</tspan></text><text transform="matrix(.23099 -.0701 .24593 .07046 713.891 271.91)" x="-77.752" y="-943.526" font-family="Segoe UI" font-size="19.063" letter-spacing="0" word-spacing="0"><tspan x="-77.752" y="-943.526" fill="#fff" font-family="Arial">0</tspan></text><text transform="matrix(.23099 -.0701 .24593 .07046 713.891 271.91)" x="-.454" y="-943.526" font-family="Segoe UI" font-size="19.063" letter-spacing="0" word-spacing="0"><tspan x="-.454" y="-943.526" fill="#fff" font-family="Arial">-</tspan></text><text transform="matrix(.23099 -.0701 .24593 .07046 713.891 271.91)" x="74.809" y="-943.526" font-family="Segoe UI" font-size="19.063" letter-spacing="0" word-spacing="0"><tspan x="74.809" y="-943.526" fill="#fff" font-family="Arial">=</tspan></text><text transform="matrix(.25102 -.07618 .2263 .06484 713.891 271.91)" x="-655.529" y="-1061.068" fill="#fff" font-family="Segoe UI" font-size="17.542" letter-spacing="0" word-spacing="0"><tspan x="-655.529" y="-1061.068" font-family="Arial">!</tspan></text><text transform="matrix(.25102 -.07618 .2263 .06484 713.891 271.91)" x="-595.634" y="-1061.068" fill="#fff" font-family="Segoe UI" font-size="17.542" letter-spacing="0" word-spacing="0"><tspan x="-595.634" y="-1061.068" font-family="Arial">@</tspan></text><text transform="matrix(.25102 -.07618 .2263 .06484 713.891 271.91)" x="-522.635" y="-1061.068" fill="#fff" font-family="Segoe UI" font-size="17.542" letter-spacing="0" word-spacing="0"><tspan x="-522.635" y="-1061.068" font-family="Arial">#</tspan></text><text transform="matrix(.25102 -.07618 .2263 .06484 713.891 271.91)" x="-449.638" y="-1061.068" fill="#fff" font-family="Segoe UI" font-size="17.542" letter-spacing="0" word-spacing="0"><tspan x="-449.638" y="-1061.068" font-family="Arial">$</tspan></text><text transform="matrix(.25102 -.07618 .2263 .06484 713.891 271.91)" x="-385.998" y="-1061.068" fill="#fff" font-family="Segoe UI" font-size="17.542" letter-spacing="0" word-spacing="0"><tspan x="-385.998" y="-1061.068" font-family="Arial">%</tspan></text><text transform="matrix(.25102 -.07618 .2263 .06484 713.891 271.91)" x="-313" y="-1061.068" fill="#fff" font-family="Segoe UI" font-size="17.542" letter-spacing="0" word-spacing="0"><tspan x="-313" y="-1061.068" font-family="Arial">^</tspan></text><text transform="matrix(.25102 -.07618 .2263 .06484 713.891 271.91)" x="-245.617" y="-1061.068" fill="#fff" font-family="Segoe UI" font-size="17.542" letter-spacing="0" word-spacing="0"><tspan x="-245.617" y="-1061.068" font-family="Arial">&amp;</tspan></text><text transform="matrix(.25102 -.07618 .2263 .06484 713.891 271.91)" x="-170.747" y="-1061.068" fill="#fff" font-family="Segoe UI" font-size="17.542" letter-spacing="0" word-spacing="0"><tspan x="-170.747" y="-1061.068" font-family="Arial">*</tspan></text><text transform="matrix(.25102 -.07618 .2263 .06484 713.891 271.91)" x="-101.492" y="-1061.068" fill="#fff" font-family="Segoe UI" font-size="17.542" letter-spacing="0" word-spacing="0"><tspan x="-101.492" y="-1061.068" font-family="Arial">(</tspan></text><text transform="matrix(.25102 -.07618 .2263 .06484 713.891 271.91)" x="-32.238" y="-1061.068" fill="#fff" font-family="Segoe UI" font-size="17.542" letter-spacing="0" word-spacing="0"><tspan x="-32.238" y="-1061.068" font-family="Arial">)</tspan></text><text transform="matrix(.25102 -.07618 .2263 .06484 713.891 271.91)" x="29.53" y="-1061.068" fill="#fff" font-family="Segoe UI" font-size="17.542" letter-spacing="0" word-spacing="0"><tspan x="29.53" y="-1061.068" font-family="Arial">_</tspan></text><text transform="matrix(.25102 -.07618 .2263 .06484 713.891 271.91)" x="102.528" y="-1061.068" fill="#fff" font-family="Segoe UI" font-size="17.542" letter-spacing="0" word-spacing="0"><tspan x="102.528" y="-1061.068" font-family="Arial">+</tspan></text><text transform="matrix(.25102 -.07618 .2263 .06484 713.891 271.91)" x="-245.617" y="-988.409" fill="#08a" font-family="Segoe UI" font-size="17.542" letter-spacing="0" word-spacing="0"><tspan x="-245.617" y="-988.409" font-family="Arial">4</tspan></text><text transform="matrix(.25102 -.07618 .2263 .06484 713.891 271.91)" x="-176.362" y="-988.409" fill="#08a" font-family="Segoe UI" font-size="17.542" letter-spacing="0" word-spacing="0"><tspan x="-176.362" y="-988.409" font-family="Arial">5</tspan></text><text transform="matrix(.25102 -.07618 .2263 .06484 713.891 271.91)" x="-107.108" y="-988.409" fill="#08a" font-family="Segoe UI" font-size="17.542" letter-spacing="0" word-spacing="0"><tspan x="-107.108" y="-988.409" font-family="Arial">6</tspan></text><text transform="matrix(.25102 -.07618 .2263 .06484 713.891 271.91)" x="-37.853" y="-988.409" fill="#08a" font-family="Segoe UI" font-size="17.542" letter-spacing="0" word-spacing="0"><tspan x="-37.853" y="-988.409" font-family="Arial">*</tspan></text><text transform="matrix(.25102 -.07618 .2263 .06484 713.891 271.91)" x="68.836" y="-988.409" fill="#fff" font-family="Segoe UI" font-size="17.542" letter-spacing="0" word-spacing="0"><tspan x="68.836" y="-988.409" font-family="Arial">{</tspan></text><text transform="matrix(.25102 -.07618 .2263 .06484 713.891 271.91)" x="138.091" y="-988.409" fill="#fff" font-family="Segoe UI" font-size="17.542" letter-spacing="0" word-spacing="0"><tspan x="138.091" y="-988.409" font-family="Arial">}</tspan></text><text transform="matrix(.25102 -.07618 .2263 .06484 713.891 271.91)" x="-279.308" y="-1061.068" fill="#08a" font-family="Segoe UI" font-size="17.542" letter-spacing="0" word-spacing="0"><tspan x="-279.308" y="-1061.068" font-family="Arial">7</tspan></text><text transform="matrix(.25102 -.07618 .2263 .06484 713.891 271.91)" x="-210.054" y="-1061.068" fill="#08a" font-family="Segoe UI" font-size="17.542" letter-spacing="0" word-spacing="0"><tspan x="-210.054" y="-1061.068" font-family="Arial">8</tspan></text><text transform="matrix(.25102 -.07618 .2263 .06484 713.891 271.91)" x="-140.799" y="-1061.068" fill="#08a" font-family="Segoe UI" font-size="17.542" letter-spacing="0" word-spacing="0"><tspan x="-140.799" y="-1061.068" font-family="Arial">9</tspan></text><text transform="matrix(.25102 -.07618 .2263 .06484 713.891 271.91)" x="-71.545" y="-1061.068" fill="#08a" font-family="Segoe UI" font-size="17.542" letter-spacing="0" word-spacing="0"><tspan x="-71.545" y="-1061.068" font-family="Arial">/</tspan></text><text transform="matrix(.25102 -.07618 .2263 .06484 713.891 271.91)" x="-225.028" y="-911.476" fill="#08a" font-family="Segoe UI" font-size="17.542" letter-spacing="0" word-spacing="0"><tspan x="-225.028" y="-911.476" font-family="Arial">1</tspan></text><text transform="matrix(.25102 -.07618 .2263 .06484 713.891 271.91)" x="-155.773" y="-911.476" fill="#08a" font-family="Segoe UI" font-size="17.542" letter-spacing="0" word-spacing="0"><tspan x="-155.773" y="-911.476" font-family="Arial">2</tspan></text><text transform="matrix(.25102 -.07618 .2263 .06484 713.891 271.91)" x="-86.518" y="-911.476" fill="#08a" font-family="Segoe UI" font-size="17.542" letter-spacing="0" word-spacing="0"><tspan x="-86.518" y="-911.476" font-family="Arial">3</tspan></text><text transform="matrix(.25102 -.07618 .2263 .06484 713.891 271.91)" x="-17.264" y="-911.476" fill="#08a" font-family="Segoe UI" font-size="17.542" letter-spacing="0" word-spacing="0"><tspan x="-17.264" y="-911.476" font-family="Arial">_</tspan></text><text transform="matrix(.25102 -.07618 .2263 .06484 713.891 271.91)" x="-193.493" y="-834.821" fill="#08a" font-family="Segoe UI" font-size="17.542" letter-spacing="0" word-spacing="0"><tspan x="-193.493" y="-834.821" font-family="Arial">0</tspan></text><text transform="matrix(.23982 -.07278 .23686 .06786 713.891 271.91)" x="177.845" y="-909.088" font-family="Segoe UI" font-size="18.361" letter-spacing="0" word-spacing="0"><tspan x="177.845" y="-909.088" fill="#fff" font-family="Arial">\</tspan></text><text transform="matrix(.25102 -.07618 .2263 .06484 713.891 271.91)" x="229.807" y="-988.409" fill="#fff" font-family="Segoe UI" font-size="17.542" letter-spacing="0" word-spacing="0"><tspan x="229.807" y="-988.409" font-family="Arial">|</tspan></text><text transform="matrix(.25102 -.07618 .2263 .06484 713.891 271.91)" x="18.991" y="-909.431" fill="#fff" font-family="Segoe UI" font-size="17.542" letter-spacing="0" word-spacing="0"><tspan x="18.991" y="-909.431" font-family="Arial">:</tspan></text><text transform="matrix(.25102 -.07618 .2263 .06484 713.891 271.91)" x="90.117" y="-909.431" fill="#fff" font-family="Segoe UI" font-size="17.542" letter-spacing="0" word-spacing="0"><tspan x="90.117" y="-909.431" font-family="Arial">&quot;</tspan></text><text transform="matrix(.25102 -.07618 .2263 .06484 713.891 271.91)" x="-92.622" y="-834.635" fill="#fff" font-family="Segoe UI" font-size="17.542" letter-spacing="0" word-spacing="0"><tspan x="-92.622" y="-834.635" font-family="Arial">&lt;</tspan></text><text transform="matrix(.25102 -.07618 .2263 .06484 713.891 271.91)" x="-23.367" y="-834.635" fill="#fff" font-family="Segoe UI" font-size="17.542" letter-spacing="0" word-spacing="0"><tspan x="-23.367" y="-834.635" font-family="Arial">&gt;</tspan></text><text transform="matrix(.25102 -.07618 .2263 .06484 713.891 271.91)" x="45.887" y="-834.635" fill="#fff" font-family="Segoe UI" font-size="17.542" letter-spacing="0" word-spacing="0"><tspan x="45.887" y="-834.635" font-family="Arial">?</tspan></text><text transform="matrix(.25102 -.07618 .2263 .06484 713.891 271.91)" x="-55.309" y="-832.498" fill="#08a" font-family="Segoe UI" font-size="17.542" letter-spacing="0" word-spacing="0"><tspan x="-55.309" y="-832.498" font-family="Arial">.</tspan></text><text transform="matrix(.25102 -.07618 .2263 .06484 713.891 271.91)" x="13.945" y="-832.498" fill="#08a" font-family="Segoe UI" font-size="17.542" letter-spacing="0" word-spacing="0"><tspan x="13.945" y="-832.498" font-family="Arial">+</tspan></text><text transform="matrix(.23099 -.0701 .24593 .07046 713.891 271.91)" x="-832.415" y="-943.526" font-family="Segoe UI" font-size="19.063" letter-spacing="0" word-spacing="0"><tspan x="-832.415" y="-943.526" fill="#fff" font-family="Arial">`</tspan></text><text transform="matrix(.25102 -.07618 .2263 .06484 713.891 271.91)" x="-726.656" y="-1061.068" fill="#fff" font-family="Segoe UI" font-size="17.542" letter-spacing="0" word-spacing="0"><tspan x="-726.656" y="-1061.068" font-family="Arial">~</tspan></text><text transform="matrix(.22388 -.06795 .25374 .0727 713.891 271.91)" x="-855.276" y="-999.207" font-family="Segoe UI" font-size="17.02" letter-spacing="0" word-spacing="0"><tspan x="-855.276" y="-999.207" fill="#fff" font-family="Arial">Esc</tspan></text><text transform="matrix(.25462 -.07727 .22311 .06393 713.891 271.91)" x="-689.403" y="-1116.84" font-family="Segoe UI" font-size="16.078" letter-spacing="0" word-spacing="0"><tspan x="-689.403" y="-1116.84" fill="#fff" font-family="Arial">F1</tspan></text><text transform="matrix(.25462 -.07727 .22311 .06393 713.891 271.91)" x="-626.659" y="-1116.84" font-family="Segoe UI" font-size="16.078" letter-spacing="0" word-spacing="0"><tspan x="-626.659" y="-1116.84" fill="#fff" font-family="Arial">F2</tspan></text><text transform="matrix(.25462 -.07727 .22311 .06393 713.891 271.91)" x="-563.914" y="-1116.84" font-family="Segoe UI" font-size="16.078" letter-spacing="0" word-spacing="0"><tspan x="-563.914" y="-1116.84" fill="#fff" font-family="Arial">F3</tspan></text><text transform="matrix(.25462 -.07727 .22311 .06393 713.891 271.91)" x="-501.17" y="-1116.84" font-family="Segoe UI" font-size="16.078" letter-spacing="0" word-spacing="0"><tspan x="-501.17" y="-1116.84" fill="#fff" font-family="Arial">F14</tspan></text><text transform="matrix(.25462 -.07727 .22311 .06393 713.891 271.91)" x="-436.58" y="-1116.84" font-family="Segoe UI" font-size="16.078" letter-spacing="0" word-spacing="0"><tspan x="-436.58" y="-1116.84" fill="#fff" font-family="Arial">F5</tspan></text><text transform="matrix(.25462 -.07727 .22311 .06393 713.891 271.91)" x="-373.835" y="-1116.84" font-family="Segoe UI" font-size="16.078" letter-spacing="0" word-spacing="0"><tspan x="-373.835" y="-1116.84" fill="#fff" font-family="Arial">F6</tspan></text><text transform="matrix(.25462 -.07727 .22311 .06393 713.891 271.91)" x="-311.091" y="-1116.84" font-family="Segoe UI" font-size="16.078" letter-spacing="0" word-spacing="0"><tspan x="-311.091" y="-1116.84" fill="#fff" font-family="Arial">F7</tspan></text><text transform="matrix(.25462 -.07727 .22311 .06393 713.891 271.91)" x="-248.346" y="-1116.84" font-family="Segoe UI" font-size="16.078" letter-spacing="0" word-spacing="0"><tspan x="-248.346" y="-1116.84" fill="#fff" font-family="Arial">F8</tspan></text><text transform="matrix(.25462 -.07727 .22311 .06393 713.891 271.91)" x="-183.756" y="-1116.84" font-family="Segoe UI" font-size="16.078" letter-spacing="0" word-spacing="0"><tspan x="-183.756" y="-1116.84" fill="#fff" font-family="Arial">F9</tspan></text><text transform="matrix(.25462 -.07727 .22311 .06393 713.891 271.91)" x="-119.166" y="-1116.84" font-family="Segoe UI" font-size="16.078" letter-spacing="0" word-spacing="0"><tspan x="-119.166" y="-1116.84" fill="#fff" font-family="Arial">F10</tspan></text><text transform="matrix(.25462 -.07727 .22311 .06393 713.891 271.91)" x="-56.422" y="-1116.84" font-family="Segoe UI" font-size="16.078" letter-spacing="0" word-spacing="0"><tspan x="-56.422" y="-1116.84" fill="#fff" font-family="Arial">F11</tspan></text><text transform="matrix(.25462 -.07727 .22311 .06393 713.891 271.91)" x="6.323" y="-1116.84" font-family="Segoe UI" font-size="16.078" letter-spacing="0" word-spacing="0"><tspan x="6.323" y="-1116.84" fill="#fff" font-family="Arial">F12</tspan></text><text transform="matrix(.22388 -.06795 .25374 .0727 713.891 271.91)" x="-854.592" y="-795.562" font-family="Segoe UI" font-size="17.02" letter-spacing="0" word-spacing="0"><tspan x="-854.592" y="-795.562" fill="#fff" font-family="Arial">Caps Lock</tspan></text><text transform="matrix(.22388 -.06795 .25374 .0727 713.891 271.91)" x="-854.592" y="-862.27" font-family="Segoe UI" font-size="17.02" letter-spacing="0" word-spacing="0"><tspan x="-854.592" y="-862.27" fill="#fff" font-family="Arial">Tab</tspan></text><g fill="none" stroke="#fff"><path transform="matrix(-.0149 -.00427 .01482 -.0045 311.77 257.97)" d="M-595.44-556.77h-126.52l63.259-109.57z" stroke-width="68.28"/><path d="M-618.48-523.94h395.65M-749.61-640.15v231.02" stroke-width="78.112" transform="matrix(.01482 -.0045 .0149 .00427 330.323 262.743)"/><path transform="matrix(-.0149 -.00427 -.01482 .0045 301.11 262.156)" d="M-595.44-556.77h-126.52l63.259-109.57z" stroke-width="68.28"/><path d="M-333.96-415.94h-395.65M-202.83-532.15v231.02" stroke-width="78.112" transform="matrix(.01482 -.0045 .0149 .00427 330.323 262.743)"/></g><text transform="matrix(.22847 -.06934 .24864 .07124 713.891 271.91)" x="-63.248" y="-1026.967" fill="#08a" font-family="Segoe UI" font-size="11.856" letter-spacing="0" word-spacing="0"><tspan x="-63.248" y="-1026.967" font-family="Arial">NumLk</tspan></text><text transform="matrix(.22847 -.06934 .24864 .07124 713.891 271.91)" x="6.674" y="-1026.967" fill="#1a1a1a" font-family="Segoe UI" font-size="11.856" letter-spacing="0" word-spacing="0"><tspan x="6.674" y="-1026.967" font-family="Arial">Scr Lk</tspan></text><text transform="matrix(.22847 -.06934 .24864 .07124 713.891 271.91)" x="77.013" y="-1002.301" fill="#fff" font-family="Segoe UI" font-size="11.856" letter-spacing="0" word-spacing="0"><tspan x="77.013" y="-1002.301" font-family="Arial">SysRq</tspan></text><text transform="matrix(.22847 -.06934 .24864 .07124 713.891 271.91)" x="95.981" y="-1028.462" fill="#fff" font-family="Segoe UI" font-size="11.856" letter-spacing="0" word-spacing="0"><tspan x="95.981" y="-1028.462" font-family="Arial">PrtSc</tspan></text><text transform="matrix(.22847 -.06934 .24864 .07124 713.891 271.91)" x="148.992" y="-1002.301" fill="#fff" font-family="Segoe UI" font-size="11.856" letter-spacing="0" word-spacing="0"><tspan x="148.992" y="-1002.301" font-family="Arial">Break</tspan></text><text transform="matrix(.22847 -.06934 .24864 .07124 713.891 271.91)" x="163.218" y="-1028.462" fill="#fff" font-family="Segoe UI" font-size="11.856" letter-spacing="0" word-spacing="0"><tspan x="163.218" y="-1028.462" font-family="Arial">Pause</tspan></text><text transform="matrix(.2278 -.06913 .24937 .07145 713.891 271.91)" x="232.482" y="-1011.273" fill="#fff" font-family="Segoe UI" font-size="13.869" letter-spacing="0" word-spacing="0"><tspan x="232.482" y="-1011.273" font-family="Arial">Ins</tspan></text><text transform="matrix(.22479 -.06822 .2527 .0724 713.891 271.91)" x="306.655" y="-997.929" fill="#fff" font-family="Segoe UI" font-size="13.686" letter-spacing="0" word-spacing="0"><tspan x="306.655" y="-997.929" font-family="Arial">Del</tspan></text><text transform="matrix(.22905 -.06952 .24801 .07106 713.891 271.91)" x="186.22" y="-954.463" fill="#fff" font-family="Segoe UI" font-size="13.946" letter-spacing="0" word-spacing="0"><tspan x="186.22" y="-954.463" font-family="Arial">Backspace</tspan></text><g fill="none" stroke="#fff"><path transform="matrix(-.01782 -.0051 .01725 -.00524 541.739 197.607)" d="M-595.44-556.77h-126.52l63.259-109.57z" stroke-width="105.46"/><path d="M181.18-846.44h16.305l-.096-8.362" stroke-width="7.524" transform="matrix(.27355 -.08302 .28893 .08278 738.87 288.994)"/></g><g fill="none" stroke="#fff"><path transform="matrix(-.02384 -.00683 .01975 -.006 508.944 184.502)" d="M-595.44-556.77h-126.52l63.259-109.57z" stroke-width="68.28"/><path d="M181.18-846.44h12.937" stroke-width="4.871" transform="matrix(.3132 -.09506 .38659 .11076 784.131 303.314)"/></g><text transform="matrix(.22905 -.06952 .24801 .07106 713.891 271.91)" x="169.809" y="-816.016" fill="#fff" font-family="Segoe UI" font-size="13.946" letter-spacing="0" word-spacing="0"><tspan x="169.809" y="-816.016" font-family="Arial">Enter</tspan></text><path d="M-808.57-773.13v9.998h5.018v-9.998l2.936-.01-5.545-9.2-5.547 9.2z" fill="none" stroke="#fff" stroke-linecap="square" stroke-width="7.692" transform="matrix(.23493 -.0713 .2418 .06928 713.891 271.91)"/><text transform="matrix(.22388 -.06795 .25374 .0727 713.891 271.91)" x="119.211" y="-728.854" font-family="Segoe UI" font-size="17.02" letter-spacing="0" word-spacing="0"><tspan x="119.211" y="-728.854" fill="#fff" font-family="Arial">Shift</tspan></text><path d="M99.427-773.13v9.998h5.018v-9.998l2.936-.01-5.545-9.2-5.547 9.2z" fill="none" stroke="#fff" stroke-linecap="square" stroke-width="7.692" transform="matrix(.23493 -.0713 .2418 .06928 713.891 271.91)"/><text transform="matrix(.22479 -.06822 .2527 .0724 713.891 271.91)" x="316.861" y="-948.657" fill="#fff" font-family="Segoe UI" font-size="13.686" letter-spacing="0" text-anchor="middle" word-spacing="0"><tspan x="316.861" y="-948.657" font-family="Arial">Home</tspan></text><text transform="matrix(.22479 -.06822 .2527 .0724 713.891 271.91)" x="316.861" y="-883.593" fill="#fff" font-family="Segoe UI" font-size="13.686" letter-spacing="0" text-anchor="middle" word-spacing="0"><tspan x="316.861" y="-883.593" font-family="Arial">Pg Up</tspan></text><text transform="matrix(.22479 -.06822 .2527 .0724 713.891 271.91)" x="316.861" y="-816.615" fill="#fff" font-family="Segoe UI" font-size="13.686" letter-spacing="0" text-anchor="middle" word-spacing="0"><tspan x="316.861" y="-816.615" font-family="Arial">Pg Dn</tspan></text><text transform="matrix(.22479 -.06822 .2527 .0724 713.891 271.91)" x="316.861" y="-749.637" fill="#fff" font-family="Segoe UI" font-size="13.686" letter-spacing="0" text-anchor="middle" word-spacing="0"><tspan x="316.861" y="-749.637" font-family="Arial">End</tspan></text><path transform="matrix(1.85731 -.56368 2.00858 .5755 1618.671 744.608)" d="M223.66-717.71l1.331 2.306h-2.662z" fill="none" stroke="#fff" stroke-linecap="square" stroke-width="1.079"/><path d="M549.55 183.364l-1.289 1.382-3.357-.962zM549.794 182.258l.902-.274 3.346.958-.903.274zM551.673 181.687l.903-.274 3.345.959-.903.274zM563.958 187.828l3.43-1.04 3.16.904-3.43 1.042z" fill="#08a"/><path d="M549.794 182.258l.902-.274 3.346.958-.903.274zM551.673 181.687l.903-.274 3.345.959-.903.274zM581.85 193.535l4.647-.42-3.357-.962z" fill="#08a"/><path d="M584.67 192.679l4.646-.42-3.357-.962zM579.355 193.199l.542-.164 3.903 1.118-.542.164z" fill="#08a"/><g fill="#08a"><path d="M604.404 196.962l-1.29 1.381-3.356-.962z"/><path d="M601.585 197.817l-1.29 1.382-3.356-.962zM603.195 196.236l-.542.164 3.903 1.118.542-.164z"/></g><text transform="matrix(.2408 -.07308 .2359 .06759 713.891 271.91)" x="288.57" y="-725.27" font-family="Segoe UI" font-size="18.286" letter-spacing="0" word-spacing="0"><tspan x="288.57" y="-725.27" fill="#fff" font-family="Arial">$</tspan></text><text transform="matrix(.2408 -.07308 .2359 .06759 713.891 271.91)" x="146.131" y="-725.27" font-family="Segoe UI" font-size="18.286" letter-spacing="0" word-spacing="0"><tspan x="146.131" y="-725.27" fill="#fff" font-family="Arial"></tspan></text><path d="M392.01 267.744l1.041.826 3.253-.595-1.042-.826-3.253.595zm4.23-.773l1.041.826 3.253-.595-1.042-.826-3.253.595zm-2.877 1.846l1.042.826 3.253-.595-1.042-.825-3.253.594zm4.23-.773l1.042.826 3.253-.595-1.042-.826-3.253.595z" fill="#fff"/><path d="M-345.87-697.11v9.223h99.917v-7.686" fill="none" stroke="#fff" stroke-width="10.925" transform="matrix(.23493 -.0713 .2418 .06928 713.891 271.91)"/><g fill="none" stroke="#fff" stroke-linecap="square" stroke-width="12.75"><path d="M-9.223-716.94h21.52v27.669h-21.52z" transform="matrix(.20422 -.06198 .20422 .05851 687.15 264.434)"/><path d="M-9.223-707.72h21.52v9.223h-21.52z" transform="matrix(.20422 -.06198 .20422 .05851 687.15 264.434)"/></g><path d="M10.757-701.29l7.35 6.778 3.402-3.689-7.35-6.778 1.983-2.165-10.523-2.162 3.003 10.315z" stroke="#fff" stroke-linecap="square" stroke-width="7.692" transform="matrix(.23493 -.0713 .2418 .06928 713.891 271.91)"/><path transform="translate(252.56 425.58) scale(.33713)" d="M347.78-399.32l-51.801-6.98-301.53-90.41 25.064.098z" fill="#1a1a1a" filter="url(#f)" opacity=".841"/><path transform="translate(252.56 425.58) scale(.33713)" d="M625.13-478.17l226.08-69.879 117.61 33.407c7.959 1.976 3.808 5.395-6.469 8.705l-193.32 63.622c-7.206 2.1-17.838 3.456-25.615 1.045z" fill="url(#g)" filter="url(#h)" opacity=".77"/><g><path d="M565.857 253.04c-2.392-.636-2.404-1.162-6.19.109l-26.655 8.655 9.957 3.557 28.072-9.147c.962-.19 1.368-.943.064-1.465z" fill="#1a1a1a"/><path d="M565.857 252.847c-2.392-.635-2.404-1.161-6.19.11l-26.655 8.655 9.957 3.557 28.072-9.147c.962-.19 1.368-.943.064-1.465z" fill="#333"/><path d="M509.954 274.413c2.392.636 4.03.8 6.61.071l25.693-8.896-9.958-3.557-28.133 9.371c-1.083.436-.653.972-.179 1.144z" fill="#1a1a1a"/><path d="M509.954 274.221c2.392.636 4.03.8 6.61.071l25.693-8.896-9.958-3.557-28.133 9.371c-1.083.436-.653.972-.179 1.143z" fill="#333"/></g><g><path d="M241.362 266.93l16.846-4.823a1.713.501.33 0 1 2.422.014l5.124 1.53a1.713.501.33 0 1-.004.71l-16.846 4.823a1.713.501.33 0 1-2.422-.014l-5.124-1.53a1.713.501.33 0 1 .004-.71" fill="#1a1a1a"/><path d="M241.363 266.67l16.846-4.825a1.713.501.33 0 1 2.422.014l5.125 1.532a1.713.501.33 0 1-.004.708l-16.846 4.824a1.713.501.33 0 1-2.423-.014l-5.124-1.531a1.713.501.33 0 1 .004-.709" fill="#666"/><path d="M254.09 270.839l16.846-4.824a1.713.501.33 0 1 2.422.014l5.124 1.531a1.713.501.33 0 1-.004.709l-16.846 4.824a1.713.501.33 0 1-2.422-.014l-5.124-1.531a1.713.501.33 0 1 .004-.71" fill="#1a1a1a"/><path d="M254.091 270.578l16.846-4.824a1.713.501.33 0 1 2.423.014l5.124 1.531a1.713.501.33 0 1-.004.709l-16.846 4.823a1.713.501.33 0 1-2.422-.014l-5.125-1.53a1.713.501.33 0 1 .004-.71" fill="#666"/><path d="M268.166 274.998l16.846-4.824a1.713.501.33 0 1 2.423.014l5.124 1.531a1.713.501.33 0 1-.004.71l-16.846 4.823a1.713.501.33 0 1-2.422-.014l-5.125-1.531a1.713.501.33 0 1 .004-.709" fill="#1a1a1a"/><path d="M268.168 274.737l16.846-4.824a1.713.501.33 0 1 2.422.014l5.124 1.531a1.713.501.33 0 1-.004.709l-16.845 4.824a1.713.501.33 0 1-2.423-.014l-5.124-1.532a1.713.501.33 0 1 .004-.708" fill="#666"/></g><path d="M211.4 262.67l14.271 4.483v8.754l-14.271-4.483z" fill="#b3b3b3"/><g><path d="M230.089 271.633l10.292 3.334.028 4.643-10.357-3.502z" fill="#0b0c0d"/><path d="M235.88 273.497l4.501 1.473.028 4.643-10.357-3.502z"/><g transform="matrix(.33016 .0132 -.01293 .33687 246.075 426.177)" clip-path="url(#i)" opacity=".221"><path d="M-63.575-445.32l-.121-3.973 23.48 6.97.059 3.742z" fill="#fff"/><path d="M-63.746-449.31l8.943-3.85 21.745 5.859-7.262 5.042z" fill="#ccc"/><path d="M-33.217-443.57l.213-3.769-7.212 5.018.058 3.742z" fill="#666"/></g></g><g><path d="M242.349 275.743l10.292 3.334.028 4.643-10.357-3.502z" fill="#0b0c0d"/><path d="M248.14 277.607l4.501 1.473.028 4.643-10.357-3.502z"/><g transform="matrix(.33016 .0132 -.01293 .33687 258.335 430.287)" clip-path="url(#i)" opacity=".221"><path d="M-63.575-445.32l-.121-3.973 23.48 6.97.059 3.742z" fill="#fff"/><path d="M-63.746-449.31l8.943-3.85 21.745 5.859-7.262 5.042z" fill="#ccc"/><path d="M-33.217-443.57l.213-3.769-7.212 5.018.058 3.742z" fill="#666"/></g></g><path d="M263.15 279.42l92.167 29.455c.852.306.896.75.878 1.525l-.285 7.953-93.9-30.543v-7.45c.047-1.259.405-1.133 1.14-.94z" fill="#1a1a1a"/><path d="M-361.34-316.51l92.167 29.455c.852.306.896.75.878 1.525l-.285 7.953-93.9-30.543v-7.45c.047-1.259.405-1.133 1.14-.94z" fill="url(#j)" transform="translate(623.78 596.21)"/><path d="M320.262 302.447l7.813 2.717a.521.37 54.591 0 1 .427.601v1.658a.521.37 54.591 0 1-.427.304l-7.813-2.718a.521.37 54.591 0 1-.427-.6v-1.659a.521.37 54.591 0 1 .427-.303" fill="#1a1a1a"/><path d="M320 302.632l7.812 2.718a.521.37 54.591 0 1 .427.6v1.659a.521.37 54.591 0 1-.427.304L320 305.195a.521.37 54.591 0 1-.427-.6v-1.659a.521.37 54.591 0 1 .427-.304" fill="#393a39"/><path d="M80.49 59.08L393.61 3.286c5.93-.674 9.261-1.599 13.631 3.918l114.43 156.06-322.6 94.62-122.89-185.87c-4.068-6.236-6.017-10.601 4.312-12.933z" fill="#1a1a1a"/><path d="M81.84 56.31L394.96.516c5.93-.674 9.261-1.599 13.631 3.918l115.74 157.38-322.87 94.62-123.94-187.19c-4.068-6.236-6.017-10.601 4.312-12.933z" fill="#393a39"/><path transform="translate(252.56 425.58) scale(.33713)" d="M-456.63-1050l903.87-169.61 309.35 420.63-869.82 257.96z" fill="#666" filter="url(#k)"/><path d="M98.99 72.53L402.6 15.537l103.91 141.34-292.18 86.683z"/><path d="M-520.57-522.1l113.96-21.696 195.58 130.28-196.29 57.707z" fill="url(#l)" opacity=".522" transform="translate(623.78 596.21)"/><path d="M216.63 265.07l3.753 1.187v1.549l4.236 1.39-.066 5.51-12.152-3.858.066-5.543 4.196 1.313"/><path d="M221.828 266.802l2.794.843v.973l-2.794-.843z" fill="#2aa310" opacity=".96"/><path transform="translate(252.56 425.58) scale(.33713)" d="M-119.89-479.13l14.088 8.287 9.641-4.718 2.514 3.613-25.414 12.431z" clip-path="url(#m)" fill="#0b0c0d" opacity=".96"/><g fill="olive"><path d="M214.937 270.818l3.073-2.003v.79l-3.073 2.004zM215.99 271.18l3.073-2.003v.79l-3.073 2.004zM217.142 271.508l3.074-2.003v.79l-3.074 2.004zM218.262 271.84l3.073-2.004v.79l-3.073 2.004zM219.316 272.201l3.073-2.003v.79l-3.073 2.004zM220.468 272.529l3.073-2.004v.791l-3.073 2.003z" opacity=".96"/></g><path d="M217.642 257.524l14.162-4.075a2.352.692.33 0 1 3.327.019l7.647 2.297a2.352.692.33 0 1-.005.978l-14.162 4.076a2.352.692.33 0 1-3.327-.02l-7.648-2.296a2.352.692.33 0 1 .006-.979" fill="#1a1a1a"/><path d="M217.654 257.166l13.948-4.014a2.352.692.33 0 1 3.327.019l7.663 2.301a2.352.692.33 0 1-.006.979l-13.948 4.014a2.352.692.33 0 1-3.327-.02l-7.663-2.3a2.352.692.33 0 1 .006-.979" fill="#b3b3b3"/><g><path d="M281.922 279.11l16.846-4.823a1.713.501.33 0 1 2.422.014l5.124 1.53a1.713.501.33 0 1-.004.71l-16.846 4.823a1.713.501.33 0 1-2.422-.014l-5.124-1.53a1.713.501.33 0 1 .004-.71" fill="#1a1a1a"/><path d="M281.923 278.85l16.846-4.825a1.713.501.33 0 1 2.422.014l5.125 1.532a1.713.501.33 0 1-.004.708l-16.846 4.824a1.713.501.33 0 1-2.423-.014l-5.124-1.531a1.713.501.33 0 1 .004-.709" fill="#666"/><path d="M294.65 283.019l16.846-4.824a1.713.501.33 0 1 2.422.014l5.124 1.531a1.713.501.33 0 1-.004.709l-16.846 4.824a1.713.501.33 0 1-2.422-.014l-5.124-1.531a1.713.501.33 0 1 .004-.71" fill="#1a1a1a"/><path d="M294.651 282.758l16.846-4.824a1.713.501.33 0 1 2.423.014l5.124 1.531a1.713.501.33 0 1-.004.709l-16.846 4.823a1.713.501.33 0 1-2.422-.014l-5.125-1.53a1.713.501.33 0 1 .004-.71" fill="#666"/><path d="M308.726 287.178l16.846-4.824a1.713.501.33 0 1 2.423.014l5.124 1.531a1.713.501.33 0 1-.004.71l-16.846 4.823a1.713.501.33 0 1-2.422-.014l-5.125-1.531a1.713.501.33 0 1 .004-.709" fill="#1a1a1a"/><path d="M308.728 286.917l16.846-4.824a1.713.501.33 0 1 2.422.014l5.124 1.531a1.713.501.33 0 1-.004.709l-16.845 4.824a1.713.501.33 0 1-2.423-.014l-5.124-1.532a1.713.501.33 0 1 .004-.708" fill="#666"/></g><path transform="matrix(.94635 -.32314 0 1 623.78 596.21)" d="M-95.888-345.45h44.95a1.734 1.734 0 0 1 1.734 1.734v.257a1.734 1.734 0 0 1-1.734 1.734h-44.95a1.734 1.734 0 0 1-1.734-1.734v-.257a1.734 1.734 0 0 1 1.734-1.734" opacity=".96" stroke="url(#n)" stroke-width="2.131"/><path d="M242.32 247.44l281.8-82.778c1.632-.48 4.26-.482 5.892-.006l5.727 1.669c1.633.476 1.63 1.235.002 1.724l-278.08 83.523c-1.629.49-5.138 1.406-5.892 1.124l-9.452-3.532c-1.593-.595-1.634-1.244-.002-1.724z" fill="#1a1a1a"/><path d="M242.32 248.11l281.8-82.778c1.632-.48 4.26-.482 5.892-.006l5.727 1.669c1.633.476 1.63 1.235.002 1.724l-278.08 83.523c-1.629.49-5.138 1.405-5.892 1.124l-9.452-3.532c-1.593-.595-1.634-1.244-.002-1.724z" fill="#353733"/><path d="M226.92 255.67c-1.224.615-.75 1.59 1.053 2.171s4.27.552 5.494-.063.752-1.59-1.051-2.17-4.272-.553-5.496.062zm.856.276c.91-.458 2.719-.478 4.06-.047s1.686 1.146.776 1.604-2.719.478-4.06.046-1.686-1.146-.776-1.603zm.146.414l3.682 1.185.871-.438-3.681-1.186-.872.439z" fill="#fff"/><path d="M412.68 309.56l6.238 1.982-3.16 1.062-6.402-2.107zM420.69 306.96l6.238 1.982-3.16 1.062-6.402-2.107zM428.52 304.35l6.238 1.982-3.16 1.062-6.402-2.107zM436.15 301.93l6.238 1.982-3.16 1.062-6.402-2.107z" fill="#ccc"/><path d="M225.96 31.67l34.18-6.16 4.945 6.639c1.4 1.664.827 2.36-1.073 2.753l-29.134 6.01c-1.584.479-3.073-.31-3.952-1.583z"/><path d="M232.27 31.773a3.19 4.201-51.024 1 1 5.288 6.378 3.19 4.201-51.024 1 1-5.288-6.378z" fill="#fff" fill-opacity=".032"/><path d="M233.787 33.596a1.367 1.8-51.025 1 1 2.266 2.733 1.367 1.8-51.025 1 1-2.266-2.733z" fill="#fff" fill-opacity=".037"/><text transform="matrix(.99634 -.17309 .66365 .88838 623.78 596.21)" x="40.867" y="-623.594" font-family="Segoe UI" font-size="2.404" letter-spacing="0" opacity=".593" word-spacing="0"><tspan x="40.867" y="-623.594" fill="#fff" font-family="Microstyle Extended ATT">WebCAM</tspan></text><path d="M226.93 31.94l11.666-2.154c1.408 2.204 14.231 6.49 14.231 6.49l-17.808 3.735c-1.584.479-3.072-.31-3.952-1.583z" fill="#666" opacity=".23"/></svg>