<svg width="107.8mm" height="152.587" viewBox="0 0 381.984 143.049" xmlns="http://www.w3.org/2000/svg" xmlns:osb="http://www.openswatchbook.org/uri/2009/osb" xmlns:xlink="http://www.w3.org/1999/xlink"><defs><linearGradient id="a" osb:paint="gradient"><stop offset="0"/><stop stop-opacity="0" offset="1"/></linearGradient><filter id="d" x="-.137" y="-.147" width="1.273" height="1.294" color-interpolation-filters="sRGB"><feGaussianBlur stdDeviation="6.407"/></filter><linearGradient id="b" x1="344.18" x2="368.42" y1="418.29" y2="462.74" gradientTransform="translate(227.39 320.98)" gradientUnits="userSpaceOnUse" xlink:href="#a"/><filter id="c" x="-.033" y="-.04" width="1.066" height="1.08" color-interpolation-filters="sRGB"><feGaussianBlur stdDeviation="2.15"/></filter><filter id="f" x="-.008" y="-.021" width="1.017" height="1.041" color-interpolation-filters="sRGB"><feGaussianBlur stdDeviation=".434"/></filter><filter id="e" x="-.022" y="-.008" width="1.045" height="1.016" color-interpolation-filters="sRGB"><feGaussianBlur stdDeviation=".324"/></filter><linearGradient id="g" x1="474.06" x2="447.83" y1="413.7" y2="458.85" gradientTransform="matrix(-1 0 0 1 609.38 320.98)" gradientUnits="userSpaceOnUse" xlink:href="#a"/></defs><g transform="translate(-227.39 -320.98)"><path d="M389.63 414.1c0 16.568-15.597 29.56-30.229 36.69-15.354 7.481-30.143 10.183-52.466 6.317-42.656-7.387-74.385-53.38-74.385-87.333 0-33.952 43.891-49.445 85.777-35.355 51.77 17.414 71.302 45.73 71.302 79.681z" fill="url(#b)" filter="url(#c)"/><path d="M383.07 410.46c0 15.857-14.694 28.293-28.479 35.117-14.465 7.16-28.399 9.747-49.429 6.046-40.187-7.07-70.079-51.093-70.079-83.59s41.35-47.326 80.812-33.84c48.773 16.668 67.175 43.77 67.175 76.267z" fill="#007600"/><ellipse transform="matrix(.94619 0 0 .94203 -166.67 188.17)" cx="502.8" cy="208.63" rx="56.316" ry="52.275" fill="#ffc717" filter="url(#d)"/><path d="M345.294 428.858l-32.661-38.346 29.171 43.58-29.525-43.162 22.45 46.032-22.233-45.488 15.876 48.432-16.306-47.24 10.088 48.007-11.652-47.877 6.007 48.138-8.593-46.278 1.295 46.899-.967-48.27-4.264 49.419 2.094-48.605-7.607 48.93 6.848-48.422-14.04 46.788 14.678-48.942-20.659 45.244 18.537-44.563-26.732 42.636 25.788-43.848L273.1 433.76l30.126-42.318-37.064 37.905 35.511-37.98-40.181 32.76 40.85-33.773-44.236 31.138 42.282-31.763-44.832 26.565 45.652-25.255-50.21 19.754 48.723-20.724-50.145 14.205 50.28-14.434L248.494 400l50.587-12.555-53.14 5.16 52.067-5.953-52.745-.885 53.1-.567-52.355-4.418 52.882 3.465-53.006-11.059 53.545 11.278-52.57-15.46 53.282 13.834-49.517-21.316 49.775 22.258-46.978-27.033 45.507 24.235-42.703-30.13 44.14 30.45-39.816-33.291 40.822 32.189-36.994-38.249 35.537 36.947-30.003-41.038 31.984 40.716-25.93-41.73 25.973 41.835-19.31-45.746 19.494 43.875-12.718-46.585 14.809 46.588-9.003-48.126 11.012 47.732-6.014-48.394 5.863 49.039 1.288-49.576-.842 50.364 7.374-48.677-4.74 48.001 10.618-47.132-10.636 47.117 17.094-45.625-16.118 46.838 22.256-45.146-21.993 44.284 29.3-40.875-29.55 42.794 34.913-39.437-32.806 38.157 36.14-33.784-34.168 34.496 39.753-30.143-40.14 30.404 43.41-26.715L315.1 380.43l46.534-23.212-47.342 24.294 50.622-18.639-50.576 19.996 52.368-13.382L315.3 382.58l52.55-7.95-52.266 7.952 52.406-.237-50.545 3.288 51.397 1.558-52.404-1.306 52.044 8.526-51.935-8.358 49.953 13.353-51.142-12.492 50.321 17.365-50.24-15.306 48.567 22.165-48.193-22.592 42.896 28.816-44.303-28.636 42.851 33.469-42.147-31.964 35.793 34.114-38.085-34.343z" fill="#36690b"/><path d="M334.83 419.785l-24.777-31.439 22.13 35.731-22.398-35.388 17.03 37.74-16.866-37.294 12.044 39.708-12.37-38.73 7.653 39.359-8.84-39.253 4.558 39.467-6.52-37.942.983 38.451-.733-39.576-3.235 40.518 1.589-39.85-5.771 40.116 5.195-39.699-10.651 38.36 11.135-40.126-15.672 37.094 14.062-36.536-20.28 34.956 19.564-35.95-22.596 34.302 22.854-34.695-28.117 31.077 26.939-31.139-30.482 26.86 30.99-27.69-33.558 25.529 32.075-26.042-34.01 21.78 34.632-20.706-38.09 16.196 36.962-16.991-38.04 11.646 38.143-11.834-38.965 8.33 38.376-10.293-40.312 4.23 39.498-4.88-40.013-.726 40.282-.465-39.717-3.622 40.117 2.84-40.211-9.066 40.62 9.246-39.88-12.675 40.42 11.342-37.564-17.476 37.76 18.248-35.638-22.163 34.522 19.87-32.395-24.703 33.485 24.964-30.205-27.294 30.968 26.391-28.064-31.359 26.959 30.292-22.761-33.646 24.264 33.382-19.671-34.213 19.703 34.3-14.65-37.507 14.79 35.972-9.648-38.194 11.234 38.196-6.83-39.457 8.354 39.134-4.563-39.677 4.448 40.206.977-40.646-.639 41.292 5.595-39.909-3.597 39.355 8.056-38.642-8.07 38.63 12.969-37.407-12.227 38.401 16.883-37.014-16.684 36.307 22.227-33.512-22.417 35.086 26.486-32.334-24.887 31.284 27.416-27.698-25.92 28.282 30.157-24.713-30.45 24.927 32.93-21.903-31.955 22.972 35.3-19.03-35.913 19.917 38.402-15.28-38.367 16.393 39.727-10.972-38.998 10.735 39.865-6.517-39.65 6.518 39.756-.194-38.344 2.696 38.99 1.277-39.754-1.07 39.48 6.99-39.397-6.853 37.895 10.948-38.797-10.242 38.174 14.237-38.113-12.549 36.844 18.173-36.56-18.523 32.54 23.626-33.607-23.478 32.507 27.44-31.973-26.206 27.153 27.97-28.892-28.158z" fill="#833c00"/><path d="M334.83 420.796l-26.043-30.412 15.65 39.028-15.952-38.582 1.063 41.964-4.423-41.295-8.706 40.218 6.91-40.305-19.55 34.825 17.95-36.664-29.238 26.945 27.629-28.408-36.542 18.617 35.433-19.488-38.488 4.965 38.638-6.155-40.1-6.731 40.707 4.88-35.664-19.79 35.835 17.93-28.208-28.898 29.237 26.13-19.024-35.379 22.51 34.22-8.536-39.525 9.991 39.295 2.305-38.91-.52 38.481 15.401-37.116-14.79 38.09 27.472-30.257-24.756 31.592 32.474-21.348-30.914 22.561 38.141-9.552-38.348 13.401 40.737.315-40.46.283 38.248 12.441-39.032-10.851 33.048 23.384-33.17-21.811z" fill="#89690b"/><path d="M296.58 329.82c-3.292 10.001-3.637 23.987-3.637 40.055 0 30.335 7.745 54.928 17.3 54.928 9.553 0 17.298-24.592 17.298-54.928 0-11.985-.2-23.066-2.04-32.096a185.129 185.129 0 0 0-9.608-3.584 92.863 92.863 0 0 0-19.312-4.375z" filter="url(#e)"/><path d="M292.05 341.96c-15.1.001-28.732 4.292-37.531 12.578l9.932 4.228c28.687-16.836 77.007-2.902 95.508 14.828-17.832-21.438-44.608-31.637-67.908-31.635zm4.436 10.73c-11.208.09-21.617 2.406-30.021 6.934l17.959 7.644c31.853-9.886 63.534 3.392 82.947 15.22-19.32-20.048-46.917-29.992-70.885-29.798zm-46.756 7.48c-4.37 6.512-6.368 14.714-5.014 24.541 2.648-9.056 7.208-15.977 13.047-21.12l-8.033-3.42zm9.728 4.143c-7.953 6.584-12.916 15.96-13.154 28.146 9.22-10.08 18.886-17.025 28.65-21.55l-15.496-6.597z" fill="#fff" fill-rule="evenodd" filter="url(#f)" opacity=".419"/><path transform="matrix(-1 0 0 1 836.77 0)" d="M389.63 414.1c0 16.568-15.597 29.56-30.229 36.69-15.354 7.481-30.143 10.183-52.466 6.317-42.656-7.387-74.385-53.38-74.385-87.333 0-33.952 43.891-49.445 85.777-35.355 51.77 17.414 71.302 45.73 71.302 79.681z" fill="url(#g)" filter="url(#c)"/><path d="M453.71 410.46c0 15.857 14.694 28.293 28.479 35.117 14.465 7.16 28.399 9.747 49.429 6.046 40.187-7.07 70.079-51.093 70.079-83.59s-41.35-47.326-80.812-33.84c-48.773 16.668-67.175 43.77-67.175 76.267z" fill="#007600"/><ellipse transform="matrix(-.94619 0 0 .94203 1003.4 188.17)" cx="502.8" cy="208.63" rx="56.316" ry="52.275" fill="#ffc717" filter="url(#d)"/><path d="M491.466 428.858l32.661-38.346-29.171 43.58 29.525-43.162-22.45 46.032 22.233-45.488-15.876 48.432 16.306-47.24-10.088 48.007 11.652-47.877-6.007 48.138 8.593-46.278-1.295 46.899.967-48.27 4.264 49.419-2.094-48.605 7.607 48.93-6.848-48.422 14.04 46.788-14.678-48.942 20.659 45.244-18.537-44.563 26.732 42.636-25.788-43.848 29.786 41.838-30.126-42.318 37.064 37.905-35.511-37.98 40.181 32.76-40.85-33.773 44.236 31.138-42.282-31.763 44.832 26.565-45.652-25.255 50.21 19.754-48.723-20.724 50.145 14.205-50.28-14.434L588.266 400l-50.587-12.555 53.14 5.16-52.067-5.953 52.745-.885-53.1-.567 52.355-4.418-52.882 3.465 53.006-11.059-53.545 11.278 52.57-15.46-53.282 13.834 49.517-21.316-49.775 22.258 46.978-27.033-45.507 24.235 42.703-30.13-44.14 30.45 39.816-33.291-40.822 32.189 36.994-38.249-35.537 36.947 30.003-41.038-31.984 40.716 25.93-41.73-25.973 41.835 19.31-45.746-19.494 43.875 12.718-46.585-14.809 46.588 9.003-48.126-11.012 47.732 6.014-48.394-5.863 49.039-1.288-49.576.842 50.364-7.374-48.677 4.74 48.001-10.618-47.132 10.636 47.117-17.094-45.625 16.118 46.838-22.256-45.146 21.993 44.284-29.3-40.875 29.55 42.794-34.913-39.437 32.806 38.157-36.14-33.784 34.168 34.496-39.753-30.143 40.14 30.404-43.41-26.715 42.124 28.019-46.534-23.212 47.342 24.294-50.622-18.639 50.576 19.996-52.368-13.382 51.407 13.093-52.55-7.95 52.266 7.952-52.406-.237 50.545 3.288-51.397 1.558 52.404-1.306-52.044 8.526 51.935-8.358-49.953 13.353 51.142-12.492-50.321 17.365 50.24-15.306-48.567 22.165 48.193-22.592-42.896 28.816 44.303-28.636-42.851 33.469 42.147-31.964-35.793 34.114 38.085-34.343z" fill="#36690b"/><path d="M501.94 419.785l24.777-31.439-22.13 35.731 22.398-35.388-17.03 37.74 16.866-37.294-12.044 39.708 12.37-38.73-7.653 39.359 8.84-39.253-4.558 39.467 6.52-37.942-.983 38.451.734-39.576 3.234 40.518-1.588-39.85 5.77 40.116-5.195-39.699 10.651 38.36-11.135-40.126 15.672 37.094-14.062-36.536 20.28 34.956-19.564-35.95 22.596 34.302-22.854-34.695 28.117 31.077-26.939-31.139 30.482 26.86-30.99-27.69 33.558 25.529-32.075-26.042 34.01 21.78-34.632-20.706 38.09 16.196-36.962-16.991 38.04 11.646-38.143-11.834 38.965 8.33-38.376-10.293 40.312 4.23-39.498-4.88 40.013-.726-40.282-.465 39.717-3.622-40.117 2.84 40.211-9.066-40.62 9.246 39.88-12.675-40.42 11.342 37.564-17.476-37.76 18.248 35.638-22.163-34.522 19.87 32.395-24.703-33.485 24.964 30.205-27.294-30.968 26.391 28.064-31.359-26.959 30.292 22.761-33.646-24.264 33.382 19.671-34.213-19.703 34.3 14.65-37.507-14.79 35.972 9.648-38.194-11.234 38.196 6.83-39.457-8.354 39.134 4.563-39.677-4.448 40.206-.977-40.646.639 41.292-5.595-39.909 3.597 39.355-8.056-38.642 8.07 38.63-12.969-37.407 12.227 38.401-16.883-37.014 16.684 36.307-22.227-33.512 22.417 35.086-26.486-32.334 24.887 31.284-27.416-27.698 25.92 28.282-30.157-24.713 30.45 24.927-32.93-21.903 31.955 22.972-35.3-19.03 35.913 19.917-38.402-15.28 38.367 16.393-39.727-10.972 38.998 10.735-39.865-6.517 39.65 6.518-39.756-.194 38.344 2.696-38.99 1.277 39.754-1.07-39.48 6.99 39.397-6.853-37.895 10.948 38.797-10.242-38.174 14.237 38.113-12.549-36.844 18.173 36.56-18.523-32.54 23.626 33.607-23.478-32.507 27.44 31.973-26.206-27.153 27.97 28.892-28.158z" fill="#833c00"/><path d="M501.94 420.796l26.043-30.412-15.65 39.028 15.952-38.582-1.063 41.964 4.423-41.295 8.706 40.218-6.91-40.305 19.55 34.825-17.95-36.664 29.238 26.945-27.629-28.408 36.542 18.617-35.433-19.488 38.488 4.965-38.638-6.155 40.1-6.731-40.707 4.88 35.664-19.79-35.835 17.93 28.208-28.898-29.237 26.13 19.024-35.379-22.51 34.22 8.536-39.525-9.991 39.295-2.305-38.91.52 38.481-15.401-37.116 14.79 38.09-27.472-30.257 24.756 31.592-32.474-21.348 30.914 22.561-38.141-9.552 38.348 13.401-40.737.315 40.46.283-38.248 12.441 39.032-10.851-33.048 23.384 33.17-21.811z" fill="#89690b"/><path transform="matrix(-1 0 0 1 836.77 0)" d="M296.58 329.82c-3.292 10.001-3.637 23.987-3.637 40.055 0 30.335 7.745 54.928 17.3 54.928 9.553 0 17.298-24.592 17.298-54.928 0-11.985-.2-23.066-2.04-32.096a185.129 185.129 0 0 0-9.608-3.584 92.863 92.863 0 0 0-19.312-4.375z" filter="url(#e)"/><path transform="matrix(.86617 0 0 .8814 83.784 40.558)" d="M517.15 341.96c-15.1.001-28.732 4.292-37.531 12.578l9.932 4.228c28.687-16.836 77.007-2.902 95.508 14.828-17.832-21.438-44.608-31.637-67.908-31.635zm4.436 10.73c-11.208.09-21.617 2.406-30.021 6.934l17.959 7.644c31.853-9.886 63.534 3.392 82.947 15.22-19.32-20.048-46.917-29.992-70.885-29.798zm-46.756 7.48c-4.37 6.512-6.368 14.714-5.014 24.541 2.648-9.056 7.208-15.977 13.047-21.12l-8.033-3.42zm9.728 4.143c-7.953 6.584-12.916 15.96-13.154 28.146 9.22-10.08 18.886-17.025 28.65-21.55l-15.496-6.597z" fill="#fff" fill-rule="evenodd" filter="url(#f)" opacity=".419"/></g></svg>