<svg viewBox="0 0 474.004 446.676" xmlns="http://www.w3.org/2000/svg" xmlns:xlink="http://www.w3.org/1999/xlink"><defs><linearGradient id="a"><stop stop-color="#ffb142" offset="0"/><stop stop-color="#c87600" offset="1"/></linearGradient><linearGradient id="i" x1="347.48" x2="355.97" gradientUnits="userSpaceOnUse" xlink:href="#a"/><linearGradient id="h" x1="186.21" x2="186.21" y1="354.02" y2="362.28" gradientUnits="userSpaceOnUse" xlink:href="#a"/><linearGradient id="g" x1="195.75" x2="195.75" y1="354.02" y2="362.28" gradientUnits="userSpaceOnUse" xlink:href="#a"/><linearGradient id="f" x1="176.39" x2="176.39" y1="354.02" y2="362.28" gradientUnits="userSpaceOnUse" xlink:href="#a"/><linearGradient id="e" x1="229.44" x2="229.44" y1="354.02" y2="362.28" gradientUnits="userSpaceOnUse" xlink:href="#a"/><linearGradient id="d" x1="238.98" x2="238.98" y1="354.02" y2="362.28" gradientUnits="userSpaceOnUse" xlink:href="#a"/><linearGradient id="c" x1="219.61" x2="219.61" y1="354.02" y2="362.28" gradientUnits="userSpaceOnUse" xlink:href="#a"/><pattern id="b" width="2" height="1" patternTransform="matrix(0 4.4721 -4.4721 0 -50.004 0)" patternUnits="userSpaceOnUse"><path d="M0-.5h1v2H0z"/></pattern></defs><path d="M10.8 444.63l9.9-18.385c-19.8-57.983 0-95.459 0-95.459l-9.9 18.385s-19.799 37.477 0 95.459z" fill="#400000" fill-rule="evenodd" stroke="#000" stroke-linecap="round" stroke-linejoin="round" stroke-width="4"/><path d="M11.01 444.68h461L340.17 216.32H143.01l-132 228.36z" fill="maroon" fill-rule="evenodd" stroke="#000" stroke-linejoin="round" stroke-width="4"/><path d="M143 216.31L14.47 438.69H456L327.62 216.31H143z" fill-opacity=".314" fill-rule="evenodd"/><path d="M20.7 426.95c-19.799-57.983 0-95.459 0-95.459l421.79.354v95.106H20.7z" fill="#fff" fill-rule="evenodd" stroke="#000" stroke-linecap="round" stroke-width="4"/><path d="M132.87 793.15c-19.799-57.983 0-95.459 0-95.459l421.79.354v95.106H132.87z" fill="url(#b)" fill-rule="evenodd" opacity=".193" stroke="#000" stroke-linecap="round" stroke-width="4" transform="translate(-112.17 -366.2)"/><path d="M11.01 348.63h461L340.17 120.27H143.01l-132 228.36z" fill="maroon" fill-rule="evenodd" stroke="#000" stroke-linejoin="round" stroke-width="4"/><path d="M429.67 294.073a165.565 46.565 0 1 1-331.13 0 165.565 46.565 0 1 1 331.13 0z" fill-opacity=".314"/><path transform="matrix(1.7812 0 0 1.7055 -147.179 -258.09)" d="M214 353.13a8 13.5 0 1 1-16 0 8 13.5 0 1 1 16 0z" fill="url(#c)" stroke="#000" stroke-linecap="round" stroke-linejoin="round" stroke-width="2.869"/><path transform="matrix(1.7812 0 0 1.7055 -181.679 -258.09)" d="M214 353.13a8 13.5 0 1 1-16 0 8 13.5 0 1 1 16 0z" fill="url(#d)" stroke="#000" stroke-linecap="round" stroke-linejoin="round" stroke-width="2.869"/><path transform="matrix(1.7812 0 0 1.7055 -164.679 -258.09)" d="M214 353.13a8 13.5 0 1 1-16 0 8 13.5 0 1 1 16 0z" fill="url(#e)" stroke="#000" stroke-linecap="round" stroke-linejoin="round" stroke-width="2.869"/><path transform="matrix(1.7812 0 0 1.7055 -70.179 -258.09)" d="M214 353.13a8 13.5 0 1 1-16 0 8 13.5 0 1 1 16 0z" fill="url(#f)" stroke="#000" stroke-linecap="round" stroke-linejoin="round" stroke-width="2.869"/><path transform="matrix(1.7812 0 0 1.7055 -104.679 -258.09)" d="M214 353.13a8 13.5 0 1 1-16 0 8 13.5 0 1 1 16 0z" fill="url(#g)" stroke="#000" stroke-linecap="round" stroke-linejoin="round" stroke-width="2.869"/><path transform="matrix(1.7812 0 0 1.7055 -87.679 -258.09)" d="M214 353.13a8 13.5 0 1 1-16 0 8 13.5 0 1 1 16 0z" fill="url(#h)" stroke="#000" stroke-linecap="round" stroke-linejoin="round" stroke-width="2.869"/><path d="M185.26 321.12c-5.806 0-10.78 5.63-13 13.688 18.971 5.074 39.814 8.034 61.719 8.438-.298-12.285-6.543-22.125-14.219-22.125-3.3 0-6.333 1.827-8.75 4.875-2.417-3.048-5.45-4.875-8.75-4.875-3.186 0-6.126 1.704-8.5 4.562-2.374-2.858-5.314-4.563-8.5-4.563zm77 0c-7.656 0-13.891 9.79-14.219 22.031 21.881-.704 42.616-3.984 61.438-9.344-2.347-7.515-7.157-12.687-12.719-12.688-3.3 0-6.333 1.828-8.75 4.875-2.417-3.047-5.45-4.875-8.75-4.875-3.186 0-6.126 1.705-8.5 4.563-2.374-2.858-5.314-4.563-8.5-4.563z" fill-opacity=".314"/><path d="M404.67 168.07a165.565 165.565 0 1 1-331.13 0 165.565 165.565 0 1 1 331.13 0z" fill="#784421" stroke="#000" stroke-linecap="round" stroke-width="5"/><path d="M320.924 250.825c-26.498-4.924-2.247 21.63-6.31 31.231-16.064-7.898-9.943 18.25-17.206 25.513-13.764-.736-15.911 13.143-25.513 17.206-11.601-6.437-20.156 6.31-31.231 6.31s-17.631-12.247-31.232-6.31c-9.601-4.064-11.75-17.443-25.513-17.206-7.263-7.264-6.143-34.911-17.205-25.513-4.064-9.601 14.688-38.155-6.31-31.231 0-11.077 22.246-31.63 6.31-31.232 4.063-9.601 24.442-16.749 17.205-25.513 14.528-14.528 34.593-23.517 56.746-23.517s42.218 8.99 56.745 23.517c-10.735 5.264 13.143 15.912 17.206 25.513-17.936-.898 6.31 20.156 6.31 31.232z" fill="#fff" stroke="#000" stroke-linecap="round" stroke-linejoin="round" stroke-width="5.0001196"/><path d="M385.39 90.5a166.053 166.053 0 0 1 3.031 31.594c0 3.73-.132 7.425-.375 11.094-3.672-.183-7.578.019-11.75.625-35.215 7.499-20.173 51.664-29.344 97.875-30.342 34.329-74.709 55.969-124.09 55.969-30.373 0-58.832-8.207-83.312-22.5-23.679-55.443 8.076-115.66-33.656-126.06-46.11-8.325-63.97 34.456-34.156 98.562 16.461 35.394 43.723 52.78 63.781 59.531 28.363 22.8 64.392 36.438 103.59 36.438 45.95 0 87.557-18.739 117.56-49 17.454-8.717 36.862-24.595 50.344-51.156 25.212-49.671 20.385-87.078-5.469-97.438a164.474 164.474 0 0 0-16.156-45.531z" fill-opacity=".314" fill-rule="evenodd"/><path d="M105.75 131.05c48.111 17.3-14.163 94.143 37.819 161.19 9.608 12.393-57.868 2.09-81.723-66.585-23.198-66.786-1.132-107.54 43.904-94.607zM372.19 131.05c-48.111 17.3 14.163 94.143-37.819 161.19-9.608 12.393 57.868 2.09 81.723-66.585 23.198-66.786 1.132-107.54-43.904-94.607z" fill="#784421" fill-rule="evenodd" stroke="#000" stroke-width="5"/><path d="M354.51 122c13.389-4.609 27.221 7.584 29.865 14.18-13.512-3.452-19.72-4.426-23.218-1.38 1.507 3.37 17.408 6.741 22.337 28.87-12.429-8.616-22.304-18.576-26.272-14.483 2.882 5.034 6.2 14.497 3.964 23.881-7.142-9.424-14.44-19.378-21.142-19.648" fill="#784421" fill-rule="evenodd" stroke="#000" stroke-linecap="round" stroke-linejoin="round" stroke-width="5"/><path d="M193.15 40.27c-31.234 0-56.603 29.331-56.603 65.472s25.369 65.472 56.603 65.472c18.356 0 34.644-10.141 44.985-25.829 10.34 15.7 26.664 25.829 45.027 25.829 31.234 0 56.603-29.331 56.603-65.472S314.396 40.27 283.162 40.27c-18.361 0-34.687 10.133-45.027 25.829-10.341-15.685-26.631-25.829-44.985-25.829z" fill="#fff" stroke="#000" stroke-linecap="round" stroke-width="5"/><path d="M239.85 151.17c-9.288 0-19.384 10.327-18.98 16.85s16.557 33.699 20.191 33.699 17.768-26.633 17.365-34.243-12.519-16.85-18.576-16.306z" fill-opacity=".314" fill-rule="evenodd"/><path d="M349.9 506.77c-9.288 0-19.384 9.306-18.98 15.184s16.557 30.368 20.191 30.368 17.768-24 17.365-30.857-12.519-15.184-18.576-14.694z" fill="url(#i)" fill-rule="evenodd" stroke="#000" stroke-width="5" transform="translate(-112.17 -366.2)"/><path d="M234.543 110.155a16.387 16.387 0 1 1-32.773 0 16.387 16.387 0 1 1 32.773 0z" stroke="#000" stroke-linecap="round" stroke-width="4.9994144"/><path d="M123.15 122c-13.389-4.609-27.221 7.584-29.865 14.18 13.512-3.452 19.72-4.426 23.218-1.38-1.507 3.37-17.408 6.741-22.337 28.87 12.429-8.616 22.304-18.576 26.272-14.483-2.882 5.034-6.2 14.497-3.964 23.881 7.142-9.424 14.44-19.378 21.142-19.648" fill="#784421" fill-rule="evenodd" stroke="#000" stroke-linecap="round" stroke-linejoin="round" stroke-width="5"/><path d="M251.98 51.28c13.276-32.16 35.666-36.513 35.666-36.513s-12.453 16.775-1.174 12.109c17.465-7.226 72.997 15.418 72.997 15.418s-73.574-17.126-107.49 8.986zM221.54 48.28c-13.276-32.16-35.666-36.513-35.666-36.513s12.453 16.775 1.174 12.109c-17.465-7.226-72.997 15.418-72.997 15.418s73.574-17.126 107.49 8.986z" fill="#fff" fill-rule="evenodd" stroke="#000" stroke-linejoin="round" stroke-width="5"/><path d="M276.043 110.155a16.387 16.387 0 1 1-32.773 0 16.387 16.387 0 1 1 32.773 0z" stroke="#000" stroke-linecap="round" stroke-width="4.9994144"/><path d="M216.504 104.428a4.25 4.25 0 1 1-8.5 0 4.25 4.25 0 1 1 8.5 0zM258.004 104.428a4.25 4.25 0 1 1-8.5 0 4.25 4.25 0 1 1 8.5 0z" fill="#fff"/><path d="M387.95 128.66c-.413 0-.832.02-1.25.031 16.212 13.065 23.073 43.297 14.781 85.344-11.023 55.895-53.577 80.008-67.719 81.281 4.592 6.527 60.971-8.126 82.344-69.656 20.299-58.438 5.92-96.95-28.156-97zM54.073 160.84c-3.452 16.506-1.299 38.673 7.78 64.812 23.856 68.676 91.328 78.987 81.72 66.594-4.11-5.3-7.52-10.675-10.312-16.062-18.952-4.541-54.048-24.376-69.906-70.031-5.88-16.927-8.854-32.18-9.282-45.312zm71.28 6.344c-.882 8.536-1.856 17.612-2.28 27.125.993-9.79 2.079-18.941 2.28-27.125zM120.94 390.18h-56.5s-12.827 5.533 10.578 34.583c-.104-19.367 14.853-20.75 14.853-20.75s19.604 19.367 40.863 27.667c-25.535-33.2-7.73-39.425-9.794-41.5z" fill-opacity=".314" fill-rule="evenodd"/><path d="M119.59 390.68h-56.5s-17 4-15.5 25c14.5-14 30.5-15 30.5-15s5 14 20 20c-.5-24 22-28.5 21.5-30z" fill="navy" fill-rule="evenodd" stroke="#000" stroke-linejoin="round" stroke-width="4"/></svg>