<svg xmlns="http://www.w3.org/2000/svg" id="Layer_1" data-name="Layer 1" viewBox="0 0 450 450"><defs><style>.cls-1{fill:#f4d3b8}.cls-2{fill:#f2caad}.cls-3{fill:#f1c9a5}.cls-4{fill:#3d1c0f}.cls-5{fill:#ee2a7b}.cls-7{fill:#ddac8c;opacity:.1;isolation:isolate}.cls-9{fill:#2e150b}.cls-10{fill:#b80308}.cls-11{fill:#654521}.cls-14{fill:#85562b}.cls-16{fill:#262421}.cls-17{fill:#fff}.cls-19{fill:#056c8e}.cls-20{fill:#6bbfb0}.cls-25{fill:#1c4760}.cls-26{fill:#d1c6c6}.cls-30{fill:#f26e22}</style></defs><path class="cls-1" d="M76.2 252.44c-5.91 7.47.82 36 .82 36s16.38 24.34 25.86 25.09c12-1.61 26.69-5 26.69-5L98 236.27s-13.81 8.09-21.81 16.17z"/><path class="cls-1" d="M77 288.47s-6.71-28.56-.82-36c8-8.11 21.81-16.17 21.81-16.17l15.78 36.14L77 288.47z"/><path class="cls-1" transform="matrix(.92 -.4 .4 .92 -109.95 53.55)" d="M60.28 282.25h25.99v15.72H60.28z"/><path class="cls-1" transform="rotate(-23.58 71.729 286.552)" d="M58.7 282.58h25.99v7.85H58.7z"/><path class="cls-2" d="M75.55 297.69c3.11-2.9 2.93-9 1.26-12.88a14.64 14.64 0 0 0-2.42-3.81l-16.17 7.06 6.29 14.4 11-4.82z"/><path class="cls-1" d="M38.26 283.34C23.39 289.84 18.56 301.82 23 312s16.53 14.82 31.41 8.33 23.32-20.06 18.86-30.27-20.13-13.21-35.01-6.72z"/><path class="cls-3" d="M49.8 281.68c1.09 3.52-1.71 7.44-6.27 8.75s-9.16-.45-10.25-4 1.72-7.43 6.27-8.72 9.15.45 10.25 3.97z"/><path class="cls-1" d="M38.26 283.34C23.39 289.84 18.56 301.82 23 312l50.27-21.95c-4.46-10.17-20.13-13.2-35.01-6.71z"/><path class="cls-4" d="M72.05 305a22 22 0 0 1-13.63 9.41c-9.24 1.93-12.65-1.87-16.45-.21 5.54-11.22-6-10-5.22-22.31.49-4.45 12.83-12.95 19.18-11.91-14.76-11.5-45.51 7.54-40.94 27.35C24.32 348 83.83 336.8 72.05 305z"/><path class="cls-5" d="M32.24 308a21.1 21.1 0 0 1 7.48-26 21.19 21.19 0 1 0 16.68 38.2A21.09 21.09 0 0 1 32.24 308zM88.55 303.18c1.83-3.89 5.84-15.77 3.45-21.25-3.14-7.19-18.13-14.62-18.13-14.62l.25 3.35a32.22 32.22 0 0 0 1.39 10.2c12.32 3.14 6.3 14.08 6.31 14.14a36.6 36.6 0 0 0 6.73 8.22z"/><path d="M76.2 252.44c-2 2.53-2.54 7.47-2.4 12.89a23.46 23.46 0 0 1 18 41.23c3.88 3.8 7.89 6.76 11.08 7 12-1.61 26.69-5 26.69-5L98 236.27s-13.81 8.09-21.81 16.17z" fill="#733578"/><path class="cls-3" d="M255.55 373.26c6.82 5.61 33.16-.14 33.16-.14s22.57-14.75 23.35-23.55c-1.37-11.17-4.36-24.83-4.36-24.83l-66.8 28s7.26 12.95 14.65 20.52z"/><path class="cls-3" d="M288.72 373.15s-26.34 5.75-33.16.14c-7.39-7.57-14.65-20.52-14.65-20.52l33.4-14 14.41 34.38z"/><path class="cls-3" transform="rotate(-22.74 290.212 376.662)" d="M282.97 364.55h14.42v24.16h-14.42z"/><path class="cls-3" transform="rotate(-22.74 286.903 378.066)" d="M283.25 365.95h7.21v24.16h-7.21z"/><path class="cls-7" d="M297.17 374.66c-2.63-2.93-8.3-2.86-11.82-1.39a12.8 12.8 0 0 0-3.48 2.18l6.33 15.11 13.3-5.56-4.33-10.33z"/><path class="cls-3" d="M283.62 409c5.83 13.91 16.81 18.61 26.24 14.65s13.79-15.07 8-29c-7.85-18.72-18.22-22-27.66-18s-14.11 14.41-6.58 32.35z"/><path class="cls-3" d="M282.17 398.27c3.24-1 6.75 1.49 7.78 5.49s-.69 8.07-3.92 9-6.72-1.51-7.78-5.49.69-8.04 3.92-9zM320.26 389.69c2.11 3.58 1.43 7.8-1.54 9.4s-7.08 0-9.19-3.53-1.43-7.8 1.54-9.4 7.08-.05 9.19 3.53z"/><path class="cls-3" d="M283.62 409c5.83 13.91 16.81 18.61 26.24 14.65l-19.7-47c-9.44 3.97-14.07 14.41-6.54 32.35z"/><path d="M255.55 373.26c4.39 3.6 16.73 2.53 25.08 1.3a8 8 0 0 1 14.77-6.19c6.73-5.09 16.14-13.14 16.65-18.8-1.37-11.17-4.36-24.83-4.36-24.83l-66.8 28s7.27 12.95 14.66 20.52z" fill="#388ebf"/><path class="cls-9" d="M290.69 430.44c4 2.82 16.79.35 28.25-6a.42.42 0 0 1 0-.2c13.07-9.73 6.86-22-.26-27-.94-2-2-4.23-3.33-6.92 0 0-.4 4.89 1.76 13.06 0 .44-.09.9-.15 1.36-9.69-3.43-18.3-.87-25.91 11.33-2.93-6.23-6.43-9.41-9.83-11.41.56 2 1.07 3.84 1.55 5.51-1 8.32 4.24 17.68 8 20.29z"/><path class="cls-3" d="M102.1 141.84c-8.79.86-23.35 23.54-23.35 23.54s-5.52 26.39.14 33.16C87.76 205.48 99.54 213 99.54 213L127 146s-14.32-4-24.9-4.16z"/><path class="cls-3" d="M78.72 165.38s14.56-22.69 23.35-23.54c10.57.13 24.87 4.15 24.87 4.15l-13.72 33.51-34.5-14.12z"/><path class="cls-3" transform="rotate(-67.74 75.232 163.952)" d="M68.02 151.87h14.42v24.16H68.02z"/><path class="cls-3" transform="rotate(-67.74 76.598 160.612)" d="M72.99 148.53h7.21v24.16h-7.21z"/><path class="cls-7" d="M71.68 170.29c3.93.21 7.89-3.84 9.34-7.38a12.8 12.8 0 0 0 .92-4l-15.16-6.2L61.32 166l10.36 4.24z"/><path class="cls-3" d="M57 136.41c-14-5.71-25-1.27-28.92 8.2S29 165 42.93 170.72c18.79 7.69 28.42 2.66 32.3-6.81S75 143.78 57 136.41z"/><path class="cls-3" d="M65.59 143c-1.61 3-5.83 3.72-9.39 1.62s-5.22-6.19-3.61-9.16 5.82-3.69 9.39-1.62S67.2 140 65.59 143zM44.72 176c-4-1-6.52-4.5-5.56-7.73s5-5 9-4 6.52 4.5 5.56 7.73-4.97 5-9 4z"/><path class="cls-3" d="M57 136.41c-14-5.71-25-1.27-28.92 8.2l47.17 19.31c3.85-9.48-.25-20.14-18.25-27.51z"/><path class="cls-10" d="M102.1 141.84c-5.65.56-13.62 10-18.66 16.81a8 8 0 0 1-6.07 14.82c-1.16 8.36-2.12 20.71 1.52 25.07C87.76 205.48 99.54 213 99.54 213L127 146s-14.32-4-24.9-4.16z"/><path class="cls-9" d="M36.82 126.26c-4.84.86-12.12 11.63-15.73 24.22a.42.42 0 0 1 .17.11C18.9 166.71 32 171 40.56 169.5c2.07.74 4.42 1.56 7.25 2.54 0 0-3.17-3.74-10.48-8-.29-.34-.57-.7-.86-1.07 9.28-4.42 13.56-12.33 10.31-26.33 6.48 2.33 11.2 2.11 15 1.12-1.84-1-3.47-2-5-2.8-5.16-6.6-15.5-9.5-20-8.72z"/><path class="cls-11" d="M379.75 294.19c4.56-7.31 1.36 5.17 2 5.79a83 83 0 0 0 9.3 7.6c-.24 1.16 1 5.42.76 6.57-3.95-1.42-8.43-8.48-9.66-11.06-1-2-2.59-6.92-2.4-8.9zM381.34 280.86l-9.56-8.66c0-.48-.08-1-.13-1.41 2.88.46 6.22-1.15 8.45 2.11a2.55 2.55 0 0 0 2.22.74c4.37-1.54 6.13 2.9 9.36 3.92.11 0 0 .65 0 1-2.23 1.42-4.46 2.85-6.69 4.25-1.48-.14-2.41-1.36-3.69-1.94z"/><path class="cls-1" d="M353.61 310.66c8.9-1.3 22.64-25.12 22.64-25.12s4.3-27.14-1.79-33.77c-9.39-6.61-21.72-13.75-21.72-13.75l-24.65 69.66s14.77 3.35 25.54 3z"/><path class="cls-1" d="M376.24 285.53s-13.73 23.8-22.64 25.12c-10.76.37-25.54-3-25.54-3l12.33-34.83 35.85 12.69z"/><path class="cls-1" transform="rotate(-70.51 383.11 286.59)" d="M375.74 274.28h14.72v24.63h-14.72z"/><path class="cls-1" transform="rotate(-70.51 381.89 290.044)" d="M378.2 277.73h7.36v24.63h-7.36z"/><path class="cls-2" d="M386.43 280c-4 0-7.87 4.29-9.18 8a13.19 13.19 0 0 0-.75 4.11l15.76 5.58 4.91-13.88-10.74-3.81z"/><path class="cls-1" d="M399.83 314c14.51 5.13 25.57.07 29.06-9.79s-1.92-20.75-16.43-25.89-29.09-1.32-32.58 8.54 5.45 21.96 19.95 27.14z"/><path class="cls-3" d="M390.74 307.69c1.52-3.11 6-4 10-1.94s6.05 6.2 4.54 9.3-6 4-10 1.94-6.05-6.21-4.54-9.3z"/><path class="cls-1" d="M406.15 271.56c4.41 1 7.33 4.44 6.54 7.79s-5 5.31-9.38 4.37-7.33-4.44-6.54-7.79 4.99-5.32 9.38-4.37zM399.83 314c14.51 5.13 25.57.07 29.06-9.79l-49-17.35c-3.5 9.82 5.44 21.96 19.94 27.14z"/><path d="M377.7 268.07c-3.78 1.46-14.21 7-16.08 12.29-2.46 6.94 3.14 21.64 3.14 21.64l2-2.46a29.26 29.26 0 0 0 5.61-7.87c-6.53-10.07 4.69-13.67 4.69-13.67a32.54 32.54 0 0 0 .64-9.93z" fill="#ff9800"/><path d="M353.61 310.66c3-.45 6.58-3.46 10-7.25a21.88 21.88 0 0 1 14-39.69c-.24-5.1-1.13-9.67-3.18-11.9-9.39-6.61-21.72-13.75-21.72-13.75l-24.64 69.61s14.77 3.35 25.54 3z" fill="#8bc34a"/><path class="cls-14" d="M426.23 305.78c2.73-.37 5.94-3 8.6-2.09-3 8.66-10.48 16-19.21 15.58-1.17-.05-2.36-.08-3.56-.12-3.23-.83-8.1 1.66-10.86-1.22a6.24 6.24 0 0 1 4.94-4.21c2.81-.39 5.6-1.06 8.41-1.57a19.9 19.9 0 0 0 11.67-6.38z"/><path class="cls-14" d="M426.12 306.08c4.84-.62 6.74 1.63 8.7-2.39.86-1.74.65-5.9.51-7.77a26.11 26.11 0 0 0-6.28-15.12 36.15 36.15 0 0 0-16.75-10.89c-6.95-2.09-13.83-.39-20.61-1.55-5.07-.87-11.46-5.56-16.3-5.77-1.23 0-2.77.75-3.79.68a2.5 2.5 0 0 1-1.08 1.39 8.61 8.61 0 0 0-3.37-1.88c-6.08-.69-13-1.79-18.95-1.38-5 .34-3.95.5-5.83 5.82 7.14-1.88 15.66 2.16 22.62 3 7.19.92 13.45 4.08 20.51 6.33 3.91 1.26-.58 1.37 5 1.34 2.76 0 6.65-1.05 9.29-1.65 5.7-1.32 4.61-1.68 9.28 1.63 5.15 3.67 6.51 4.83 7.56 11.29 1.14 6.75.72 15.22 9.47 16.88 2.7-.36-2.46-.46 0 0z"/><path class="cls-3" d="M375.11 202.06c6.24-6.83 1.65-34.7 1.65-34.7s-14.24-24.36-23.38-25.69c-11.76.84-26.21 3.2-26.21 3.2l25.68 71.37s13.93-6.89 22.26-14.18z"/><path class="cls-3" d="M376.76 167.36s4.57 27.87-1.65 34.7c-8.32 7.32-22.24 14.24-22.24 14.24L340 180.61l36.74-13.22z"/><path class="cls-3" transform="rotate(-19.79 380.492 166.026)" d="M367.84 158.46h25.3v15.12h-25.3z"/><path class="cls-3" transform="rotate(-19.79 381.761 169.585)" d="M369.12 165.8h25.3v7.56h-25.3z"/><path class="cls-7" d="M378.82 158.59c-3.21 2.59-3.46 8.51-2.09 12.31a13.61 13.61 0 0 0 2.09 3.75l16.18-5.81-5.12-14.23z"/><path class="cls-3" d="M414 174.62c14.86-5.35 20.37-16.58 16.73-26.68s-15-15.25-29.89-9.9c-20 7.2-24 17.88-20.35 28s14.35 15.47 33.51 8.58z"/><path class="cls-3" d="M402.06 173.8c-.84-3.44 1.93-7 6.18-7.87s8.39 1.14 9.24 4.6-1.93 7-6.19 7.85-8.38-1.12-9.23-4.58zM396.4 137c3.86-2 8.23-1.08 9.77 2.11s-.35 7.42-4.19 9.44-8.24 1.06-9.78-2.13.36-7.4 4.2-9.41z"/><path class="cls-3" d="M414 174.62c14.86-5.35 20.37-16.58 16.73-26.68L380.49 166c3.65 10.11 14.35 15.51 33.51 8.62z"/><path d="M375.11 202.06c3.63-4 3.6-15.14 2.92-23.72l-15.18-5.94 7.92-14.25c-4.95-7-12-15.67-17.37-16.42-11.76.84-26.21 3.2-26.21 3.2l25.68 71.37s13.91-6.95 22.24-14.24z" fill="#976c4b"/><path class="cls-16" d="M394 143.17s18-7.17 20 5.32c-4.46 1.45.17 7.92.17 7.92s8.1 7.77 17.84 2.92c2.47-17-10.35-24.94-15.39-26s-17.44 1.94-22.62 9.84z"/><path class="cls-16" d="M427.27 159c-6.32-1.78-8.84 11.24-20.93 15.59 7.75 2 29.56-.69 25.69-15.26a32.63 32.63 0 0 0-4.76-.33z"/><path class="cls-17" d="M365.11 186.3l4.5-10.56-6.77-3.4 15.35 4.18a5.12 5.12 0 0 1-2 5c-4.67 2.05-11.09 4.76-11.09 4.76z"/><path fill="#ca9063" d="M339.01 177.79l1 2.8 22.85-8.22 1.64-3.75-25.49 9.17z"/><path class="cls-17" d="M355.71 160.17l10.2 5.27-3 6.93 9.16-13a5.12 5.12 0 0 0-4.73-2.6c-4.9 1.42-11.58 3.4-11.58 3.4z"/><path class="cls-3" d="M141.2 347.79c.42 9.24 23.37 25.7 23.37 25.7s27.32 7.18 34.7 1.64c7.73-8.91 16.27-20.8 16.27-20.8L146.91 322s-4.98 14.75-5.71 25.79z"/><path class="cls-3" d="M164.57 373.49s-22.94-16.49-23.37-25.7c.71-11.06 5.66-25.8 5.66-25.8l34.31 16.15-16.63 35.33z"/><path class="cls-3" transform="rotate(-64.79 162.877 377.078)" d="M150.23 369.52h25.3v15.12h-25.3z"/><path class="cls-3" transform="rotate(-64.79 159.455 375.47)" d="M146.81 371.69h25.3v7.56h-25.3z"/><path class="cls-7" d="M169.31 381.16c.44-4.1-3.57-8.47-7.23-10.19a13.61 13.61 0 0 0-4.14-1.17l-7.31 15.53 13.68 6.44z"/><path class="cls-3" d="M133.1 394.7c-6.73 14.29-2.67 26.13 7 30.7s21.41.15 28.14-14.14c9.06-19.23 4.31-29.6-5.4-34.17s-21.07-.82-29.74 17.61z"/><path class="cls-3" d="M142.12 386.84c3 1.84 3.55 6.28 1.2 9.94s-6.74 5.13-9.79 3.28-3.55-6.28-1.17-9.93 6.72-5.14 9.77-3.29zM172.16 408.86c-1.3 4.16-5.06 6.58-8.4 5.42s-5-5.5-3.71-9.63 5.08-6.57 8.42-5.41 5 5.49 3.69 9.62z"/><path class="cls-3" d="M133.1 394.7c-6.73 14.29-2.67 26.13 7 30.7l22.74-48.31c-9.68-4.56-21.07-.82-29.74 17.61z"/><path class="cls-19" d="M141.2 347.79c.25 5.39 8.16 13.25 14.71 18.84l14.94-6.54 4.48 15.68c8.48 1.48 19.58 2.57 23.89-.67 7.73-8.91 16.27-20.8 16.27-20.8L146.86 322s-4.93 14.75-5.66 25.79z"/><path class="cls-16" d="M169.51 402.76s-7.66 17.85-18 10.44c2.13-4.18-5.72-5.48-5.72-5.48s-11.22.23-14.67 10.55c10.28 13.78 25 10.31 29.3 7.53s10.99-13.8 9.09-23.04z"/><path class="cls-16" d="M134.78 415.15c5.73-3.2-1.7-14.2 3.78-25.83-6.9 4.06-20.41 21.39-7.37 29a32.63 32.63 0 0 0 3.6-3.13z"/><path class="cls-17" d="M159.41 351.87l4.28 10.65 7.19-2.38-13.81 7.86a5.12 5.12 0 0 1-2.14-4.95c1.85-4.75 4.48-11.21 4.48-11.21z"/><path class="cls-20" d="M183.89 339.43l-2.69-1.27-10.34 21.97 1.48 3.81 11.55-24.51z"/><path class="cls-17" d="M184.54 363.7l-10.93 3.48-2.75-7.06 2.71 15.67a5.12 5.12 0 0 0 5.18-1.51c2.46-4.47 5.79-10.6 5.79-10.6z"/><ellipse class="cls-4" cx="304.07" cy="49.91" rx="27.23" ry="27.03" transform="rotate(-67.29 304.073 49.91)"/><path class="cls-3" d="M314.16 107.77C313.35 98.69 290 83.46 290 83.46s-27.21-5.92-34.25-.12c-7.21 9.09-15.12 21.2-15.12 21.2l69 28.88s4.32-14.75 4.53-25.65z"/><path class="cls-3" d="M290 83.46s23.31 15.23 24.12 24.31c-.23 10.94-4.49 25.65-4.49 25.65L275.16 119 290 83.46z"/><path class="cls-3" transform="rotate(-67.29 291.572 79.835)" d="M279.09 72.38h24.96v14.91h-24.96z"/><path class="cls-3" transform="rotate(-67.29 294.997 81.27)" d="M282.52 77.53h24.96V85h-24.96z"/><path class="cls-7" d="M285 76.11c-.24 4.08 3.9 8.18 7.57 9.72a13.49 13.49 0 0 0 4.11 1l6.54-15.62-13.75-5.75z"/><path class="cls-3" d="M320.16 61.21c6-14.37 1.52-25.86-8.24-29.95s-21.09.78-27.11 15.15-3 29.35 6.78 33.43 22.55-4.26 28.57-18.63z"/><path class="cls-3" d="M312.24 69.61c-3.05-1.67-3.79-6-1.66-9.62s6.36-5.22 9.47-3.58 3.79 6 1.66 9.62-6.41 5.25-9.47 3.58zM280.41 48.79c1.06-4.08 4.65-6.58 8-5.58s5.17 5.14 4.1 9.26-4.65 6.58-8 5.56-5.12-5.16-4.06-9.24z"/><path class="cls-3" d="M320.16 61.21c6-14.37 1.52-25.86-8.24-29.95l-20.33 48.58c9.75 4.08 22.55-4.26 28.57-18.63z"/><path class="cls-4" d="M314.75 27.27c-10.56-4.41-25.05 3.35-29.75 14.5v.11l4.36 1.83 6.94-5.88-5.7 6.41 5 1.05L299 39l-2.78 6.64 3.6 1.08 4.81-6-2.74 6.65 4.75 1.82 2.49-5.94-.66 6.53 5.79 2.34 2.53-4.2.77 7.22 5.71 2.73v-.11c4.63-11.07 2-26-8.55-30.42zM288.12 31.72s-.46-15-11.43-11.81-5.38 29.33-17.35 22.82c2.47 6.55 9.6 6.52 14.44-3.61s8-4.49 8-4.49M330.77 52.13s6.23-1.7 2.41 8.85 1.16 15.65 7.56 12.82c-13-3.95 9.53-18.33 4.07-28.37s-16.43.15-16.43.15"/><path d="M309.78 34.63c9.13 3.82 14.51 12.28 13.15 19.85a13.35 13.35 0 0 0 1.38-2.48c3.42-8.18-2.09-18.28-12.35-22.58s-21.33-1.13-24.75 7a13.35 13.35 0 0 0-.8 2.73c4.48-6.22 14.24-8.34 23.37-4.52z" fill="#fae43e"/><path d="M314.16 107.77c-.2-2.41-2-5.23-4.5-8.09-5.33-1.15-13.79-4-23.11-7.9s-17.28-7.92-21.85-10.91c-3.8.22-7.06.92-8.92 2.47-7.21 9.09-15.12 21.2-15.12 21.2l69 28.88s4.29-14.75 4.5-25.65z" fill="#b3b10a"/><path class="cls-3" d="M200.55 78.74c-7.5-5.9-35.83.94-35.83.94s-24 16.48-24.66 26c1.76 12 5.3 26.75 5.3 26.75l71.53-31.87s-8.19-13.81-16.34-21.83z"/><path class="cls-3" d="M164.72 79.67s28.32-6.81 35.83-.94c8.14 8 16.34 21.83 16.34 21.83l-35.77 15.94-16.4-36.82z"/><path class="cls-3" transform="rotate(-24.01 163.086 75.943)" d="M155.26 62.88h15.6V89h-15.6z"/><path class="cls-3" transform="rotate(-24.01 166.617 74.36)" d="M162.72 61.3h7.79v26.12h-7.79z"/><path class="cls-7" d="M155.54 78.23c2.92 3.11 9 2.9 12.82 1.22a13.6 13.6 0 0 0 3.7-2.44l-7.21-16.18-14.25 6.35 4.93 11.06z"/><path class="cls-3" d="M169.35 40.8c-6.64-14.9-18.61-19.72-28.73-15.21s-14.54 16.63-7.91 31.53c8.93 20 20.21 23.31 30.33 18.8S177.91 60 169.35 40.8z"/><path class="cls-3" d="M171.18 52.37c-3.47 1.13-7.3-1.45-8.56-5.76s.54-8.73 4-9.87 7.3 1.45 8.56 5.76-.53 8.74-4 9.87zM130.7 61.28c-2.37-3.82-1.72-8.39 1.44-10.21s7.67-.21 10 3.6 1.72 8.39-1.44 10.21-7.67.21-10-3.6z"/><path class="cls-3" d="M169.35 40.8c-6.64-14.9-18.61-19.72-28.73-15.21L163 75.92c10.12-4.51 14.86-15.92 6.31-35.12z"/><path d="M200.55 78.74c-4.38-3.44-15.87-2.55-24.65-1.21l5.22 39-25.47-29.99c-6.87 5.64-15.21 13.58-15.59 19.14 1.76 12 5.3 26.75 5.3 26.75l71.53-31.87s-8.19-13.81-16.34-21.83z" fill="#172d39"/><path fill="#b2a1a1" d="M155.32 86.71l25.8 29.79-5.19-38.97-5 16.09-15.61-6.91z"/><path class="cls-25" d="M178.94 115.52l-20.23-9a.53.53 0 0 1-.16-.87l3.33-3.31a.54.54 0 0 0-.13-.86l-13.52-7.27a.54.54 0 0 1-.13-.86c.69-.68 1.91-1.91 2.57-2.54A43.15 43.15 0 0 1 155 87a.53.53 0 0 1 .72.07l23.78 27.61a.53.53 0 0 1-.61.83z"/><path class="cls-26" d="M159 101.75L163.52 91a.06.06 0 0 1 .07 0l7 2.47c.05 0 .1-.06 0-.08l-12.29-8.95h-.06l-3.84 3v.07c1.69 4.59 4.1 13 4.45 14.19a.06.06 0 0 0 .11 0z"/><path class="cls-16" d="M169.67 36.65s-4.36-1-2.54 6.86c-2.58-7-7.09-16.24-13.37-15.48-.61 6.89-11.15 15.83-20 17.42-3.86 2 .07 2 2.36 14.22-2.11-5.07-3.48-8.14-6.24-5.73-5.55-10.16-5.73-26.08 9.83-33s25.42 1.29 30 15.72z"/><path class="cls-25" d="M181.65 114.22l6.82-21.08a.53.53 0 0 0-.54-.7l-4.69.26a.54.54 0 0 1-.55-.67l3.63-14.91a.54.54 0 0 0-.55-.67c-1 .06-2.7.14-3.61.21a43.15 43.15 0 0 0-5.73.72.53.53 0 0 0-.43.62l4.62 36.15a.52.52 0 0 0 1 .11z"/><path class="cls-26" d="M184.77 90.17l-11-3.77a.06.06 0 0 0-.07 0l-2.82 6.83c0 .05-.11 0-.09 0l1.57-15.12s0-.05 0 0l4.81-.83h.06c2.28 4.33 6.91 11.74 7.57 12.79 0 .05 0 .11-.06.09z"/><path d="M149 219.38a78.32 78.32 0 0 1 19-45.76l-42-41.93a137.34 137.34 0 0 0-36.32 87.69z" fill="#aeb1b0"/><path d="M233.15 87.32v59.3a78.32 78.32 0 0 1 45.76 19l41.93-41.93a137.33 137.33 0 0 0-87.69-36.37z" fill="#217808"/><path class="cls-20" d="M168 276.53a78.33 78.33 0 0 1-19-45.76H89.71A137.34 137.34 0 0 0 126 318.45z"/><path d="M176 165.57a78.33 78.33 0 0 1 45.76-19V87.32a137.34 137.34 0 0 0-87.69 36.32z" fill="#c5c238"/><path d="M221.77 303.53a78.33 78.33 0 0 1-45.76-19l-41.93 41.97a137.34 137.34 0 0 0 87.69 36.32z"/><path class="cls-30" d="M278.91 284.57a78.34 78.34 0 0 1-45.76 19v59.3a137.34 137.34 0 0 0 87.69-36.32z"/><path class="cls-10" d="M287 173.62a78.32 78.32 0 0 1 19 45.76h59.3a137.34 137.34 0 0 0-36.32-87.69z"/><path class="cls-19" d="M305.91 230.76a78.32 78.32 0 0 1-19 45.76l41.93 41.93a137.34 137.34 0 0 0 36.32-87.69z"/><circle class="cls-30" cx="226.87" cy="228.35" r="60.88"/></svg>