<svg width="178.87" height="188.12" fill-rule="evenodd" viewBox="0 0 56.638 59.566" xmlns="http://www.w3.org/2000/svg"><path d="M14.37 15.783v-4.234s.168-.816.72-1.177 7.19-4.645 7.462-4.838.931-.049 1.155-.17c.168-.175.095-.64.433-.887L30.732.19c.273-.226.811-.282 1.06 0l6.929 6.063c.22.203.027.94.2 1.133.193.215 1.021.074 1.244.216l6.93 6.159c.273.32.183 1.027.384 1.25.304.33 1.044.105 1.444.386l7.507 6.833c.226.24.282.867.096 1.155l-8.83 18.359-5.505 4.158c-.106.079-.422.02-.536.112-.074.067.034.338-.078.425l-3.326 2.64.86 4.137c.021.27-.066.54-.198.679l-6.833 5.39c-.469.38-.992.337-1.33.087l-7.148-4.278c-.407-.16-.383-.499-.596-.614-.257-.088-.468.275-.703.132l-6.995-4.197c-.294-.202-.165-.665-.549-.822-.406-.058-.46.302-.903 0l-4.779-2.82c-.171-.084-.386-.32-.481-.578l-2.328-6.83c-.11-.246.178-.575.101-.8-.05-.212-.483-.386-.577-.686l-2.404-7.75c-.126-.325.249-.809.168-1.111-.194-.406-.637-.222-.831-.628L.121 20.05c-.242-.522-.092-.98.198-1.188l7.7-4.813c.328-.169.73-.12 1.058 0l4.524 1.829c.401.185.755.177.77-.096z" fill="#1a1a1a"/><path d="M36.188 16.03c3.12 2.818 3.445 3.492-.216.238s-4.034-4.04.216-.238z" fill="#4d4d4d"/><path d="M23.128 17.672a.303.492 0 1 0-.606 0 .303.492 0 1 0 .606 0" fill="gray"/><path d="M40.417 19.608a.303.492 0 1 0-.606 0 .303.492 0 1 0 .606 0" fill="#999"/><path d="M45.335 24.247c2.768 2.5 3.057 3.099-.192.211s-3.579-3.585.192-.211z" fill="#4d4d4d"/><path d="M49.6 27.782a.303.492 0 1 0-.606 0 .303.492 0 1 0 .606 0" fill="gray"/><path d="M40.87 34.367a.303.492 0 1 0-.605 0 .303.492 0 1 0 .606 0M37.11 30.983c2.768 2.5 3.057 3.099-.192.211s-3.579-3.585.192-.211z" fill="#666"/><path d="M31.713 11.54a.303.492 0 1 0-.606 0 .303.492 0 1 0 .606 0" fill="gray"/><path d="M27.619 8.121c2.768 2.501 3.057 3.1-.192.212s-3.579-3.586.192-.212zM19.17 14.526c2.768 2.5 3.057 3.099-.192.211s-3.579-3.585.192-.211z" fill="#333"/><path d="M24 29.459a.475.492 0 1 0-.951 0 .475.492 0 1 0 .95 0M15.27 25.622a.303.492 0 1 0-.606 0 .303.492 0 1 0 .605 0M7.365 22.266a.303.361 0 1 0-.605 0 .303.361 0 1 0 .605 0" fill="gray"/><path d="M10.5 32.623a.303.361 0 1 0-.606 0 .303.361 0 1 0 .606 0M26.62 40.059a.393.407 0 1 0-.787 0 .393.407 0 1 0 .786 0" fill="#666"/><path d="M29.556 50.111a.393.407 0 1 0-.787 0 .393.407 0 1 0 .787 0M21.037 46.25a.393.407 0 1 0-.786 0 .393.407 0 1 0 .786 0" fill="#4d4d4d"/><path d="M13.162 42.194a.248.257 0 1 0-.497 0 .248.257 0 1 0 .497 0" fill="#333"/><path d="M18.337 36.369a.303.361 0 1 0-.606 0 .303.361 0 1 0 .606 0M19.612 27.488c2.73 1.155 3.104 1.528-.089.209s-3.623-1.758.089-.209zM11.208 24.081c2.73 1.155 3.104 1.528-.089.209s-3.623-1.758.089-.209zM3.763 20.816c2.242.948 2.549 1.254-.073.17s-2.974-1.442.073-.17z" fill="#666"/><path d="M16.498 10.07l6.229-3.948a.747.747 0 0 1 .876.067l6.161 5.436a.47.47 0 0 1-.047.748l-6.138 4.267a.725.725 0 0 1-.877-.067l-6.251-5.754c-.235-.216-.22-.58.047-.749z" fill="#ffff25"/><path d="M25.125 4.494L30.862.709a.692.692 0 0 1 .82.062l5.945 5.267c.224.199.201.538-.044.701l-5.833 3.9a.685.685 0 0 1-.82-.061l-5.849-5.383c-.22-.203-.202-.538.044-.701z" fill="#2a4bb7"/><path d="M33.801 12.261l5.646-3.83a.69.69 0 0 1 .82.063l6.173 5.403c.224.197.195.53-.045.7l-5.56 3.992c-.238.171-.597.136-.82-.062l-6.258-5.565a.438.438 0 0 1 .044-.7z" fill="#f03031"/><path d="M42.296 20.074l5.645-4.193c.238-.177.6-.139.82.062l6.673 6.085c.22.2.19.524-.044.7l-5.424 4.083c-.234.176-.596.133-.82-.062l-6.894-5.974c-.225-.195-.194-.524.044-.7z" fill="#2ac44b"/><path d="M25.035 18.121l6.19-4.42c.24-.172.596-.135.82.062l6.582 5.767c.224.196.188.52-.044.7l-4.561 3.537c-.231.18-.65.182-.82-.062-.539-.772-1.037-1.248-1.75-1.498l-4.89-1.714-1.571-1.671c-.204-.217-.197-.529.044-.7z" fill="#2a4bb7"/><path d="M33.788 26.418l6.23-4.63c.253-.188.635-.143.876.066l6.751 5.89c.24.21.2.555-.047.75l-6.092 4.811c-.246.194-.638.145-.877-.066l-6.888-6.072c-.24-.212-.206-.56.047-.75z" fill="#ffff25"/><path d="M48.007 30.381l-2.127 4.731c-.072.161-.14.3-.302.431l-5.638 4.574c-.163.132-.476.053-.429-.108l1.162-4.002a.84.84 0 0 1 .301-.431l6.605-5.303c.163-.132.5-.053.428.108z" fill="#284299"/><path d="M55.865 24.34l-2.399 4.776c-.08.16-.137.3-.302.431l-5.32 4.21c-.165.131-.5.052-.43-.108l2.07-4.728c.07-.16.134-.305.303-.431l5.65-4.259c.169-.127.509-.052.428.108zM52.64 31.062l-2.4 4.913c-.078.16-.129.307-.301.431l-4.64 3.348c-.172.125-.497.052-.428-.108l1.707-3.957c.069-.16.139-.3.301-.431l5.333-4.304c.163-.131.507-.052.428.108z" fill="#b3b3b3"/><path d="M45.282 36.922L43.2 41.2c-.078.16-.15.293-.302.431l-4.443 3.558c-.153.138-.472.052-.428-.109l.965-3.348c.046-.16.139-.3.302-.432l5.56-4.485c.162-.132.506-.052.428.108z" fill="#1d8a35"/><path d="M49.372 37.712l-1.93 3.772c-.069.135-.11.257-.254.363l-4.268 3.136c-.144.106-.421.043-.36-.091l1.617-3.603c.06-.134.11-.259.254-.363l4.58-3.305c.145-.105.43-.044.36.091z" fill="#b34322"/><path d="M42.515 42.886l-1.282 3.342a.63.63 0 0 1-.2.285l-2.574 2.033c-.107.087-.264.026-.283-.072l-.404-2.045c-.02-.097.042-.148.149-.235l4.31-3.38c.109-.085.331-.035.284.072z" fill="#b3b31a"/><path d="M39.572 38.42c-.732 2.532-1.042 2.906-.215-.05s1.19-3.389.215.05z" fill="#666"/><path d="M27.264 38.631l6.445-4.755c.254-.187.438-.484.373-.796l-1.667-7.939c-.066-.312-.384-.446-.676-.327l-6.857 4.904c-.254.183-.44.485-.373.797l2.08 7.79c.08.308.42.514.675.326z" fill="#ffff25"/><path d="M30.056 48.88l6.124-4.538c.254-.188.438-.484.373-.797l-1.765-7.407c-.074-.31-.384-.446-.676-.327l-6.286 4.48c-.254.18-.44.484-.373.796l1.928 7.465c.08.308.42.515.675.327z" fill="#2ac44b"/><path d="M32.628 58.492l5.792-4.567c.222-.175.39-.436.332-.718l-1.697-7.205c-.054-.282-.343-.403-.602-.295l-6.064 4.504c-.224.167-.392.437-.333.719l1.97 7.267c.075.277.38.47.602.295z" fill="#ffff25"/><path d="M30.952 23.245l-6.94 4.885c-.229.162-.6.215-.896.112L16.7 25.505c-.282-.12-.344-.35-.148-.53l6.52-4.6c.228-.16.602-.216.897-.112l6.836 2.452c.293.105.377.368.147.53z" fill="#2a4bb7"/><path d="M21.875 19.846l-6.55 4.56c-.217.152-.567.201-.846.105l-6.057-2.555c-.266-.112-.325-.326-.139-.495l6.154-4.295c.215-.15.568-.201.847-.104l6.452 2.289c.277.098.356.343.139.495z" fill="#f03031"/><path d="M13.237 16.685l-6.183 4.226a.922.922 0 0 1-.77.096l-4.788-1.964c-.244-.1-.296-.297-.127-.45l6.258-4.057a.94.94 0 0 1 .77-.095l4.714 1.794c.247.094.326.314.126.45z" fill="#ffff25"/><path d="M16.435 27.376l5.957 2.48c.226.095.444.39.515.704l1.9 7.637c.079.313-.08.5-.305.437l-5.744-2.765c-.223-.108-.446-.39-.515-.703l-2.113-7.353c-.09-.311.078-.537.305-.437z" fill="#ccc"/><path d="M19.833 38.166l5.357 2.577c.227.109.445.39.515.703l1.946 7.117c.086.313-.081.5-.305.438l-5.559-2.692c-.224-.108-.446-.39-.515-.703l-1.744-7.003c-.077-.312.079-.537.305-.437z" fill="#c02627"/><path d="M22.321 47.81l5.63 2.757c.205.1.403.352.467.635l1.799 7.024c.073.283-.073.452-.276.395l-5.702-3.484a1.043 1.043 0 0 1-.466-.636l-1.727-6.296c-.078-.282.07-.486.275-.395zM8.481 24.04l5.427 2.325c.203.087.398.348.461.63l2.09 7.29c.08.28-.073.448-.274.391l-5.448-2.637c-.2-.097-.399-.349-.461-.63l-2.068-6.978c-.082-.28.07-.481.273-.392z" fill="#2a4bb7"/><path d="M1.091 20.892l5.052 2.138c.185.079.363.318.421.575l2.077 7.101c.075.256-.066.41-.249.358l-4.969-2.47c-.182-.091-.364-.32-.42-.575l-2.16-6.77c-.082-.254.063-.439.248-.357z" fill="#229d3c"/><path d="M11.501 34.135l5.431 2.68c.214.106.42.368.487.664l1.864 6.782c.081.296-.077.473-.288.413l-5.45-2.736c-.21-.106-.42-.368-.486-.664l-1.846-6.726c-.08-.294.074-.507.288-.413z" fill="#c02627"/><path d="M4.319 30.615l4.759 2.311c.213.104.42.368.486.664l1.84 6.666c.082.295-.077.472-.288.413l-4.552-2.335c-.21-.108-.421-.368-.487-.664l-2.046-6.642c-.09-.293.074-.507.288-.413z" fill="#2a4bb7"/><path d="M14.346 43.884l5.35 2.604c.208.102.409.358.474.647l1.884 6.52c.083.287-.074.46-.28.402l-5.616-3.394a1.055 1.055 0 0 1-.474-.646l-1.619-5.73c-.08-.287.072-.494.28-.403z" fill="#ccc"/><path d="M7.314 40.334l4.476 2.178c.214.104.42.368.487.664l1.557 5.567c.082.295-.077.473-.288.413l-4.22-2.517a1.08 1.08 0 0 1-.486-.664l-1.814-5.228c-.1-.29.074-.507.288-.413z" fill="#ffff25"/><path d="M27.718 26.8c-2.756 1.867-3.337 1.99-.142-.211s3.869-2.34.142.211z" fill="#666"/></svg>