<svg viewBox="0 0 600 550" xmlns="http://www.w3.org/2000/svg"><defs><filter id="a"><feGaussianBlur stdDeviation="12.06"/></filter><filter id="c"><feGaussianBlur stdDeviation="6.541"/></filter><linearGradient id="b" x1="782.9" x2="797.93" y1="375.79" y2="-38.888" gradientTransform="matrix(-.49473 .51056 -.51056 -.49473 626.65 345.43)" gradientUnits="userSpaceOnUse"><stop stop-color="#920309" offset="0"/><stop stop-color="#920309" stop-opacity="0" offset="1"/></linearGradient></defs><g transform="rotate(134.098 337.67 202.171) scale(.62555)" filter="url(#a)" opacity=".293"><path d="M1101.2 183.83c-16.396 38.336-41.233 36.199-96.986 31.744-140.67-15.005-169.87-15.854-210.08-13.805-57.295 1.025-198.88 33.812-228.87 32.079-13.959-.806-53.03-14.631-83.454-17.51-24.275-1.513-32.047-.792-64.191 5.46-4.319-28.305-7.877-43.748-12.651-54.05 4.374-8.305 35.691-36.997 67.992-43.074 35.738 3.74 31.173 34.549 112.8 16.139 15.905-1.066 123.07-31.626 207.35-31.626s157.89 12.13 213.16 20.695 100.06 4.338 94.936 53.947z"/><path d="M690.45 120.34c-19.812 11.83 11.578 14.005-98.717 40.99-22.715 5.54-45.839 11.582-59.379 9.218s-17.477-24.48-17.477-28.347c23.911 5.25 36.585 4.1 63.876.342 45.395-9.565 90.519-20.028 111.7-22.203zM1099.7 162.87c0 4.808-13.671-11.101-32.621-11.101s-35.097-13.68-35.097-18.488c17.292 2.664 24.548 1.832 42.612 7.558 17.242 5.465 22.246 14.278 25.106 22.032zM1117.9 288.85c-4.802-30.607-40.509-34.508-96.261-30.054-140.67 15.005-155.86 14.042-224.09 9.578-57.295-1.025-197.85-31.146-228.09-32.795-32.557-7.89-55.746-15.45-88.585-19.815-24.275.305-38.568-2.309-63.225 5.931-4.319 28.305-10.492 56.931-10.919 83.175-1.693 1.108 37.754 39.24 66.984 44.948 24.018-3.925 33.629-32.378 116.96-16.702 48.696 5.165 122.05 31.284 206.33 32.31 64.468 5.464 171.62-11.646 226.93-19.972 60.101-9.047 93.539-6.996 93.97-56.604z"/><path d="M684.64 267.76c2.53 2.593 23.512 31.378 37.953 38.637 68.79 18.928 224.74 5.42 315.86-7.311 9.149-3.846 18.972-21.87 21.611-25.071 2.014-6.442 54.66-12.912 57.558 14.05 1.051 13.918-4.047 29.39-8.512 32.776-6.193 6.048-3.174 5.44-21.79 13.507-75.148 18.846-145.07 25.439-238.04 32.27-98.762.12-125.49-7.9-199.44-21.92-80.719-20.784-127.03-14.72-135.99-11.554-5.866 0 2.608-31.36 3.575-38.916 4.433-29.464 3.459-47.63 10.368-49.274 6.648-1.644 36.146 1.643 70.953 7.096 32.412 5.078 66.83 4.64 85.895 15.71zM242.32 171.26c47.966-3.694 69.054-6.314 79.022-6.878.68 1.37 1.105 2.759 2.3 5.31 7.233-1.07 16.928-1.22 23.59-.999s11.737.573 24.951 3.163c4.76-4.415 5.34-4.418 6.872-5.872.189 0 25.993 1.867 25.974 1.694-.204-1.839 4.378 11.202 5.463 16.025 3.514 12.468 5.374 25.403 7.054 37.87-3.985 25.769-8.358 54.263-10.567 83.583-12.297.53-15.175.232-29.448.804-1.774-2.148-2.37-2.68-4.153-5.83-4.516 1.461-18.077 3.72-24.604 3.74s-19.852-1.006-25.264-3.038c-1.313 2.579-2.227 4.321-3.742 5.776-43.825-3.555-53.7-5.878-92.163-8.647-59.814-13.663-95.643-21.824-151.32-35.866l.141-55.372c62.882-14.565 96.14-19.649 165.89-35.464z"/><path d="M407.233 218.685a58.707 45.181 0 1 1-117.413 0 58.707 45.181 0 1 1 117.413 0z"/><path d="M385.196 219.118a36.908 28.404 0 1 1-73.816 0 36.908 28.404 0 1 1 73.816 0zM410.27 272.15c-8.006.53-24.588 1.508-30.631 2.102-1.96-3-1.456-2.346-3.295-5.667-6.311 1.401-10.124 3.58-25.307 3.58-10.432 0-19.24-1.083-28.406-4.594l-5.969 10.062-87.938 4.094-152.38-49.344-.062 29.719c55.678 14.042 91.499 22.212 151.31 35.875 38.463 2.768 48.33 5.07 92.156 8.625 1.515-1.455 2.437-3.202 3.75-5.781 5.412 2.032 18.755 3.081 25.28 3.062s20.078-2.289 24.595-3.75c1.784 3.15 2.383 3.665 4.156 5.813 14.173-.568 17.501-.327 29.46-.963l.321-3.944c1.239-14.335 1.73-16.996 2.952-28.89z"/><path d="M441.57 256.85c-14.899 0-26.969 7.748-26.969 17.281s12.069 17.25 26.969 17.25c7.208 0 13.751-1.832 18.594-4.781-1.682 5.186-2.565 11.773-2.25 18.875.703 15.83 6.986 28.146 14.031 27.5s12.203-14.014 11.5-29.844-6.986-28.146-14.031-27.5h-.125c-.285.032-.566.114-.844.187.086-.56.125-1.112.125-1.687v-.157c-.135-9.477-12.187-17.125-27-17.125zM522.651 251.878a24.093 15.416 2.64 1 1 .006-.14M494.08 139.7c30.715 2.814 18.364 25.632 36.521 30.312 8.671 3.14 29.791 3.61 27.412 15.054l4.225 22.266c-2.38 11.444-16.686 7.694-29.103 8.398l-52.16-12.998c-8.67-3.14-13.736-14.88-11.356-26.326l4.515-21.717c2.379-11.444 11.276-18.129 19.947-14.989z" opacity=".827"/><path d="M76.354 231.63v.75l152.38 49.344 87.938-4.094 5.937-10-246.25-36zm246.66 36.062l.156.063v-.032l-.156-.031z" fill-rule="evenodd"/><path d="M191.04 224.48c2.242-.487 86.7 1.836 89.812-.313.838-.592 1.181-11.626.344-12.219s-87.373.09-88.562-.437c-.276-.122-.63-.707-.938-1.094l-.656 14.062zM179.572 226.54c.242-.178.49-.453.72-.5 1.76-.355 5.564 2.543 7.062 2.094.064-.019.095-.097.156-.125l1-21.125c-.035-.013-.059-.083-.094-.093-1.497-.448-6.583 2.606-8.344 2.25-.18-.037-.333-.237-.5-.344v17.844zM174.854 204.416c-1.832.193-3.702 2.59-5.688 2.468-.263-.016-.546-.223-.812-.343v22.187c2.067.115 4.13 3.022 6.03 2.781.155-.02.313-.21.47-.28v-26.813z"/><path d="M174.85 204.42v26.812c1.588-.724 3.249-3.6 4.719-4.688V208.7c-1.459-.938-2.474-4.15-4.25-4.374-.155-.02-.314.077-.469.093zM188.51 206.88l-1 21.125c1.349-.605 1.83-3.027 2.969-3.531h.562l.657-14.062c-.99-1.243-2.072-3.086-3.188-3.531zM156.76 228.92c1.81.733 3.206 3.656 5.25 3.656.186 0 .353-.141.531-.187v-29.72c-.031 0-.062-.03-.094-.03-1.99 0-3.825 2.935-5.687 3.812v22.469zM136.23 226.98v-18.812c-1.74 1.451-5.047 7.179-6.125 7.656-1.19.527-53.131-.498-53.969.094s.347 1.824-.094 2.469 53.97-.652 53.97.031 4.528 8.067 5.718 8.594c.067.03.403-.05.5-.031z"/><path d="M144.916 226.54v-18.624c-.678.56-1.313 1.024-1.812 1.125-1.76.356-4.816-1.855-6.313-1.407-.14.043-.382.381-.562.532v18.812c1.616.304 6.918-.718 8.687-.437zM150.104 204.072c-1.418.18-3.478 2.428-5.188 3.844v18.625c.03.005.128-.006.156 0 1.76.356 2.084 5.25 4.063 5.5.332.042.72-.134 1.094-.282v-27.656c-.043.003-.082-.036-.125-.031zM150.229 204.103v27.656c1.857-.732 4.114-3.234 5.906-3.125.225.014.413.196.625.282v-22.469c-.273.129-.537.358-.813.375-2.106.13-3.793-2.823-5.718-2.719zM162.54 202.67v29.719c2.01-.52 3.584-3.598 5.563-3.719.084-.005.165.058.25.063v-22.188c-1.888-.85-3.84-3.779-5.813-3.875z"/><path transform="matrix(1.1712 0 0 1.3202 83.494 116)" d="M283.98 80.09a57.847 39.974 0 0 1-33.605 34.46" stroke="#000" stroke-width="1.137"/><path d="M323.2 169.8c-20.773 5.138-37.422 19.823-42.45 41.655" stroke="#000" stroke-width="1.398"/><path d="M1095.2 294.12c0 29.273-125.55 56.446-290.34 56.446s-305.37-42.203-305.37-71.475 137.85 30.131 302.64 30.131c163.84 0 292.25-44.003 293.75-14.902" opacity=".827"/><path d="M799.95 162.48c-84.28 0-191.44 30.559-207.34 31.625-81.626 18.41-80.593-7.989-113.03-15.062-36.344 1.94-48.268 17.608-63.625 31.219.62 3.723 1.215 7.6 1.844 11.719 32.144-6.252 37.706-5.772 61.982-4.259 30.424 2.88 70.509 15.85 84.469 16.656 29.994 1.733 172.6-31.592 229.89-32.616 40.216-2.05 69.428-1.192 210.09 13.812 46.927 3.75 71.945 5.85 88.469-16.438-17.108-10.285-46.471-10.836-79.594-15.969-55.271-8.564-128.88-20.688-213.16-20.688zM76.354 232.38l-.063 29.719c55.446 13.983 91.261 22.158 150.62 35.719V281.13l-150.56-48.75zM322.95 267.7l.594 33.125c5.428 2.026 18.734 3.082 25.25 3.063 6.526-.02 20.077-2.29 24.594-3.75.1.175.157.277.25.437l2.875-31.719-.156-.281c-6.312 1.4-10.13 3.594-25.313 3.594-10.312 0-19.042-1.053-28.094-4.47zM322.63 267.57l-5.969 10.062h-.031l2.969 28.969h.156c1.515-1.455 2.437-3.202 3.75-5.781h.031l-.625-33.156c-.093-.035-.188-.058-.281-.094z"/><path d="M376.48 268.82l-2.844 31.75c1.536 2.657 2.208 3.344 3.813 5.281l2.062-31.78c-1.706-2.623-1.492-2.453-3.031-5.25z"/><path d="M327.51 269.23v32.656c6.394 1.33 16.022 2.016 21.281 2 2.71-.008 6.643-.404 10.625-.969v-31.03c-2.361.174-5.09.28-8.375.28-8.568 0-16.055-.732-23.531-2.937z" opacity=".425"/><path d="M323.25 283.75l.124 4.24c3.763.758 20.87 2.91 27.385 2.999 6.503.089 19.96-1.856 23.99-2.884 0 0-.011-1.047.2-3.987-4.69 1.64-8.55 3.545-23.733 3.545-10.312 0-23.354-2.8-27.966-3.913zM321.35 164.38c-9.969.563-31.066 3.181-79.031 6.875-69.753 15.815-103.02 20.904-165.91 35.469v.344l245.06-42.406c-.043-.091-.08-.19-.125-.282z"/></g><path d="M121.72 510.73c-10.085-24.054 1.687-34.282 27.958-57.389 67.975-56.661 81.068-69.411 97.654-88.37 24.481-26.186 71.384-104.06 85.219-116.78 6.439-5.92 29.658-17.455 44.195-29.869 11.247-10.247 14.306-14.052 25.49-31.214 14.596 10.382 23.083 15.506 29.789 17.845 1.827 5.58 1.084 32.139-10.247 49.295-17.238 14.427-29.091-1.035-56.353 43.649-6.445 7.609-39.367 69.056-76.055 106.92s-74.181 65.649-102.09 86.751-45.507 43.063-65.563 19.166z" fill="#fa0b0d"/><path d="M329.06 353.83c3.31-14.05-11.332-.895 24.558-62.191 7.4-12.616 14.751-25.635 21.707-30.688s18.606 2.806 20.342 4.489c-12.767 8.456-17.767 14.65-27.959 28.547-15.464 24.557-30.407 49.383-38.649 59.844zM131.82 519.16c-2.16-2.093 10.939-1.31 19.188-9.822s21.424-9.812 23.584-7.72c-8.724 6.61-11.509 10.232-21.945 15.854-9.96 5.366-16.098 3.778-20.827 1.688z" fill="#1b40f6"/><path d="M67.29 472.5c15.841 11.166 33.136-3.176 55.405-30.162 54.493-69.725 61.539-76.132 93.248-104.84 25.402-25.293 100.12-75.326 114.02-88.191 17.717-11.192 31.207-18.318 47.464-31.17 10.43-11.039 17.826-16.322 24.858-30.985-10.836-14.262-21.009-29.497-32.613-41.112.24-1.243-34.063-.12-49.352 10.526-8.692 12.499-.093 29.202-43.413 59.815-23.518 19.628-67.186 41.213-104.33 78.627-30.519 26.583-69.477 82.168-89.812 110.64-22.098 30.938-37.576 45.067-15.478 66.856z" fill="#fa0b0d"/><path d="M265.36 287.05c-2.267.008-24.332-3.097-33.879.231-38.448 22.664-100.27 98.604-134.21 145.08-2.255 5.784 1.566 18.043 1.855 20.622 2.018 3.71-17.994 30.176-31.368 19.741-6.71-5.585-11.44-14.612-11.019-18.092-.02-5.415-1.062-3.794 3.418-15.669 24.246-41.964 51.723-76.246 89.125-120.99 42.939-44.42 58.175-52.935 96.668-80.056 44.475-27.215 61.911-50.66 64.389-56.063 2.554-2.635 12.952 14.823 15.927 18.546 11.306 14.818 19.892 22.288 17.623 26.108-2.155 3.703-16.473 15.523-34.075 28.786-16.391 12.35-31.177 28.004-44.449 31.75z" fill="#1b40f6"/><path d="M501.26 130.35c-19.221 23.156-27.223 33.771-31.31 38.494-.911-.29-1.72-.704-3.387-1.278-2.667 3.716-6.82 8.136-9.82 11.032s-5.366 5.023-12.282 9.832c-.09 4.06-.34 4.322-.354 5.643-.082.085-12.154 10.864-12.068 10.931.915.71-6.938-2.909-9.577-4.521-7.13-3.85-13.751-8.644-20.084-13.317-9.842-13.008-20.74-27.376-32.95-41.132 5.115-5.756 6.502-6.918 12.459-13.58 1.737.139 2.235.103 4.427.673 1.31-2.665 6.198-9.74 9.03-12.681s9.093-8.48 12.362-10.027c-.587-1.712-.972-2.882-.966-4.196 20.675-18.14 26.017-21.565 44.004-37.64 32.176-20.923 51.439-33.466 81.984-52.367l24.814 24.168c-20.83 34.59-33.023 51.744-56.283 89.964z" fill="#c1d4ce"/><path d="M408.158 183.788a28.263 36.725 44.099 1 1 51.112-52.748 28.263 36.725 44.099 1 1-51.112 52.748z" fill="#273136"/><path d="M417.564 173.705a17.768 23.088 44.098 1 1 32.133-33.162 17.768 23.088 44.098 1 1-32.133 33.162z" fill="#c3d7d1"/><path d="M382.82 161.88c3.247-3.827 10.026-11.703 12.389-14.676 2.201.426 1.688.367 3.98.987 2.118-3.445 2.8-6.107 9.409-12.927 4.541-4.687 8.862-8.173 14.429-10.762l-1.922-7.062 36.44-41.287 88.499-46.974-13.324-12.965c-30.545 18.9-49.81 31.436-81.985 52.359-17.987 16.074-23.317 19.505-43.992 37.646-.007 1.314.377 2.489.964 4.201-3.269 1.547-9.548 7.084-12.38 10.024s-7.712 10.016-9.022 12.681c-2.192-.57-2.684-.525-4.42-.663-5.915 6.615-7.472 8.004-12.392 13.654l1.632 1.861c5.9 6.797 6.882 8.176 11.694 13.902z" fill="#425961"/><path d="M376.07 182.6c6.486-6.693 8.259-15.489 3.976-19.638s-13.003-2.087-19.489 4.606c-3.137 3.239-5.162 6.976-5.946 10.434-1.597-3.013-4.172-6.277-7.5-9.227-7.417-6.575-15.686-9.114-18.462-5.668s.984 11.582 8.401 18.158 15.686 9.114 18.462 5.668l.055-.056c.11-.142.194-.304.283-.46.214.282.445.54.703.79l.07.068c4.317 4.065 13 1.98 19.448-4.675zM343.009 221.2a9.643 15.072 46.738 1 1 .06.064M405.84 257.19c-14.635 12.573-19.509-2.908-29.515 3.212-5.185 2.528-14.59 11.812-18.695 5.761l-11.842-7.795c-4.106-6.05 3.807-10.845 8.896-16.73l28.545-17.774c5.185-2.528 12.665.307 16.77 6.358l7.792 11.482c4.105 6.05 3.236 12.958-1.95 15.486z" fill="#fc3f6c" fill-opacity=".49" opacity=".827"/><path d="M546.39 29.51l-.337-.326-88.498 46.974-36.44 41.287 1.907 7.02 123.37-94.955zm-123.57 95.11l-.096.043.014.014.082-.057z" fill="#dfe8e5" fill-rule="evenodd"/><path d="M499.68 84.15c-.757 1.22-38.567 38.15-38.956 40.484-.099.634 4.709 5.592 5.34 5.473s37.994-39.29 38.749-39.596c.175-.07.591.025.9.055l-6.033-6.416zM503.742 78.097c-.025.186-.01.417-.088.54-.607.946-3.565 1.394-4.015 2.262-.02.037.002.085-.012.124l9.055 9.645c.021-.01.063.01.083-.001.853-.478 1.695-4.092 2.621-4.728.095-.065.252-.047.372-.075l-8.016-7.767zM515.736 85.608c.71-.907.447-2.79 1.366-3.63.122-.11.338-.148.509-.215l-9.968-9.659c-.952.88-3.155.54-3.875 1.5-.058.077-.042.23-.078.332l12.046 11.672z" fill="#435256"/><path d="M515.74 85.61l-12.045-11.672c-.366 1.028.203 3.026.052 4.16l8.016 7.768c1.056-.247 2.94.695 3.815-.005.076-.06.102-.174.162-.251zM508.682 90.668l-9.055-9.645c-.316.87.563 2.14.294 2.871-.002.005-.24.245-.245.253l6.032 6.416c.989.097 2.288.413 2.974.105z" fill="#69817d"/><path d="M512.606 66.814c-1.117.494-3.038-.151-3.928.767-.081.084-.09.22-.147.32l13.35 12.938c.015-.014.042-.015.055-.029.867-.894.347-2.996.764-4.215l-10.094-9.78zM522.41 58.43l8.451 8.19c.106-1.414-1.028-5.393-.773-6.085.281-.764 23.353-23.652 23.451-24.286s-.97-.638-1.068-1.117-23.2 24.529-23.507 24.232-5.596-1.477-6.35-1.172c-.042.017-.153.203-.204.238z" fill="#435256"/><path d="M518.83 62.53l8.367 8.108c.043-.549.112-1.036.284-1.304.606-.946 2.929-1.356 3.38-2.224.042-.082-.005-.337.006-.484l-8.452-8.19c-.84.594-2.689 3.422-3.585 4.094z" fill="#69817d"/><path d="M526.664 74.639c.536-.715.423-2.62.531-4.004l-8.367-8.107c-.015.011-.053.06-.068.07-.926.636-3.265-1.35-4.239-.57-.163.131-.253.382-.35.614l12.425 12.04c.017-.02.052-.021.068-.043z" fill="#435256"/><path d="M526.596 74.681L514.17 62.642c-.48 1.154-.337 3.257-1.167 4.014-.104.095-.268.1-.398.158l10.094 9.781c.06-.178.072-.397.185-.528.859-1.002 2.92-.475 3.71-1.386zM521.88 80.84l-13.351-12.937c-.641 1.13.056 3.176-.75 4.118-.035.04-.099.049-.138.085l9.968 9.658c1.204-.478 3.369-.08 4.271-.924z" fill="#69817d"/><path transform="matrix(-.50983 .52615 -.59311 -.57472 595.23 83.05)" d="M283.98 80.09a57.847 39.974 0 0 1-33.605 34.46" fill="none" stroke="#000" stroke-width="1.137"/><path d="M466.71 167.32c6.735-11.569 7.385-25.441-.234-37.204" fill="none" stroke="#000" stroke-width=".875"/><path d="M74.79 460.03c-13.151-12.743 29.295-80.974 101.03-155.01S327.71 186.2 340.86 198.95s-73.542 48.81-145.28 122.84C124.259 395.393 88.13 472.24 74.4 460.24" fill="#f9f9f9" fill-opacity=".106" opacity=".827"/><path d="M371.29 663.7c36.688-37.862 69.608-99.306 76.052-106.91 27.263-44.684 38.672-32.728 55.971-44.222 14.95-17.172 13.102-29.349 13.672-42.173a542.582 542.582 0 0 1-6.067-4.273c-11.184 17.162-13.821 19.452-25.068 29.699-14.538 12.414-37.814 24.776-44.253 30.696-13.835 12.72-60.942 91.291-85.423 117.48-16.586 18.959-29.687 31.709-97.662 88.371-22.112 19.45-33.946 29.774-31.127 46.899 12.068-3.208 25.098-16.16 41.822-28.806 27.907-21.102 65.395-48.891 102.08-86.754z" fill="url(#b)" transform="translate(-108.83 -279.02)"/><path d="M546.05 29.18l-13.324-12.965c-30.417 18.821-49.682 31.353-81.615 52.118l7.497 7.264L546.05 29.18z" fill="#182022"/><path d="M422.84 124.59l-15.14-14.153c-3.273 1.557-9.54 7.075-12.367 10.01s-7.712 10.016-9.021 12.681l-.306-.078 12.998 15.099.195.052c2.118-3.445 2.795-6.115 9.404-12.936 4.49-4.632 8.762-8.096 14.237-10.676z" fill="#182120"/><path d="M423.032 124.505l-1.922-7.062.013-.014-14.306-11.276c-.027.023-.041.046-.068.07-.006 1.314.378 2.488.965 4.201-.005.002-.009.012-.014.014l15.167 14.153.165-.086z" fill="#040305"/><path d="M399.03 148.15l-13.026-15.099c-1.862-.467-2.463-.464-4.032-.586l13.38 14.76c1.92.376 1.751.398 3.678.924z" fill="#000609"/><path d="M420.17 125.97l-14.671-14.216c-3.38 2.293-7.88 6.32-10.162 8.69-1.176 1.22-2.71 3.16-4.19 5.195l13.941 13.508c.95-1.137 2.09-2.41 3.52-3.885 3.73-3.85 7.318-6.894 11.562-9.292z" fill=".425" opacity=".425"/><path d="M415.5 117.74l-1.96-1.79c-1.977 1.36-10.39 8.11-13.267 10.998-2.871 2.882-7.855 9.774-9.148 12.032 0 0 .476.45 1.704 1.825 1.305-2.82 2.13-5.384 8.739-12.205 4.489-4.633 11.424-9.273 13.932-10.86z" fill="#01080b"/><path d="M469.95 168.85c4.086-4.723 12.094-15.341 31.315-38.497 23.26-38.22 35.457-55.383 56.287-89.972l-.154-.15-87.628 128.55c.06.02.12.047.18.067z" fill="#fff" fill-opacity=".517"/><g transform="matrix(1 0 0 -1 -99.816 801.78)" fill-opacity=".995" filter="url(#c)" opacity=".297"><path d="M372.46 526.63l-12.396-19.941-2.156-14.552 12.935-10.24c29.385-5.585 52.166-24.976 65.752-63.596l142.28-135.28c37.972-16.823 71.364 33.365 65.213 59.284l-140.67 136.89c-46.226 16.539-66.37 39.163-69.525 65.752l-12.396 11.318-15.63-.539-19.402-13.474-14.013-15.63z" filter="url(#a)"/><path d="M594.54 279.64c-5.061-.03-10.316 1.01-15.656 3.375l-142.28 135.28c-13.586 38.62-36.365 58.009-65.75 63.594l-12.938 10.25 2.156 14.562 12.406 19.938 8.031 8.969 22.671-36.527c30.324-12.62 47.605-36.098 68.411-60.42l155.89-142.62c-8.79-9.52-20.27-16.33-32.938-16.406z" filter="url(#a)"/><path d="M606.82 285.73c-2.184-.06-4.354.272-6.375 1.063l-144.97 137.97c-10.555 11.998-14.325 21.476-13.562 27.562 1.42 11.32 18.453 10.898 36.25-6.97l146.53-139.16c4.02-7.81-2.763-16.12-11.406-19.218-2.092-.75-4.285-1.19-6.469-1.25zM406.01 484.32c-4.014-.01-8.963.537-14.688 1.344l-14.896 12.838c1.622 7.34 11.86 21.954 21.927 21.943l15.062-13.22c8.348-17.855 4.637-22.876-7.406-22.905zM637.63 315.9L468.72 477.8l3.773 8.406 168.48-161.32-3.349-8.99z" filter="url(#a)"/><path d="M640.86 324.52l.539 17.246-139.59 133.12c-9.049 1.456-19.102 5.443-29.585 11.203l168.63-161.57zM406.42 537.41l28.025-26.947 3.234 7.545-26.947 25.87-4.312-6.467z" filter="url(#a)"/><path d="M437.56 518.66l-7.668 22.646-7.62 7.081-11.546-4.821 26.834-24.905zM468.4 477.95l21.019-25.159 142.82-135.28 5.928-2.156-169.77 162.59zM419.88 519.62l-6.789 6.789-6.883 10.448 27.694-25.86-14.022 8.623zM366.54 493.75l15.1-12.292-9.71 3.13-10.78 9.7 4.85 6.468.54-7.006zM432.56 438.91l15.897-19.533 143.36-137.43-11.318 2.156-141.74 134.74-6.196 20.07z" filter="url(#a)"/><path d="M362.07 506.51c7.03-13.787 53.689 42.302 49.359 47.523-9.192 7.585-52.275-40.553-49.359-47.523z" filter="url(#a)"/><path d="M373.5 516.15c3.608-6.97 27.558 21.386 25.335 24.025-4.718 3.835-26.832-20.502-25.335-24.025z" filter="url(#a)"/><path d="M379.21 519.75l-260.24 245-9.52 19.042 3.03 5.187 4.124 1.814 20.773-8.905 257.66-245.37c1.327-2.093-13.154-19.91-15.833-16.773z" filter="url(#a)"/><path d="M387.36 525.86L127.22 773.01l-14.599 15.868 4.213 1.542 20.624-9.234 256.67-244.74c-.205-3.954-3.873-7.675-6.774-10.587z" filter="url(#a)"/><path d="M393.38 533.81L135.07 778.67l1.561-5.204-13.112-2.344-4.194-5.995-9.514 18.666 2.996 4.95 3.886 1.133 20.135-8.327 257.67-245.4c-.235-.85-.442-1.716-1.118-2.346z" filter="url(#a)"/><path d="M146.93 762.54l-5.789 2.31-12.317 12.316-11.578 9.854 1.135 1.26 16.355-8.158L147.3 768.79l-5.42.74 5.05-6.99z" filter="url(#a)"/><path d="M141.5 769.62l-5.035.4 4.927-4.927 5.604-2.247-5.496 6.774zM123.49 771.49L385.5 523.92c1.348 1.333 2.485 3.385 3.872 4.856l-260.59 247.29-1.665-3.213-3.624-1.368z" filter="url(#a)"/><path d="M374.99 523.14c7.16 5.898 12.017 18.042-1.04 34.87l20.296-21.859c-2.447-7.946-8.752-12.99-14.052-17.175l-5.204 4.164z" filter="url(#a)" opacity=".41"/><path d="M139.02 754.22l-3.048 5.696-13.056 11.578-9.361 12.317-2.218-.739 8.869-17.49 14.534-13.55-2.464 6.159 6.744-3.972z" filter="url(#a)"/><path d="M132.03 758.44l.493 4.434 3.941-3.202 2.186-5.327-6.62 4.095zM621.88 292.48L445.01 458.04c5.92 4.553 19.297 1.227 33.156-12.688l146.53-139.16c2.485-4.828.847-9.858-2.813-13.719zM414.94 486.2l-29.344 27.469c3.775 3.863 8.266 6.786 12.75 6.781l15.062-13.219c5.647-12.08 5.768-18.272 1.531-21.03zM606.82 285.73c-2.184-.06-4.354.272-6.375 1.063l-144.97 137.97c-6.852 7.788-10.813 14.51-12.562 19.938l168.03-158.41a20.27 20.27 0 0 0-4.125-.563zM400.57 484.61c-2.802.234-5.877.587-9.25 1.063l-14.906 12.844c.396 1.793 1.328 4.032 2.625 6.375l21.531-20.281z" filter="url(#a)"/></g><g fill-rule="evenodd"><path d="M304.906 275.15l-12.396 19.941-2.156 14.552 12.935 10.24c29.385 5.585 52.166 24.976 65.752 63.596l142.28 135.28c37.972 16.823 71.364-33.365 65.213-59.284l-140.67-136.89c-46.226-16.539-66.37-39.163-69.525-65.752l-12.396-11.318-15.63.539-19.402 13.474-14.013 15.63z" stroke="#000" stroke-linecap="round" stroke-linejoin="round" stroke-width="1.25"/><path d="M526.986 522.14c-5.061.03-10.316-1.01-15.656-3.375l-142.28-135.28c-13.586-38.62-36.365-58.009-65.75-63.594l-12.938-10.25 2.156-14.562 12.406-19.938 8.031-8.969 22.671 36.527c30.324 12.62 47.605 36.098 68.411 60.42l155.89 142.62c-8.79 9.52-20.27 16.33-32.938 16.406z" fill="#333" stroke="#000" stroke-linecap="round" stroke-linejoin="round" stroke-width="1.25"/><path d="M539.266 516.05c-2.184.06-4.353-.272-6.375-1.063l-144.97-137.97c-10.555-11.998-14.325-21.476-13.562-27.562 1.42-11.32 18.453-10.898 36.25 6.97l146.53 139.16c4.02 7.81-2.763 16.12-11.406 19.218-2.092.75-4.285 1.19-6.469 1.25zm-200.81-198.59c-4.014.01-8.963-.537-14.688-1.344l-14.896-12.838c1.622-7.34 11.86-21.954 21.927-21.943l15.062 13.22c8.348 17.855 4.637 22.876-7.406 22.905z" fill="#fc0"/><path d="M570.076 485.88l-168.91-161.9 3.773-8.406 168.48 161.32-3.349 8.99z" fill="#333" stroke="#000" stroke-linecap="round" stroke-linejoin="round" stroke-width="1.25"/><path d="M573.306 477.26l.539-17.246-139.59-133.12c-9.049-1.456-19.102-5.443-29.585-11.203l168.63 161.57z" fill="#4d4d4d" stroke="#000" stroke-linecap="round" stroke-linejoin="round" stroke-width="1.25"/><path d="M338.866 264.37l28.025 26.947 3.234-7.545-26.947-25.87-4.312 6.467z" fill="#333" stroke="#000" stroke-linecap="round" stroke-linejoin="round" stroke-width="1.25"/><path d="M370.006 283.12l-7.668-22.646-7.62-7.081-11.546 4.821 26.834 24.905z" fill="#4d4d4d" stroke="#000" stroke-linecap="round" stroke-linejoin="round" stroke-width="1.25"/><path d="M400.846 323.83l21.019 25.159 142.82 135.28 5.928 2.156-169.77-162.59z" fill="#1a1a1a" stroke="#000" stroke-linecap="round" stroke-linejoin="round" stroke-width="1.25"/><path d="M339.406 265.45h0z" fill="#fff" stroke="#000" stroke-linecap="round" stroke-linejoin="round" stroke-width="1.25"/><path d="M352.326 282.16l-6.789-6.789-6.883-10.448 27.694 25.86-14.022-8.623z" fill="#1a1a1a" stroke="#000" stroke-linecap="round" stroke-linejoin="round" stroke-width="1.25"/><path d="M298.986 308.03l15.1 12.292-9.71-3.13-10.78-9.7 4.85-6.468.54 7.006zM365.006 362.87l15.897 19.533 143.36 137.43-11.318-2.156-141.74-134.74-6.196-20.07z" fill="gray" stroke="#000" stroke-linecap="round" stroke-linejoin="round" stroke-width="1.25"/><path d="M294.516 295.27c7.03 13.787 53.689-42.302 49.359-47.523-9.192-7.586-52.275 40.553-49.359 47.523z" fill="#1a1a1a"/><path d="M305.946 285.63c3.608 6.97 27.558-21.386 25.335-24.025-4.718-3.835-26.832 20.502-25.335 24.025z" stroke="#000" stroke-linecap="round" stroke-linejoin="round" stroke-width="1.397"/><path d="M311.656 282.03l-260.24-245-9.52-19.042 3.03-5.187 4.124-1.814 20.773 8.905 257.66 245.37c1.327 2.093-13.154 19.91-15.833 16.773z" fill="#f9f9f9" stroke="#000" stroke-linecap="round" stroke-linejoin="round" stroke-width="1.25"/><path d="M319.806 275.92L59.666 28.77 45.067 12.902l4.213-1.542 20.624 9.234 256.67 244.74c-.205 3.954-3.873 7.675-6.774 10.587z" fill="#999"/><path d="M325.826 267.97L67.516 23.11l1.561 5.204-13.112 2.344-4.194 5.995-9.514-18.666 2.996-4.95 3.886-1.133 20.135 8.327 257.67 245.4c-.235.85-.442 1.716-1.118 2.346z" fill="gray"/><path d="M79.376 39.24l-5.789-2.31L61.27 24.615 49.692 14.76l1.136-1.26 16.355 8.158L79.747 32.99l-5.42-.74 5.05 6.99z" fill="#b3b3b3" stroke="#000" stroke-linecap="round" stroke-linejoin="round" stroke-width="1.25"/><path d="M73.946 32.16l-5.035-.4 4.927 4.927 5.605 2.247-5.497-6.774z" fill="#ececec" stroke="#000" stroke-linecap="round" stroke-linejoin="round" stroke-width="1.25"/><path d="M55.936 30.29l262.01 247.57c1.348-1.333 2.485-3.385 3.872-4.856L61.228 25.714l-1.665 3.213-3.625 1.368z" fill="#ccc"/><path d="M307.436 278.64c7.16-5.898 12.017-18.042-1.04-34.87l20.296 21.859c-2.447 7.945-8.752 12.99-14.052 17.175l-5.204-4.164z" fill="#999" opacity=".41"/><path d="M71.466 47.56l-3.048-5.696-13.056-11.578L46 17.969l-2.218.739 8.869 17.49 14.534 13.55-2.464-6.159 6.744 3.972z" fill="#ccc" stroke="#000" stroke-linecap="round" stroke-linejoin="round" stroke-width="1.25"/><path d="M64.476 43.34l.493-4.434 3.941 3.202 2.186 5.327-6.62-4.095z" fill="gray" stroke="#000" stroke-linecap="round" stroke-linejoin="round" stroke-width="1.25"/><path d="M554.326 509.3l-176.87-165.56c5.92-4.553 19.297-1.227 33.156 12.688l146.53 139.16c2.485 4.828.847 9.858-2.813 13.719zm-206.94-193.72l-29.344-27.469c3.775-3.863 8.266-6.786 12.75-6.781l15.062 13.219c5.647 12.08 5.768 18.272 1.531 21.03z" fill="#ffd42a"/><path d="M539.266 516.05c-2.184.06-4.353-.272-6.375-1.063l-144.97-137.97c-6.852-7.788-10.813-14.51-12.562-19.938l168.03 158.41a20.27 20.27 0 0 1-4.125.563zm-206.25-198.88a165.176 165.176 0 0 1-9.25-1.063l-14.906-12.844c.396-1.793 1.328-4.032 2.625-6.375l21.531 20.281z" fill="#d4aa00"/></g></svg>