<svg viewBox="0 0 136.146 135.104" xmlns="http://www.w3.org/2000/svg" xmlns:xlink="http://www.w3.org/1999/xlink"><defs><clipPath id="v"><path id="o" d="M55.8 12l.76.16c8.84-2.94 28.68 8.64 24.26 18.96-1.12 1.62-.93 4.5.42 6.31L56.43 62.25c-1.39-1.39-4.48-1.36-5.9 0L9.5 101.63c-3.74 3.59-.8 6.64.78 8.25l7.36 7.36c1.61 1.6 5.86 3.76 8.88.56l38.72-40.81c1.35-1.42 1.36-4.47 0-5.87 0 0 .01-.02 0-.02l24.91-24.9c2.63 2.37 5.114 2.575 7.47 1.93 4.55-1.245 7.087 3.207 9.81 6.46l-1.23 1.21c-1.82 1.84-1.65 4.94.39 6.98s5.15 2.21 6.97.39l8.14-8.13c1.82-1.84 1.65-4.94-.4-6.97-1.84-1.85-4.51-2.09-6.37-.77-5.58-6.26-2.65-7.2-10.01-15.35L91.13 17.86C81.2 8.12 68.3 8.13 55.8 12z"/></clipPath><filter id="C"><feGaussianBlur stdDeviation="1.192"/></filter><filter id="O"><feGaussianBlur stdDeviation=".496"/></filter><filter id="J" x="-.021" y="-.131" width="1.042" height="1.262"><feGaussianBlur stdDeviation="1.495"/></filter><filter id="M" x="-.129" y="-.197" width="1.258" height="1.394"/><linearGradient id="d"><stop stop-color="#747474" offset="0"/><stop stop-color="#e8e8e8" offset="1"/></linearGradient><linearGradient id="e"><stop stop-color="#a5a5a5" offset="0"/><stop offset="1"/></linearGradient><linearGradient id="b"><stop offset="0"/><stop stop-opacity="0" offset="1"/></linearGradient><linearGradient id="c"><stop stop-color="#fff" offset="0"/><stop stop-color="#fff" stop-opacity="0" offset="1"/></linearGradient><linearGradient id="a"><stop stop-color="#ccc" offset="0"/><stop stop-color="#1a1a1a" offset=".249"/><stop stop-color="#fff" offset=".623"/><stop stop-color="#666" offset="1"/></linearGradient><linearGradient id="k" x1="65.394" x2="66.866" y1="374.71" y2="374.98" gradientUnits="userSpaceOnUse"><stop stop-color="#999" stop-opacity="0" offset="0"/><stop stop-color="#a7a7a7" offset=".263"/><stop stop-color="#f8f8f8" offset="1"/></linearGradient><linearGradient id="n" x1="211.71" x2="215.69" gradientUnits="userSpaceOnUse"><stop stop-color="#ffb142" offset="0"/><stop stop-color="#c87600" offset="1"/></linearGradient><linearGradient id="z" x1="189.08" x2="171.57" y1="584.81" y2="551.8" gradientUnits="userSpaceOnUse"><stop stop-color="#004" offset="0"/><stop stop-color="#00006d" offset="1"/></linearGradient><linearGradient id="A" x1="134.38" x2="227.2" y1="558.44" y2="566.97" gradientUnits="userSpaceOnUse"><stop stop-color="#3e3ecf" offset="0"/><stop stop-color="#16166a" offset="1"/></linearGradient><linearGradient id="B" x1="191.12" x2="154.13" y1="614.39" y2="517.96" gradientUnits="userSpaceOnUse"><stop stop-color="#040463" offset="0"/><stop stop-color="#1b1bbb" offset="1"/></linearGradient><linearGradient id="E" x1="270.9" x2="261.1" y1="469.55" y2="498.48" gradientUnits="userSpaceOnUse"><stop stop-color="#d7d7d7" offset="0"/><stop stop-color="#d7d7d7" stop-opacity="0" offset="1"/></linearGradient><linearGradient id="h" x1="51.264" x2="76.986" gradientUnits="userSpaceOnUse" xlink:href="#a"/><linearGradient id="i" x1="54.997" x2="78.591" y1="380.7" y2="369.4" gradientUnits="userSpaceOnUse" xlink:href="#a"/><linearGradient id="j" x1="54.517" x2="74.345" y1="371.56" y2="376.17" gradientUnits="userSpaceOnUse" xlink:href="#a"/><linearGradient id="l" x1="17.667" x2="112.13" gradientUnits="userSpaceOnUse" xlink:href="#a"/><linearGradient id="m" x1="-10.5" x2="113.5" y1="42.862" y2="130.36" gradientUnits="userSpaceOnUse" xlink:href="#a"/><linearGradient id="p" x1="2483" x2="2375.5" y1="6145.3" y2="6037.5" gradientUnits="userSpaceOnUse" xlink:href="#b"/><linearGradient id="q" x1="577.03" x2="626.1" gradientTransform="matrix(.0775 .0775 -.36 .36 78.84 -44.8)" gradientUnits="userSpaceOnUse" xlink:href="#c"/><linearGradient id="r" x2="0" y1="288.57" y2="368.27" gradientTransform="matrix(.3 .3 -.09 .09 78.84 -44.8)" gradientUnits="userSpaceOnUse" xlink:href="#c"/><linearGradient id="s" x2="0" y1="62.74" y2="-1.72" gradientTransform="matrix(.33 .33 -.0944 .0944 9.03 -48.1)" gradientUnits="userSpaceOnUse" xlink:href="#c"/><linearGradient id="t" x1="543.1" x2="419.88" gradientTransform="matrix(.0998 .0998 -.28 .28 78.84 -44.8)" gradientUnits="userSpaceOnUse" xlink:href="#b"/><linearGradient id="u" x1="512.7" x2="615.59" y1="254.36" y2="254.83" gradientTransform="matrix(.0807 .0775 -.35 .36 77.14 -45.89)" gradientUnits="userSpaceOnUse" xlink:href="#c"/><linearGradient id="w" x1="637.03" x2="638.3" y1="69.99" y2="118.3" gradientTransform="matrix(.1 .1 -.22 .2 75.6 -33.53)" gradientUnits="userSpaceOnUse" xlink:href="#c"/><linearGradient id="D" x1="181.78" x2="177.35" y1="583.33" y2="581.29" gradientUnits="userSpaceOnUse" xlink:href="#d"/><linearGradient id="F" x1="1415.4" x2="1449.1" gradientUnits="userSpaceOnUse" xlink:href="#b"/><linearGradient id="G" x1="887.46" x2="921.13" gradientUnits="userSpaceOnUse" xlink:href="#b"/><linearGradient id="H" x1="166.2" x2="158.66" y1="561.97" y2="561.26" gradientUnits="userSpaceOnUse" xlink:href="#d"/><linearGradient id="I" x1="202.7" x2="191.82" y1="561.07" y2="563.04" gradientUnits="userSpaceOnUse" xlink:href="#d"/><radialGradient id="f" cx="414.68" cy="-8.88" r="123.55" gradientTransform="matrix(0 .27968 -.60927 0 101.73 -39.26)" gradientUnits="userSpaceOnUse"><stop stop-color="#ffb142" offset="0"/><stop stop-color="#ffb141" offset=".887"/><stop stop-color="#c87600" offset="1"/></radialGradient><radialGradient id="K" cx="543.99" cy="389.09" r="40.927" gradientTransform="matrix(.80329 -.28778 .17566 .43473 -297.92 341.1)" gradientUnits="userSpaceOnUse"><stop stop-color="#f81515" offset="0"/><stop stop-color="#c60606" offset="1"/></radialGradient><radialGradient id="L" cx="545.13" cy="391.26" r="3.864" gradientTransform="matrix(-.00219 .25546 -.65669 -.00499 469.57 210)" gradientUnits="userSpaceOnUse"><stop stop-color="#fff" offset="0"/><stop stop-color="#c6c6c6" offset="1"/></radialGradient><radialGradient id="N" cx="546.78" cy="462.99" r="46.651" gradientTransform="matrix(.9754 .00766 -.00416 .52367 -320.21 135.62)" gradientUnits="userSpaceOnUse"><stop stop-color="#060000" offset="0"/><stop stop-color="#a40000" offset="1"/></radialGradient><radialGradient id="g" cx="610.46" cy="483.45" r="167.56" gradientTransform="matrix(0 -.48219 .4319 0 -151.97 551.35)" gradientUnits="userSpaceOnUse" xlink:href="#e"/><radialGradient id="x" cx="380.26" cy="622.49" r="59.255" gradientTransform="matrix(0 -.74351 .66041 0 -364.7 582.13)" gradientUnits="userSpaceOnUse" xlink:href="#e"/><radialGradient id="y" cx="371.45" cy="647.69" r="59.255" gradientTransform="matrix(0 -.74351 -.66041 0 552.03 582.13)" gradientUnits="userSpaceOnUse" xlink:href="#e"/></defs><g fill-rule="evenodd"><path d="M81.781 385.54c-15.668 1.613-33.638 14.291-26.495 17.056s27.873 3.918 31.79.692c2.013-1.657 5.614-5.808 6.038-9.704.425 3.895 4.016 8.047 6.028 9.704 3.917 3.226 24.658 2.073 31.8-.692s-10.827-15.443-26.495-17.056c-8.068.778-10.97 3.488-11.333 6.598-.363-3.11-3.265-5.82-11.333-6.598z" fill="url(#f)" stroke="#000" stroke-width="1.564" transform="matrix(.92298 0 0 1 -5.64 -277.061)"/><path d="M69.845 108.489c-7.098.792-14.7 4.249-19.83 7.892 7.769 3.892 17.268 6.291 27.565 6.567 1.32-1.88 2.501-4.187 2.725-6.415.222 2.207 1.377 4.493 2.679 6.364 10.127-.464 19.43-2.98 27-6.944-5.11-3.484-12.397-6.703-19.219-7.464-7.446.778-10.125 3.489-10.46 6.598-.336-3.11-3.014-5.82-10.46-6.598z" fill-opacity=".314"/></g><path d="M146.28 340.23a53.948 53.948 0 0 1-107.9 0 53.948 53.948 0 1 1 107.9 0z" fill="url(#g)" stroke="#000" stroke-linecap="round" stroke-width="1.564" transform="matrix(.92298 0 0 1 -5.64 -277.061)"/><path d="M118.99 367.2a26.153 26.153 0 1 1-52.307 0 26.153 26.153 0 1 1 52.307 0z" fill="#fff" stroke="#000" stroke-linecap="round" stroke-width="1.629" transform="matrix(.92298 0 0 1 -5.64 -277.061)"/><path d="M127.408 48.169a58.99 58.99 0 0 1 .16 4.246c0 29.78-22.316 53.947-49.802 53.947-22.682 0-41.826-16.459-47.828-38.948 2.003 27.795 23.468 49.701 49.633 49.701 27.485 0 49.8-24.168 49.8-53.947 0-5.204-.692-10.237-1.964-14.999z" fill-opacity=".314"/><path d="M93.913 59.971c-.053.007-.106.048-.157.062-.053 0-.103-.038-.156-.03-.958.124-1.632 1.505-1.656 3.25L79.1 64.907l-11.156-3.093-1.5.656h-.031l.093.125.875 1.281 6.282 1.75-7.47.969-1.187 1.25-.062.031.156.094 1.375.844 12.719-1.657 12 3.344c-.207 1.636.212 3.005 1.094 3.25.036.01.087-.006.125 0 .016.008.014.024.03.031h.032l.125.032c1.065.297 2.391-1.144 2.969-3.219.298-1.07.335-2.087.156-2.875.692-.701 1.035-2.226.813-3.937-.292-2.247-1.471-3.963-2.625-3.813zm-1.657 5.5c.148.522.333.978.563 1.375-.401.396-.768.925-1.063 1.594l-7.125-1.969 7.625-1z" opacity=".373" stroke="#000" stroke-width="1.632"/><path d="M95.93 61.982c-.292-2.247-1.469-3.948-2.623-3.798-.053.006-.1.045-.151.059-.006.001-.013 0-.02.003-.053-.001-.108-.026-.161-.02-.958.125-1.605 1.493-1.63 3.237L65.573 64.81l-1.191 1.249-.037.025.13.082 1.385.855 25.773-3.347c.47 1.67 1.445 2.818 2.399 2.694.04-.005.076-.026.115-.035.02.001.04-.008.058-.008.013-.003.027 0 .04-.005.04 0 .08.01.12.004 1.153-.15 1.857-2.095 1.565-4.342z" stroke="#000" stroke-width="1.6317443200000001"/><path d="M51.272 371.08l12.818 12.818 12.818-12.818V108.31H51.272z" fill="url(#h)" transform="rotate(82.601 20.65 86.992) scale(.08651 .10669)"/><path d="M67.156 371.09H51.281l12.812 12.812z" fill="url(#i)" transform="rotate(82.601 20.65 86.992) scale(.08651 .10669)"/><path d="M51.281 108.31v262.78h25.625V108.31H51.281z" fill="url(#h)" transform="rotate(82.601 20.65 86.992) scale(.08651 .10669)"/><path d="M67.142 371.09l-3.08 12.781.032.031 12.812-12.812z" fill="url(#j)" transform="rotate(82.601 20.65 86.992) scale(.08651 .10669)"/><path d="M65.938 371.09l-2.188 12.469.313.312.031.032 1-1 2.625-11.812h-1.78z" fill="url(#k)" transform="rotate(82.601 20.65 86.992) scale(.08651 .10669)"/><path d="M51.272 371.08l12.818 12.818 12.818-12.818V108.31H51.272z" fill="url(#h)" transform="rotate(82.601 20.65 86.992) scale(.08651 .10669)"/><path d="M67.156 371.09H51.281l12.812 12.812z" fill="url(#i)" transform="rotate(82.601 20.65 86.992) scale(.08651 .10669)"/><path d="M51.281 108.31v262.78h25.625V108.31H51.281z" fill="url(#h)" transform="rotate(82.601 20.65 86.992) scale(.08651 .10669)"/><path d="M67.142 371.09l-3.08 12.781.032.031 12.812-12.812z" fill="url(#j)" transform="rotate(82.601 20.65 86.992) scale(.08651 .10669)"/><path d="M65.938 371.09l-2.188 12.469.313.312.031.032 1-1 2.625-11.812h-1.78z" fill="url(#k)" transform="rotate(82.601 20.65 86.992) scale(.08651 .10669)"/><g fill-rule="evenodd"><path transform="scale(.0865) rotate(82.601 221.998 990.94)" d="M111.52 104.47c0 13.451-21.234 24.354-47.427 24.354S16.666 117.92 16.666 104.47 37.9 80.116 64.093 80.116 111.52 91.02 111.52 104.47z" fill="url(#l)"/><path d="M111.52 104.47c0 13.451-21.234 24.354-47.427 24.354S16.666 117.92 16.666 104.47 37.9 80.116 64.093 80.116 111.52 91.02 111.52 104.47z" fill="url(#m)" transform="scale(.0865) rotate(82.601 224.275 992.94)"/><path transform="scale(.0865) rotate(82.601 221.998 990.94)" d="M111.52 104.47c0 13.451-21.234 24.354-47.427 24.354S16.666 117.92 16.666 104.47 37.9 80.116 64.093 80.116 111.52 91.02 111.52 104.47z" fill="url(#l)"/><path d="M111.52 104.47c0 13.451-21.234 24.354-47.427 24.354S16.666 117.92 16.666 104.47 37.9 80.116 64.093 80.116 111.52 91.02 111.52 104.47z" fill="url(#m)" transform="scale(.0865) rotate(82.601 224.275 992.94)"/></g><path d="M94.96 68.828c.578-2.074.179-4-.887-4.296-.049-.014-.104.002-.154-.004-.006-.001-.012-.005-.019-.005-.046-.02-.085-.063-.134-.077-.884-.246-1.958.71-2.626 2.228l-23.796-6.628-1.506.651-.04.009.082.12.895 1.262 23.796 6.628c-.207 1.636.22 3.001 1.101 3.247.037.01.077.006.114.012.016.008.037.008.054.015.012.001.024.009.036.01.035.014.067.038.103.048 1.066.297 2.403-1.145 2.98-3.22z" stroke="#000" stroke-width="1.5797264"/><path d="M51.272 371.08l12.818 12.818 12.818-12.818V108.31H51.272z" fill="url(#h)" transform="rotate(105.565 27.265 72.808) scale(.08222 .10141)"/><path d="M67.156 371.09H51.281l12.812 12.812z" fill="url(#i)" transform="rotate(105.565 27.265 72.808) scale(.08222 .10141)"/><path d="M51.281 108.31v262.78h25.625V108.31H51.281z" fill="url(#h)" transform="rotate(105.565 27.265 72.808) scale(.08222 .10141)"/><path d="M67.142 371.09l-3.08 12.781.032.031 12.812-12.812z" fill="url(#j)" transform="rotate(105.565 27.265 72.808) scale(.08222 .10141)"/><path d="M65.938 371.09l-2.188 12.469.313.312.031.032 1-1 2.625-11.812h-1.78z" fill="url(#k)" transform="rotate(105.565 27.265 72.808) scale(.08222 .10141)"/><path d="M51.272 371.08l12.818 12.818 12.818-12.818V108.31H51.272z" fill="url(#h)" transform="rotate(105.565 27.265 72.808) scale(.08222 .10141)"/><path d="M67.156 371.09H51.281l12.812 12.812z" fill="url(#i)" transform="rotate(105.565 27.265 72.808) scale(.08222 .10141)"/><path d="M51.281 108.31v262.78h25.625V108.31H51.281z" fill="url(#h)" transform="rotate(105.565 27.265 72.808) scale(.08222 .10141)"/><path d="M67.142 371.09l-3.08 12.781.032.031 12.812-12.812z" fill="url(#j)" transform="rotate(105.565 27.265 72.808) scale(.08222 .10141)"/><path d="M65.938 371.09l-2.188 12.469.313.312.031.032 1-1 2.625-11.812h-1.78z" fill="url(#k)" transform="rotate(105.565 27.265 72.808) scale(.08222 .10141)"/><g fill-rule="evenodd"><path transform="rotate(105.565 26.349 71.602) scale(.08222)" d="M111.52 104.47c0 13.451-21.234 24.354-47.427 24.354S16.666 117.92 16.666 104.47 37.9 80.116 64.093 80.116 111.52 91.02 111.52 104.47z" fill="url(#l)"/><path d="M111.52 104.47c0 13.451-21.234 24.354-47.427 24.354S16.666 117.92 16.666 104.47 37.9 80.116 64.093 80.116 111.52 91.02 111.52 104.47z" fill="url(#m)" transform="rotate(105.565 26.474 71.766) scale(.08222)"/><path transform="rotate(105.565 26.349 71.602) scale(.08222)" d="M111.52 104.47c0 13.451-21.234 24.354-47.427 24.354S16.666 117.92 16.666 104.47 37.9 80.116 64.093 80.116 111.52 91.02 111.52 104.47z" fill="url(#l)"/><path d="M111.52 104.47c0 13.451-21.234 24.354-47.427 24.354S16.666 117.92 16.666 104.47 37.9 80.116 64.093 80.116 111.52 91.02 111.52 104.47z" fill="url(#m)" transform="rotate(105.565 26.474 71.766) scale(.08222)"/></g><path d="M69.64 27.27c-6.898 0-12.5 6.984-12.5 15.589s5.602 15.589 12.5 15.589c4.053 0 7.65-2.415 9.934-6.15 2.283 3.738 5.888 6.15 9.943 6.15 6.898 0 12.5-6.984 12.5-15.589s-5.602-15.589-12.5-15.589c-4.054 0-7.66 2.413-9.943 6.15-2.284-3.734-5.881-6.15-9.934-6.15z" fill="#fff" stroke="#000" stroke-linecap="round" stroke-width="1.565"/><path d="M80.17 54.15c-4.355 0-9.088 4.297-8.898 7.01s7.762 14.02 9.466 14.02 8.33-11.08 8.141-14.247-5.87-7.01-8.709-6.784z" fill-opacity=".314" fill-rule="evenodd"/><path d="M212.84 397.34c-4.354 0-9.088 3.897-8.898 6.359s7.762 12.718 9.466 12.718 8.33-10.051 8.141-12.923-5.87-6.359-8.709-6.154z" fill="url(#n)" fill-rule="evenodd" stroke="#000" stroke-width="1.565" transform="translate(-133.36 -345.9)"/><path d="M77.39 45.6a3.124 3.385 0 0 1-6.248 0 3.124 3.385 0 1 1 6.248 0zM88.57 45.6a3.124 3.385 0 1 1-6.248 0 3.124 3.385 0 1 1 6.248 0z" stroke="#000" stroke-linecap="round" stroke-width="1.565"/><g><path d="M109.855 72.586l-.29.09c-3.556-.823-10.87 4.42-8.769 8.283.496.59.528 1.72.067 2.476l10.585 8.773c.492-.593 1.698-.694 2.302-.216l1.496-.607c-2.694 5.693-3.322 7.148-6.046 8.228l-.648-1.333c-.579-.505-.694-1.694-.215-2.29 0 0-.005-.007 0-.008l-10.628-8.8c-.939 1.02-1.9 1.191-2.843 1.026-1.82-.32-2.647 1.51-3.59 2.879l.524.427c.778.65.825 1.866.104 2.736s-1.928 1.051-2.705.408l-3.472-2.873c-.777-.651-.824-1.867-.1-2.734.65-.789 1.683-.98 2.457-.533 1.948-2.646.77-2.905 3.343-6.354l4.863-6c3.516-4.162 8.548-4.63 13.566-3.579z" opacity=".339" stroke="#000" stroke-linejoin="round" stroke-width="2.272"/><g transform="matrix(-.39004 .0366 .0366 .39004 130.695 63.656)"><use class="outline-big" width="128" height="128" stroke="#000" stroke-linejoin="round" stroke-width="5.8" xlink:href="#o"/><use class="outline-small stroke-aluminium5" width="128" height="128" opacity=".5" stroke="#000" stroke-linejoin="round" stroke-width="4" xlink:href="#o"/><path class="aluminium2" d="M82.92 35.75L53.47 65.2l8.83 8.83 29.45-29.44-8.83-8.84z" fill="#d3d7cf"/><path class="specularity" d="M88.93 41.76L59.48 71.2l2.82 2.83 29.45-29.44-2.82-2.83z" fill="url(#p)" opacity=".5"/><path d="M86.46 37.04L57.13 66.37l3.79 3.79L89.5 40.08l-3.04-3.04z" fill="url(#q)"/><path class="aluminium6" d="M55.8 12l.76.16c8.84-2.94 28.68 8.64 24.26 18.96-1.12 1.62-.93 4.5.42 6.31l8.91 8.77c2.63 2.37 5.11 2.57 7.47 1.93 4.55-1.23 7.08 3.2 9.81 6.46l-1.23 1.21c-1.82 1.84-1.65 4.94.39 6.98s5.15 2.21 6.97.39l8.14-8.13c1.82-1.84 1.65-4.94-.4-6.97-1.84-1.85-4.51-2.09-6.37-.77-5.58-6.26-2.65-7.2-10.01-15.35L91.13 17.86C81.2 8.12 68.3 8.13 55.8 12z" fill="#2e3436"/><path class="specularity" d="M114.93 47.3c-5.58-6.26-2.65-7.2-10.01-15.35L91.13 17.86C85.44 12.28 78.77 9.9 71.77 9.6l41.13 41.53 2.975-2.73-.945-1.1z" fill="url(#r)" opacity=".5"/><path class="low-specularity" d="M81.45 28c.05 1-.18 2-.65 3.12-1.1 1.62-.91 4.5.44 6.31l8.91 8.77c2.63 2.37 5.11 2.57 7.47 1.93 1.08-.33 2.06-.27 2.98 0 2.8.77-19.16-20.55-19.15-20.23v.1z" fill="url(#s)" opacity=".5"/><path d="M56.43 62.25c-1.39-1.39-4.48-1.36-5.9 0L9.5 101.63c-3.74 3.59-.82 6.64.78 8.25l7.36 7.36c1.61 1.6 5.86 3.76 8.88.56l38.72-40.81c1.35-1.42 1.36-4.47 0-5.87 0 0 .01-.02 0-.02l-8.81-8.85z" fill="#3465a4"/><path class="low-shade" d="M10.27 109.87l7.36 7.37c1.61 1.6 5.73 3.89 8.75.71l38.87-40.97c1.35-1.43 1.39-4.5 0-5.88l-8.83-8.84-46.15 47.61z" fill="url(#t)" opacity=".5"/><path class="specularity" d="M51.2 65.7l-38.88 38.04c-1.62 1.56-1.07 3.75.1 4.89l4.13 3.97L58.92 69 55 65.32c-.84-.8-2.8-.57-3.8.38z" fill="url(#u)" opacity=".5"/><use class="stroke-highlight" width="128" height="128" clip-path="url(#v)" fill="none" stroke="#fff" stroke-linejoin="round" stroke-opacity=".2" stroke-width="4" xlink:href="#o"/><path d="M120.45 49.26c1.51 1.44 1.8 3.44-.28 5.36l-3.87 3.63c-2.08 1.95-7.52-3.25-5.45-5.19l3.88-3.63c2.07-1.95 4.21-1.61 5.72-.17z" fill="url(#w)"/></g></g><g fill-rule="evenodd" stroke="#000" stroke-width="1.629"><path d="M51.639 328.16c15.558 5.621-5.618 30.543 12.323 52.523 3.237 3.966-18.856.681-26.629-21.696-7.559-21.762-.369-35.041 14.306-30.827z" fill="#fff" transform="matrix(.92298 0 0 1 -6.87 -277.061)"/><path d="M51.639 328.16c15.677 5.637-13.877 33.276 12.323 52.523 7.373 5.416-18.856.681-26.629-21.696-7.559-21.762-.369-35.041 14.306-30.827z" fill="url(#x)" transform="matrix(.92298 0 0 1 -6.87 -277.061)"/></g><g fill-rule="evenodd" stroke="#000" stroke-width="1.629"><path d="M135.69 328.16c-15.677 5.637 4.615 30.676-12.323 52.523-3.13 4.038 18.856.681 26.629-21.696 7.559-21.762.369-35.041-14.306-30.827z" fill="#fff" transform="matrix(.91991 -.07521 .08148 .99667 -33.484 -265.115)"/><path d="M135.69 328.16c-15.677 5.637 13.877 33.276-12.323 52.523-7.373 5.416 18.856.681 26.629-21.696 7.559-21.762.369-35.041-14.306-30.827z" fill="url(#y)" transform="matrix(.91991 -.07521 .08148 .99667 -33.484 -265.115)"/></g><path d="M13.49 127.52c19.507 1.396 38.976 4.072 55.122 5.632.94-1.55-3.479-11.713.69-14.887 1.54-5.774 2.217-10.209 2.325-12.656-.005-.007.005-.024 0-.031-.106-.146-.666.263-.8.119C40.048 100.41 44.87 68.173 13.49 127.52z" opacity=".214" stroke="#000" stroke-linecap="round" stroke-linejoin="round" stroke-width="3.896"/><g><path d="M9.202 84.51c-1.166.833-1.804 1.78-2.281 3.219H6.89l-1.688 9.25c-.813 3.973-1.401 6.955-4.187 22.875l64.219 11.719 4.187-22.812c.767-2.84 1.055-6.209 1.688-9.281h-.032c.016-1.497-.098-2.69-.969-3.844l-19.656-3.594c-2.755-2.692-6.304-4.671-10.125-5.375h-.062c-3.813-.703-7.83-.106-11.312 1.469L9.203 84.51z" stroke="#000" stroke-linecap="round" stroke-linejoin="round" stroke-width="2.018"/><path d="M128.37 565.74h102.61v14.763H128.37z" fill="url(#z)" stroke="#000046" stroke-linecap="round" stroke-linejoin="round" stroke-width=".971" transform="scale(.6363) rotate(10.35 2431.64 -297.18)"/><path d="M131.02 560.1h97.3c1.744 1.606 2.245 3.498 2.65 5.965h-102.6c.31-2.562 1.002-4.264 2.651-5.965z" fill="url(#A)" stroke="#004" stroke-linecap="round" stroke-linejoin="round" stroke-width=".971" transform="scale(.6363) rotate(10.35 2431.64 -297.18)"/><path d="M128.37 580.6h102.61v36.433H128.37z" fill="url(#B)" stroke="#00013d" stroke-linecap="round" stroke-linejoin="round" stroke-width=".971" transform="scale(.6363) rotate(10.35 2431.64 -297.18)"/><path transform="rotate(10.346 -185.33 -5.164) scale(.12047)" d="M416.2 487.67h48.487v70.711H416.2z" fill="#2d2d2d" fill-opacity=".824" filter="url(#C)"/><path d="M176.09 576.45h9.18v13.388h-9.18z" fill="url(#D)" stroke="url(#E)" stroke-linecap="round" stroke-linejoin="round" stroke-opacity=".642" stroke-width=".485" transform="scale(.6363) rotate(10.35 2431.973 -300.853)"/><path transform="matrix(.0559 .0102 -.01904 .10426 23.107 45.236)" d="M431.84 515.94l7.886 13.658 7.885 13.658h-31.542l7.885-13.658z" fill="#1a1a1a" stroke="url(#F)" stroke-width="7.001"/><path transform="rotate(10.349 -206.42 -5.753) scale(.12 .11143)" d="M449.52 520.52c0 3.905-2.94 7.071-6.566 7.071s-6.566-3.166-6.566-7.071 2.94-7.071 6.566-7.071 6.566 3.166 6.566 7.071z" fill="#1a1a1a" stroke="url(#G)" stroke-width="5.128"/><path d="M7.144 87.748L70.79 99.41" fill="navy" stroke="#00013d" stroke-linecap="round" stroke-linejoin="round" stroke-width=".7349265"/><g><path d="M158.97 560.65h9.18l-1.136 2.417h-9.18z" fill="url(#H)" stroke="url(#E)" stroke-linecap="round" stroke-linejoin="round" stroke-opacity=".642" stroke-width=".485" transform="scale(.6363) rotate(10.35 2431.725 -298.115)"/><path d="M200.72 560.65h-9.18l1.136 2.417h9.18z" fill="url(#I)" stroke="url(#E)" stroke-linecap="round" stroke-linejoin="round" stroke-opacity=".642" stroke-width=".485" transform="scale(.6363) rotate(10.35 2431.725 -298.115)"/><path d="M40.262 86.661c-3.937-.725-8.11-.087-11.667 1.605-.234.105-.423.307-.511.547s-.032.28.078.512.36.178.602.261.475.301.704.186c6.367-2.527 14.855-.872 19.89 3.644.177.18.472.048.725.05s.461.135.641-.043.242-.192.243-.445-.101-.505-.28-.685c-2.79-2.817-6.429-4.895-10.366-5.62z" fill="#71481d"/><path transform="rotate(10.346 -185.488 -3.422) scale(.12047)" d="M350.52 410.66c56.137-32.9 110.11-35.855 175.4-1.456" fill="none" filter="url(#J)" stroke="#fff" stroke-linecap="round" stroke-width="2.564"/></g></g><path d="M166.17 389.3c.923-7.404 10.578-26.717 19.874-30.626 9.422-4.206 15.782-6.97 22.364-9.838 2.066-.611 3.526-.081 5.133.172 14.793 1.789 22.453 8.227 31.163 13.981 6.48 4.43 14.213 21.617 14.797 26.162-13.661 3.994-17.005-17.942-47.928-20.564-32.612 1.528-27.156 21.63-45.403 20.713z" fill="url(#K)" stroke="#000" stroke-width="1.259" transform="translate(-133.36 -345.9)"/><path d="M80.55 2.76c1.67 5.006 2.193 11.841 2.231 16.846M77.69 1.81c1.486 4.94 2.21 12.777 2.781 18.146M75.05 2.94c1.163 4.6 2.078 11.264 2.781 16.298M48.14 15.78c-3.686 4.622-5.166 10.074-6.542 15.566M107.44 14.53c5.338 4.95 13.312 19.329 13.973 24.939" fill="none" opacity=".491" stroke="#000" stroke-dasharray="0.76735715, 0.38367857" stroke-width=".384"/><path d="M208.02 348.6c.325 1.432 6.534 1.625 6.63-.321.123-2.385-7.072-2.344-6.63.321z" fill="url(#L)" stroke="#000" stroke-width="1.259" transform="translate(-133.36 -345.9)"/><g><path d="M532.24 400.59c-1.734.115-2.878 1.1-1.58 1.817 1.162-.008 3.269-1.44 1.58-1.817z" filter="url(#M)" opacity=".41" stroke="#000" stroke-width="1.4" transform="matrix(.9885 0 0 .93076 -461.5 -363.818)"/><path d="M532.57 400.68c-1.016-.694-2.967.89-2.119 1.518.952.411 2.79-.722 2.119-1.518z" fill="#510000" stroke="#ffcdcd" stroke-linecap="round" stroke-linejoin="round" transform="matrix(.9885 0 0 .93076 -461.5 -363.818)"/></g><g><path d="M532.24 400.59c-1.734.115-2.878 1.1-1.58 1.817 1.162-.008 3.269-1.44 1.58-1.817z" filter="url(#M)" opacity=".41" stroke="#000" stroke-width="1.4" transform="matrix(-.9885 0 0 .93076 618.24 -365.249)"/><path d="M532.57 400.68c-1.016-.694-2.967.89-2.119 1.518.952.411 2.79-.722 2.119-1.518z" fill="#510000" stroke="#ffcdcd" stroke-linecap="round" stroke-linejoin="round" transform="matrix(-.9885 0 0 .93076 618.24 -365.249)"/></g><path d="M40.18 41.05c-3.947.97-5.696 1.338-7.112 1.244M40.49 39.99c-5.275 1.122-6.025 1.367-7.112 1.244" fill="none" opacity=".491" stroke="#000" stroke-dasharray="0.76735715, 0.38367857" stroke-width=".384"/><g fill="none" stroke="#000" stroke-dasharray="0.76735715, 0.38367857" stroke-width=".384"><path d="M125.436 42.313c-4.037.47-5.818.617-7.212.348M125.875 41.3c-5.373.455-6.148.605-7.211.347" opacity=".491"/></g><g stroke="#000" stroke-width="1.063"><path d="M171.75 382c-4.983 3.052-7.41-.685-8.379-3.62-.416-1.12-1.033-5.495 8.866-11.323 27.393-16.134 59.86-16.304 85.367 2.647 5.658 4.525 4.824 7.758 3.537 10.901-1.422 1.524-3.958 2.631-6.19 2.813-17.98-42.692-88.016-22.832-83.2-1.418z" fill="#e90f0f" stroke-linecap="round" stroke-linejoin="round" transform="matrix(.87508 0 0 .91038 -106.152 -305.145)"/><path d="M174.06 378.81c13.956-22.147 57.882-20.702 77.858 1.242 1.03 1.029 2.049 2.242 3.537 2.814 2.513-1.445 7.267-3.258 3.661-9.206-18.106-15.61-57.143-27.571-92.68.497-5.645 4.951 3.606 10.784 5.325 7.466z" fill="url(#N)" transform="matrix(.87508 0 0 .91038 -106.152 -305.145)"/></g><path d="M177.16 389.15c17.418-15.493 54.109-14.62 73.807.556 8.84-5.024-13.211-21.409-38.206-21.539-23.296-.036-45.704 17.481-35.6 20.982z" filter="url(#O)" opacity=".308" transform="translate(-133.36 -345.9)"/><path d="M28.19 84.69c.835 2.166.797 2.366 2.087 3.937 3.22 3.717 13.799 4.038 16.209 3.133-1.1-.625-2.562-2.394-1.725-4.747-8.04-4.839-13.59-3.44-16.572-2.323z" stroke="#000"/><path d="M42.71 84.48c-.171 1.756-.435 6.8 2.546 6.242-1.391-.914-.245-4.477-.977-5.085z" fill="#fff"/></svg>